<svg width="464" height="200" viewBox="0 0 464 200" fill="none" xmlns="http://www.w3.org/2000/svg">
<g clip-path="url(#clip0_11068_314812)">
<rect width="464" height="200" fill="white"/>
<rect y="-15.0156" width="464" height="223.278" fill="url(#paint0_linear_11068_314812)"/>
<g opacity="0.5">
<g filter="url(#filter0_d_11068_314812)">
<rect x="81" y="72" width="76" height="53" rx="6.32812" fill="white"/>
</g>
</g>
<g opacity="0.5">
<g filter="url(#filter1_d_11068_314812)">
<rect x="404" y="72" width="76" height="53" rx="6.32812" fill="white"/>
</g>
<circle cx="442.238" cy="98.2617" r="14.2383" fill="#43C53F"/>
<path d="M440.447 100.427L438.119 98.0986L437.326 98.8859L440.447 102.007L447.148 95.3068L446.361 94.5195L440.447 100.427Z" fill="white"/>
</g>
<circle cx="395.238" cy="166.238" r="14.2383" fill="#43C53F"/>
<path d="M393.447 168.404L391.119 166.075L390.326 166.863L393.447 169.984L400.148 163.283L399.361 162.496L393.447 168.404Z" fill="white"/>
<circle cx="395.238" cy="31.2383" r="14.2383" fill="#43C53F"/>
<path d="M393.447 33.4036L391.119 31.0752L390.326 31.8625L393.447 34.9838L400.148 28.2834L399.361 27.4961L393.447 33.4036Z" fill="white"/>
<g opacity="0.5">
<g filter="url(#filter2_d_11068_314812)">
<rect x="449" y="140" width="76" height="53" rx="6.32812" fill="white"/>
</g>
</g>
<g opacity="0.5">
<g filter="url(#filter3_d_11068_314812)">
<rect x="449" y="5" width="76" height="53" rx="6.32812" fill="white"/>
</g>
</g>
<g opacity="0.5">
<g filter="url(#filter4_d_11068_314812)">
<rect x="-58" y="140" width="76" height="53" rx="6.32812" fill="white"/>
</g>
</g>
<g opacity="0.5">
<g filter="url(#filter5_d_11068_314812)">
<rect x="-58" y="5" width="76" height="53" rx="6.32812" fill="white"/>
</g>
</g>
<g opacity="0.5">
<g filter="url(#filter6_d_11068_314812)">
<rect x="-11" y="72" width="76" height="53" rx="6.32812" fill="white"/>
</g>
<circle cx="25.2383" cy="98.2617" r="14.2383" fill="#FFDB60"/>
<mask id="path-16-outside-1_11068_314812" maskUnits="userSpaceOnUse" x="20.4105" y="90.4361" width="9.22767" height="7.29525" fill="black">
<rect fill="white" x="20.4105" y="90.4361" width="9.22767" height="7.29525"/>
<path fill-rule="evenodd" clip-rule="evenodd" d="M28.2709 97.3457C28.0347 97.3379 27.8495 97.1399 27.8573 96.9037L27.91 95.3209C27.9611 93.7839 26.7565 92.4965 25.2195 92.4454C23.6825 92.3943 22.3951 93.5988 22.344 95.1358L22.2914 96.7186C22.2835 96.9549 22.0856 97.14 21.8493 97.1322C21.6131 97.1243 21.4279 96.9264 21.4357 96.6901L21.4884 95.1074C21.5552 93.0978 23.2384 91.5229 25.248 91.5897C27.2575 91.6566 28.8324 93.3398 28.7656 95.3494L28.713 96.9321C28.7051 97.1684 28.5072 97.3536 28.2709 97.3457Z"/>
</mask>
<path fill-rule="evenodd" clip-rule="evenodd" d="M28.2709 97.3457C28.0347 97.3379 27.8495 97.1399 27.8573 96.9037L27.91 95.3209C27.9611 93.7839 26.7565 92.4965 25.2195 92.4454C23.6825 92.3943 22.3951 93.5988 22.344 95.1358L22.2914 96.7186C22.2835 96.9549 22.0856 97.14 21.8493 97.1322C21.6131 97.1243 21.4279 96.9264 21.4357 96.6901L21.4884 95.1074C21.5552 93.0978 23.2384 91.5229 25.248 91.5897C27.2575 91.6566 28.8324 93.3398 28.7656 95.3494L28.713 96.9321C28.7051 97.1684 28.5072 97.3536 28.2709 97.3457Z" fill="#0070F0"/>
<path d="M27.91 95.3209L27.8244 95.3181L27.91 95.3209ZM28.7656 95.3494L28.8512 95.3522L28.7656 95.3494ZM28.713 96.9321L28.6274 96.9293L28.713 96.9321ZM27.8573 96.9037L27.7718 96.9008L27.8573 96.9037ZM27.9429 96.9065L27.9955 95.3238L27.8244 95.3181L27.7718 96.9008L27.9429 96.9065ZM27.9955 95.3238C28.0482 93.7395 26.8066 92.4125 25.2224 92.3598L25.2167 92.531C26.7064 92.5805 27.874 93.8283 27.8244 95.3181L27.9955 95.3238ZM25.2224 92.3598C23.6381 92.3071 22.3111 93.5487 22.2585 95.133L22.4296 95.1387C22.4791 93.6489 23.727 92.4814 25.2167 92.531L25.2224 92.3598ZM22.2585 95.133L22.2058 96.7157L22.377 96.7214L22.4296 95.1387L22.2585 95.133ZM21.4028 95.1045L21.3502 96.6873L21.5213 96.693L21.5739 95.1102L21.4028 95.1045ZM25.2508 91.5042C23.194 91.4358 21.4712 93.0477 21.4028 95.1045L21.5739 95.1102C21.6392 93.1479 23.2829 91.6101 25.2451 91.6753L25.2508 91.5042ZM28.8512 95.3522C28.9196 93.2954 27.3077 91.5726 25.2508 91.5042L25.2451 91.6753C27.2074 91.7406 28.7453 93.3842 28.6801 95.3465L28.8512 95.3522ZM28.7986 96.935L28.8512 95.3522L28.6801 95.3465L28.6274 96.9293L28.7986 96.935ZM28.6274 96.9293C28.6211 97.1183 28.4628 97.2664 28.2738 97.2601L28.2681 97.4313C28.5516 97.4407 28.7891 97.2185 28.7986 96.935L28.6274 96.9293ZM22.2058 96.7157C22.1995 96.9048 22.0412 97.0529 21.8522 97.0466L21.8465 97.2177C22.13 97.2272 22.3675 97.005 22.377 96.7214L22.2058 96.7157ZM21.8522 97.0466C21.6632 97.0403 21.515 96.882 21.5213 96.693L21.3502 96.6873C21.3408 96.9708 21.563 97.2083 21.8465 97.2177L21.8522 97.0466ZM27.7718 96.9008C27.7624 97.1844 27.9846 97.4218 28.2681 97.4313L28.2738 97.2601C28.0848 97.2539 27.9366 97.0955 27.9429 96.9065L27.7718 96.9008Z" fill="#0070F0" mask="url(#path-16-outside-1_11068_314812)"/>
<path d="M20.3172 97.563C20.3254 97.0903 20.7153 96.7137 21.188 96.7218L28.751 96.8527C29.2237 96.8609 29.6003 97.2507 29.5922 97.7235L29.519 101.953C29.4904 103.607 28.1258 104.925 26.4712 104.897L23.1882 104.84C21.5335 104.811 20.2154 103.447 20.244 101.792L20.3172 97.563Z" fill="#0070F0"/>
<circle cx="25.0533" cy="99.5291" r="0.764003" transform="rotate(-1.19845 25.0533 99.5291)" fill="white"/>
<path d="M24.5813 99.8377C24.5985 99.7126 24.7041 99.6185 24.8304 99.6159L25.2811 99.6064C25.4073 99.6038 25.5168 99.6934 25.5392 99.8177L25.9043 101.843C25.9324 101.999 25.8148 102.143 25.657 102.146L24.561 102.169C24.4032 102.172 24.2797 102.033 24.3012 101.877L24.5813 99.8377Z" fill="white"/>
</g>
<g opacity="0.5">
<g filter="url(#filter7_d_11068_314812)">
<rect x="34" y="140" width="76" height="53" rx="6.32812" fill="white"/>
</g>
<circle cx="70.2383" cy="166.262" r="14.2383" fill="#FFDB60"/>
<mask id="path-23-outside-2_11068_314812" maskUnits="userSpaceOnUse" x="65.4105" y="158.436" width="9.22767" height="7.29525" fill="black">
<rect fill="white" x="65.4105" y="158.436" width="9.22767" height="7.29525"/>
<path fill-rule="evenodd" clip-rule="evenodd" d="M73.2709 165.346C73.0347 165.338 72.8495 165.14 72.8573 164.904L72.91 163.321C72.9611 161.784 71.7565 160.496 70.2195 160.445C68.6825 160.394 67.3951 161.599 67.344 163.136L67.2914 164.719C67.2835 164.955 67.0856 165.14 66.8493 165.132C66.6131 165.124 66.4279 164.926 66.4357 164.69L66.4884 163.107C66.5552 161.098 68.2384 159.523 70.248 159.59C72.2575 159.657 73.8324 161.34 73.7656 163.349L73.713 164.932C73.7051 165.168 73.5072 165.354 73.2709 165.346Z"/>
</mask>
<path fill-rule="evenodd" clip-rule="evenodd" d="M73.2709 165.346C73.0347 165.338 72.8495 165.14 72.8573 164.904L72.91 163.321C72.9611 161.784 71.7565 160.496 70.2195 160.445C68.6825 160.394 67.3951 161.599 67.344 163.136L67.2914 164.719C67.2835 164.955 67.0856 165.14 66.8493 165.132C66.6131 165.124 66.4279 164.926 66.4357 164.69L66.4884 163.107C66.5552 161.098 68.2384 159.523 70.248 159.59C72.2575 159.657 73.8324 161.34 73.7656 163.349L73.713 164.932C73.7051 165.168 73.5072 165.354 73.2709 165.346Z" fill="#0070F0"/>
<path d="M67.344 163.136L67.2585 163.133L67.344 163.136ZM66.4884 163.107L66.5739 163.11L66.4884 163.107ZM73.7656 163.349L73.8512 163.352L73.7656 163.349ZM72.9429 164.907L72.9955 163.324L72.8244 163.318L72.7718 164.901L72.9429 164.907ZM72.9955 163.324C73.0482 161.74 71.8066 160.413 70.2224 160.36L70.2167 160.531C71.7064 160.58 72.874 161.828 72.8244 163.318L72.9955 163.324ZM70.2224 160.36C68.6381 160.307 67.3111 161.549 67.2585 163.133L67.4296 163.139C67.4791 161.649 68.727 160.481 70.2167 160.531L70.2224 160.36ZM67.2585 163.133L67.2058 164.716L67.377 164.721L67.4296 163.139L67.2585 163.133ZM66.4028 163.105L66.3502 164.687L66.5213 164.693L66.5739 163.11L66.4028 163.105ZM70.2508 159.504C68.194 159.436 66.4712 161.048 66.4028 163.105L66.5739 163.11C66.6392 161.148 68.2829 159.61 70.2451 159.675L70.2508 159.504ZM73.8512 163.352C73.9196 161.295 72.3077 159.573 70.2508 159.504L70.2451 159.675C72.2074 159.741 73.7453 161.384 73.6801 163.347L73.8512 163.352ZM73.7986 164.935L73.8512 163.352L73.6801 163.347L73.6274 164.929L73.7986 164.935ZM73.6274 164.929C73.6211 165.118 73.4628 165.266 73.2738 165.26L73.2681 165.431C73.5516 165.441 73.7891 165.218 73.7986 164.935L73.6274 164.929ZM67.2058 164.716C67.1995 164.905 67.0412 165.053 66.8522 165.047L66.8465 165.218C67.13 165.227 67.3675 165.005 67.377 164.721L67.2058 164.716ZM66.8522 165.047C66.6632 165.04 66.515 164.882 66.5213 164.693L66.3502 164.687C66.3408 164.971 66.563 165.208 66.8465 165.218L66.8522 165.047ZM72.7718 164.901C72.7624 165.184 72.9846 165.422 73.2681 165.431L73.2738 165.26C73.0848 165.254 72.9366 165.096 72.9429 164.907L72.7718 164.901Z" fill="#0070F0" mask="url(#path-23-outside-2_11068_314812)"/>
<path d="M65.3172 165.563C65.3254 165.09 65.7153 164.714 66.188 164.722L73.751 164.853C74.2237 164.861 74.6003 165.251 74.5922 165.723L74.519 169.953C74.4904 171.607 73.1258 172.925 71.4712 172.897L68.1882 172.84C66.5335 172.811 65.2154 171.447 65.244 169.792L65.3172 165.563Z" fill="#0070F0"/>
<circle cx="70.0533" cy="167.529" r="0.764003" transform="rotate(-1.19845 70.0533 167.529)" fill="white"/>
<path d="M69.5813 167.838C69.5985 167.713 69.7041 167.619 69.8304 167.616L70.2811 167.606C70.4073 167.604 70.5168 167.693 70.5392 167.818L70.9043 169.843C70.9324 169.999 70.8148 170.143 70.657 170.146L69.561 170.169C69.4032 170.172 69.2797 170.033 69.3012 169.877L69.5813 167.838Z" fill="white"/>
</g>
<g opacity="0.5">
<g filter="url(#filter8_d_11068_314812)">
<rect x="312" y="72" width="76" height="53" rx="6.32812" fill="white"/>
</g>
<circle cx="350.238" cy="98.2617" r="14.2383" fill="#43C53F"/>
<path d="M348.447 100.427L346.119 98.0986L345.326 98.8859L348.447 102.007L355.148 95.3068L354.361 94.5195L348.447 100.427Z" fill="white"/>
<circle cx="119.238" cy="98.2617" r="14.2383" fill="#FFDB60"/>
<mask id="path-32-outside-3_11068_314812" maskUnits="userSpaceOnUse" x="114.411" y="90.4361" width="9.22767" height="7.29525" fill="black">
<rect fill="white" x="114.411" y="90.4361" width="9.22767" height="7.29525"/>
<path fill-rule="evenodd" clip-rule="evenodd" d="M122.271 97.3457C122.035 97.3379 121.849 97.1399 121.857 96.9037L121.91 95.3209C121.961 93.7839 120.757 92.4965 119.22 92.4454C117.683 92.3943 116.395 93.5988 116.344 95.1358L116.291 96.7186C116.284 96.9549 116.086 97.14 115.849 97.1322C115.613 97.1243 115.428 96.9264 115.436 96.6901L115.488 95.1074C115.555 93.0978 117.238 91.5229 119.248 91.5897C121.258 91.6566 122.832 93.3398 122.766 95.3494L122.713 96.9321C122.705 97.1684 122.507 97.3536 122.271 97.3457Z"/>
</mask>
<path fill-rule="evenodd" clip-rule="evenodd" d="M122.271 97.3457C122.035 97.3379 121.849 97.1399 121.857 96.9037L121.91 95.3209C121.961 93.7839 120.757 92.4965 119.22 92.4454C117.683 92.3943 116.395 93.5988 116.344 95.1358L116.291 96.7186C116.284 96.9549 116.086 97.14 115.849 97.1322C115.613 97.1243 115.428 96.9264 115.436 96.6901L115.488 95.1074C115.555 93.0978 117.238 91.5229 119.248 91.5897C121.258 91.6566 122.832 93.3398 122.766 95.3494L122.713 96.9321C122.705 97.1684 122.507 97.3536 122.271 97.3457Z" fill="#0070F0"/>
<path d="M121.91 95.3209L121.996 95.3238L121.91 95.3209ZM121.943 96.9065L121.996 95.3238L121.824 95.3181L121.772 96.9008L121.943 96.9065ZM121.996 95.3238C122.048 93.7395 120.807 92.4125 119.222 92.3598L119.217 92.531C120.706 92.5805 121.874 93.8283 121.824 95.3181L121.996 95.3238ZM119.222 92.3598C117.638 92.3071 116.311 93.5487 116.258 95.133L116.43 95.1387C116.479 93.6489 117.727 92.4814 119.217 92.531L119.222 92.3598ZM116.258 95.133L116.206 96.7157L116.377 96.7214L116.43 95.1387L116.258 95.133ZM115.403 95.1045L115.35 96.6873L115.521 96.693L115.574 95.1102L115.403 95.1045ZM119.251 91.5042C117.194 91.4358 115.471 93.0477 115.403 95.1045L115.574 95.1102C115.639 93.1479 117.283 91.6101 119.245 91.6753L119.251 91.5042ZM122.851 95.3522C122.92 93.2954 121.308 91.5726 119.251 91.5042L119.245 91.6753C121.207 91.7406 122.745 93.3842 122.68 95.3465L122.851 95.3522ZM122.799 96.935L122.851 95.3522L122.68 95.3465L122.627 96.9293L122.799 96.935ZM122.627 96.9293C122.621 97.1183 122.463 97.2664 122.274 97.2601L122.268 97.4313C122.552 97.4407 122.789 97.2185 122.799 96.935L122.627 96.9293ZM116.206 96.7157C116.2 96.9048 116.041 97.0529 115.852 97.0466L115.846 97.2177C116.13 97.2272 116.368 97.005 116.377 96.7214L116.206 96.7157ZM115.852 97.0466C115.663 97.0403 115.515 96.882 115.521 96.693L115.35 96.6873C115.341 96.9708 115.563 97.2083 115.846 97.2177L115.852 97.0466ZM121.772 96.9008C121.762 97.1844 121.985 97.4218 122.268 97.4313L122.274 97.2601C122.085 97.2539 121.937 97.0955 121.943 96.9065L121.772 96.9008Z" fill="#0070F0" mask="url(#path-32-outside-3_11068_314812)"/>
<path d="M114.317 97.563C114.325 97.0903 114.715 96.7137 115.188 96.7218L122.751 96.8527C123.224 96.8609 123.6 97.2507 123.592 97.7235L123.519 101.953C123.49 103.607 122.126 104.925 120.471 104.897L117.188 104.84C115.534 104.811 114.215 103.447 114.244 101.792L114.317 97.563Z" fill="#0070F0"/>
<circle cx="119.053" cy="99.5291" r="0.764003" transform="rotate(-1.19845 119.053 99.5291)" fill="white"/>
<path d="M118.581 99.8377C118.599 99.7126 118.704 99.6185 118.83 99.6159L119.281 99.6064C119.407 99.6038 119.517 99.6934 119.539 99.8177L119.904 101.843C119.932 101.999 119.815 102.143 119.657 102.146L118.561 102.169C118.403 102.172 118.28 102.033 118.301 101.877L118.581 99.8377Z" fill="white"/>
</g>
<g opacity="0.5">
<g filter="url(#filter9_d_11068_314812)">
<rect x="357" y="140" width="76" height="53" rx="6.32812" fill="white"/>
</g>
</g>
<g opacity="0.5">
<g filter="url(#filter10_d_11068_314812)">
<rect x="357" y="5" width="76" height="53" rx="6.32812" fill="white"/>
</g>
</g>
<g filter="url(#filter11_d_11068_314812)">
<mask id="path-39-outside-4_11068_314812" maskUnits="userSpaceOnUse" x="219.08" y="39.6304" width="66.0594" height="65.3096" fill="black">
<rect fill="white" x="219.08" y="39.6304" width="66.0594" height="65.3096"/>
<path fill-rule="evenodd" clip-rule="evenodd" d="M255.34 100.829C254.127 99.7279 254.036 97.8514 255.138 96.6381L262.345 88.7002C269.339 80.9972 268.764 69.083 261.061 62.0891C253.358 55.0952 241.444 55.6701 234.45 63.3731L227.243 71.3111C226.141 72.5243 224.265 72.6149 223.051 71.5133C221.838 70.4117 221.748 68.5352 222.849 67.322L230.056 59.3841C239.253 49.2546 254.921 48.4986 265.05 57.6956C275.18 66.8925 275.936 82.5598 266.739 92.6893L259.531 100.627C258.43 101.84 256.553 101.931 255.34 100.829Z"/>
</mask>
<path fill-rule="evenodd" clip-rule="evenodd" d="M255.34 100.829C254.127 99.7279 254.036 97.8514 255.138 96.6381L262.345 88.7002C269.339 80.9972 268.764 69.083 261.061 62.0891C253.358 55.0952 241.444 55.6701 234.45 63.3731L227.243 71.3111C226.141 72.5243 224.265 72.6149 223.051 71.5133C221.838 70.4117 221.748 68.5352 222.849 67.322L230.056 59.3841C239.253 49.2546 254.921 48.4986 265.05 57.6956C275.18 66.8925 275.936 82.5598 266.739 92.6893L259.531 100.627C258.43 101.84 256.553 101.931 255.34 100.829Z" fill="#43C53F"/>
<path d="M262.345 88.7002L261.906 88.3013L262.345 88.7002ZM234.45 63.3731L234.889 63.7721L234.45 63.3731ZM230.056 59.3841L230.496 59.783L230.056 59.3841ZM266.739 92.6893L267.178 93.0882L266.739 92.6893ZM259.531 100.627L259.092 100.228L259.531 100.627ZM227.243 71.3111L226.803 70.9122L227.243 71.3111ZM255.138 96.6381L254.699 96.2392L255.138 96.6381ZM255.577 97.037L262.784 89.0991L261.906 88.3013L254.699 96.2392L255.577 97.037ZM262.784 89.0991C269.999 81.1534 269.406 68.8639 261.46 61.6498L260.662 62.5285C268.122 69.302 268.679 80.8409 261.906 88.3013L262.784 89.0991ZM261.46 61.6498C253.514 54.4356 241.225 55.0286 234.011 62.9742L234.889 63.7721C241.663 56.3117 253.202 55.7549 260.662 62.5285L261.46 61.6498ZM234.011 62.9742L226.803 70.9122L227.682 71.71L234.889 63.7721L234.011 62.9742ZM229.617 58.9852L222.41 66.9231L223.289 67.7209L230.496 59.783L229.617 58.9852ZM265.449 57.2562C255.077 47.8389 239.034 48.613 229.617 58.9852L230.496 59.783C239.472 49.8961 254.764 49.1583 264.651 58.1349L265.449 57.2562ZM267.178 93.0882C276.595 82.716 275.821 66.6735 265.449 57.2562L264.651 58.1349C274.538 67.1116 275.276 82.4035 266.299 92.2904L267.178 93.0882ZM259.971 101.026L267.178 93.0882L266.299 92.2904L259.092 100.228L259.971 101.026ZM259.092 100.228C258.211 101.199 256.71 101.271 255.739 100.39L254.941 101.269C256.397 102.591 258.649 102.482 259.971 101.026L259.092 100.228ZM226.803 70.9122C225.922 71.8827 224.421 71.9552 223.45 71.0739L222.653 71.9527C224.108 73.2745 226.36 73.1659 227.682 71.71L226.803 70.9122ZM223.45 71.0739C222.48 70.1927 222.407 68.6915 223.289 67.7209L222.41 66.9231C221.088 68.379 221.197 70.6308 222.653 71.9527L223.45 71.0739ZM254.699 96.2392C253.377 97.6951 253.485 99.9469 254.941 101.269L255.739 100.39C254.768 99.5088 254.696 98.0076 255.577 97.037L254.699 96.2392Z" fill="#43C53F" mask="url(#path-39-outside-4_11068_314812)"/>
<path d="M207.627 81.5669C208.944 78.5657 212.445 77.2005 215.446 78.5176L262.378 99.1142C265.379 100.431 266.745 103.932 265.428 106.933L254.058 132.84C249.448 143.344 237.196 148.123 226.692 143.513L206.93 134.84C196.426 130.23 191.648 117.978 196.257 107.474L207.627 81.5669Z" fill="#0070F0"/>
<circle cx="232.234" cy="106.246" r="5.19874" transform="rotate(21.5048 232.234 106.246)" fill="#E5F5FF"/>
<path d="M228.436 106.99C228.88 106.235 229.807 105.916 230.622 106.237L233.424 107.341C234.238 107.662 234.698 108.528 234.509 109.383L231.495 122.994C231.259 124.062 230.123 124.667 229.104 124.265L222.236 121.559C221.218 121.158 220.799 119.941 221.355 118.998L228.436 106.99Z" fill="#E5F5FF"/>
<path d="M284.564 52.3047L277.47 54.1444" stroke="#EFCB52" stroke-width="3.56059" stroke-linecap="round" stroke-linejoin="round"/>
<path d="M286.176 67.5703L279.112 65.6163" stroke="#EFCB52" stroke-width="3.56058" stroke-linecap="round" stroke-linejoin="round"/>
<path d="M278.73 38.8594L273.506 43.9999" stroke="#EFCB52" stroke-width="3.56058" stroke-linecap="round" stroke-linejoin="round"/>
</g>
<path d="M203.985 49.1641C204.648 52.1193 206.956 54.4271 209.912 55.0901C206.956 55.7541 204.649 58.0621 203.985 61.0173C203.323 58.0617 201.014 55.7534 198.059 55.0901C201.014 54.4278 203.323 52.1197 203.985 49.1641Z" fill="#FFDB60"/>
<path d="M276.989 92.4766C277.34 94.0411 278.562 95.2629 280.127 95.6139C278.562 95.9654 277.34 97.1873 276.989 98.7518C276.638 97.1871 275.416 95.965 273.852 95.6139C275.416 95.2633 276.639 94.0413 276.989 92.4766Z" fill="#FFDB60"/>
<path d="M289.841 81.6484C290.418 84.2218 292.428 86.2314 295.001 86.8088C292.428 87.387 290.418 89.3968 289.841 91.9702C289.263 89.3965 287.254 87.3864 284.68 86.8088C287.254 86.2321 289.264 84.2222 289.841 81.6484Z" fill="#FFDB60"/>
<path d="M213.482 68.3125C213.122 69.9187 211.867 71.173 210.261 71.5334C211.867 71.8943 213.121 73.1487 213.482 74.7548C213.842 73.1484 215.097 71.8938 216.703 71.5334C215.097 71.1734 213.842 69.9189 213.482 68.3125Z" fill="#FFDB60"/>
<g opacity="0.5">
<g filter="url(#filter12_d_11068_314812)">
<rect x="36" y="5" width="76" height="53" rx="6.32812" fill="white"/>
</g>
<circle cx="74.2383" cy="31.2383" r="14.2383" fill="#FFDB60"/>
<mask id="path-53-outside-5_11068_314812" maskUnits="userSpaceOnUse" x="69.4105" y="23.4126" width="9.22767" height="7.29525" fill="black">
<rect fill="white" x="69.4105" y="23.4126" width="9.22767" height="7.29525"/>
<path fill-rule="evenodd" clip-rule="evenodd" d="M77.2709 30.3223C77.0347 30.3144 76.8495 30.1165 76.8573 29.8802L76.91 28.2975C76.9611 26.7605 75.7565 25.4731 74.2195 25.4219C72.6825 25.3708 71.3951 26.5754 71.344 28.1124L71.2914 29.6951C71.2835 29.9314 71.0856 30.1166 70.8493 30.1087C70.6131 30.1009 70.4279 29.903 70.4357 29.6667L70.4884 28.0839C70.5552 26.0744 72.2384 24.4995 74.248 24.5663C76.2575 24.6331 77.8324 26.3164 77.7656 28.3259L77.713 29.9087C77.7051 30.145 77.5072 30.3301 77.2709 30.3223Z"/>
</mask>
<path fill-rule="evenodd" clip-rule="evenodd" d="M77.2709 30.3223C77.0347 30.3144 76.8495 30.1165 76.8573 29.8802L76.91 28.2975C76.9611 26.7605 75.7565 25.4731 74.2195 25.4219C72.6825 25.3708 71.3951 26.5754 71.344 28.1124L71.2914 29.6951C71.2835 29.9314 71.0856 30.1166 70.8493 30.1087C70.6131 30.1009 70.4279 29.903 70.4357 29.6667L70.4884 28.0839C70.5552 26.0744 72.2384 24.4995 74.248 24.5663C76.2575 24.6331 77.8324 26.3164 77.7656 28.3259L77.713 29.9087C77.7051 30.145 77.5072 30.3301 77.2709 30.3223Z" fill="#0070F0"/>
<path d="M76.91 28.2975L76.8244 28.2946L76.91 28.2975ZM71.344 28.1124L71.4296 28.1152L71.344 28.1124ZM70.4884 28.0839L70.5739 28.0868L70.4884 28.0839ZM77.7656 28.3259L77.8512 28.3288L77.7656 28.3259ZM71.2914 29.6951L71.2058 29.6923L71.2914 29.6951ZM76.8573 29.8802L76.7718 29.8774L76.8573 29.8802ZM76.9429 29.8831L76.9955 28.3003L76.8244 28.2946L76.7718 29.8774L76.9429 29.8831ZM76.9955 28.3003C77.0482 26.7161 75.8066 25.3891 74.2224 25.3364L74.2167 25.5075C75.7064 25.5571 76.874 26.8049 76.8244 28.2946L76.9955 28.3003ZM74.2224 25.3364C72.6381 25.2837 71.3111 26.5253 71.2585 28.1095L71.4296 28.1152C71.4791 26.6255 72.727 25.458 74.2167 25.5075L74.2224 25.3364ZM71.2585 28.1095L71.2058 29.6923L71.377 29.698L71.4296 28.1152L71.2585 28.1095ZM70.4028 28.0811L70.3502 29.6638L70.5213 29.6695L70.5739 28.0868L70.4028 28.0811ZM74.2508 24.4807C72.194 24.4123 70.4712 26.0243 70.4028 28.0811L70.5739 28.0868C70.6392 26.1245 72.2829 24.5866 74.2451 24.6519L74.2508 24.4807ZM77.8512 28.3288C77.9196 26.272 76.3077 24.5491 74.2508 24.4807L74.2451 24.6519C76.2074 24.7171 77.7453 26.3608 77.6801 28.3231L77.8512 28.3288ZM77.7986 29.9115L77.8512 28.3288L77.6801 28.3231L77.6274 29.9058L77.7986 29.9115ZM77.6274 29.9058C77.6211 30.0949 77.4628 30.243 77.2738 30.2367L77.2681 30.4078C77.5516 30.4173 77.7891 30.1951 77.7986 29.9115L77.6274 29.9058ZM71.2058 29.6923C71.1995 29.8813 71.0412 30.0295 70.8522 30.0232L70.8465 30.1943C71.13 30.2037 71.3675 29.9815 71.377 29.698L71.2058 29.6923ZM70.8522 30.0232C70.6632 30.0169 70.515 29.8586 70.5213 29.6695L70.3502 29.6638C70.3408 29.9474 70.563 30.1849 70.8465 30.1943L70.8522 30.0232ZM76.7718 29.8774C76.7624 30.1609 76.9846 30.3984 77.2681 30.4078L77.2738 30.2367C77.0848 30.2304 76.9366 30.0721 76.9429 29.8831L76.7718 29.8774Z" fill="#0070F0" mask="url(#path-53-outside-5_11068_314812)"/>
<path d="M69.3172 30.5396C69.3254 30.0668 69.7153 29.6902 70.188 29.6984L77.751 29.8293C78.2237 29.8374 78.6003 30.2273 78.5922 30.7001L78.519 34.9292C78.4904 36.5838 77.1258 37.902 75.4712 37.8733L72.1882 37.8165C70.5335 37.7879 69.2154 36.4233 69.244 34.7687L69.3172 30.5396Z" fill="#0070F0"/>
<circle cx="74.0533" cy="32.5057" r="0.764003" transform="rotate(-1.19845 74.0533 32.5057)" fill="white"/>
<path d="M73.5813 32.8143C73.5985 32.6891 73.7041 32.5951 73.8304 32.5924L74.2811 32.583C74.4073 32.5804 74.5168 32.6699 74.5392 32.7942L74.9043 34.82C74.9324 34.9754 74.8148 35.1191 74.657 35.1224L73.561 35.1453C73.4032 35.1486 73.2797 35.01 73.3012 34.8536L73.5813 32.8143Z" fill="white"/>
</g>
</g>
<defs>
<filter id="filter0_d_11068_314812" x="62.0156" y="59.3438" width="113.969" height="90.9688" filterUnits="userSpaceOnUse" color-interpolation-filters="sRGB">
<feFlood flood-opacity="0" result="BackgroundImageFix"/>
<feColorMatrix in="SourceAlpha" type="matrix" values="0 0 0 0 0 0 0 0 0 0 0 0 0 0 0 0 0 0 127 0" result="hardAlpha"/>
<feOffset dy="6.32812"/>
<feGaussianBlur stdDeviation="9.49219"/>
<feComposite in2="hardAlpha" operator="out"/>
<feColorMatrix type="matrix" values="0 0 0 0 0 0 0 0 0 0.294118 0 0 0 0 0.560784 0 0 0 0.1 0"/>
<feBlend mode="normal" in2="BackgroundImageFix" result="effect1_dropShadow_11068_314812"/>
<feBlend mode="normal" in="SourceGraphic" in2="effect1_dropShadow_11068_314812" result="shape"/>
</filter>
<filter id="filter1_d_11068_314812" x="385.016" y="59.3438" width="113.969" height="90.9688" filterUnits="userSpaceOnUse" color-interpolation-filters="sRGB">
<feFlood flood-opacity="0" result="BackgroundImageFix"/>
<feColorMatrix in="SourceAlpha" type="matrix" values="0 0 0 0 0 0 0 0 0 0 0 0 0 0 0 0 0 0 127 0" result="hardAlpha"/>
<feOffset dy="6.32812"/>
<feGaussianBlur stdDeviation="9.49219"/>
<feComposite in2="hardAlpha" operator="out"/>
<feColorMatrix type="matrix" values="0 0 0 0 0 0 0 0 0 0.294118 0 0 0 0 0.560784 0 0 0 0.1 0"/>
<feBlend mode="normal" in2="BackgroundImageFix" result="effect1_dropShadow_11068_314812"/>
<feBlend mode="normal" in="SourceGraphic" in2="effect1_dropShadow_11068_314812" result="shape"/>
</filter>
<filter id="filter2_d_11068_314812" x="430.016" y="127.344" width="113.969" height="90.9688" filterUnits="userSpaceOnUse" color-interpolation-filters="sRGB">
<feFlood flood-opacity="0" result="BackgroundImageFix"/>
<feColorMatrix in="SourceAlpha" type="matrix" values="0 0 0 0 0 0 0 0 0 0 0 0 0 0 0 0 0 0 127 0" result="hardAlpha"/>
<feOffset dy="6.32812"/>
<feGaussianBlur stdDeviation="9.49219"/>
<feComposite in2="hardAlpha" operator="out"/>
<feColorMatrix type="matrix" values="0 0 0 0 0 0 0 0 0 0.294118 0 0 0 0 0.560784 0 0 0 0.1 0"/>
<feBlend mode="normal" in2="BackgroundImageFix" result="effect1_dropShadow_11068_314812"/>
<feBlend mode="normal" in="SourceGraphic" in2="effect1_dropShadow_11068_314812" result="shape"/>
</filter>
<filter id="filter3_d_11068_314812" x="430.016" y="-7.65625" width="113.969" height="90.9688" filterUnits="userSpaceOnUse" color-interpolation-filters="sRGB">
<feFlood flood-opacity="0" result="BackgroundImageFix"/>
<feColorMatrix in="SourceAlpha" type="matrix" values="0 0 0 0 0 0 0 0 0 0 0 0 0 0 0 0 0 0 127 0" result="hardAlpha"/>
<feOffset dy="6.32812"/>
<feGaussianBlur stdDeviation="9.49219"/>
<feComposite in2="hardAlpha" operator="out"/>
<feColorMatrix type="matrix" values="0 0 0 0 0 0 0 0 0 0.294118 0 0 0 0 0.560784 0 0 0 0.1 0"/>
<feBlend mode="normal" in2="BackgroundImageFix" result="effect1_dropShadow_11068_314812"/>
<feBlend mode="normal" in="SourceGraphic" in2="effect1_dropShadow_11068_314812" result="shape"/>
</filter>
<filter id="filter4_d_11068_314812" x="-76.9844" y="127.344" width="113.969" height="90.9688" filterUnits="userSpaceOnUse" color-interpolation-filters="sRGB">
<feFlood flood-opacity="0" result="BackgroundImageFix"/>
<feColorMatrix in="SourceAlpha" type="matrix" values="0 0 0 0 0 0 0 0 0 0 0 0 0 0 0 0 0 0 127 0" result="hardAlpha"/>
<feOffset dy="6.32812"/>
<feGaussianBlur stdDeviation="9.49219"/>
<feComposite in2="hardAlpha" operator="out"/>
<feColorMatrix type="matrix" values="0 0 0 0 0 0 0 0 0 0.294118 0 0 0 0 0.560784 0 0 0 0.1 0"/>
<feBlend mode="normal" in2="BackgroundImageFix" result="effect1_dropShadow_11068_314812"/>
<feBlend mode="normal" in="SourceGraphic" in2="effect1_dropShadow_11068_314812" result="shape"/>
</filter>
<filter id="filter5_d_11068_314812" x="-76.9844" y="-7.65625" width="113.969" height="90.9688" filterUnits="userSpaceOnUse" color-interpolation-filters="sRGB">
<feFlood flood-opacity="0" result="BackgroundImageFix"/>
<feColorMatrix in="SourceAlpha" type="matrix" values="0 0 0 0 0 0 0 0 0 0 0 0 0 0 0 0 0 0 127 0" result="hardAlpha"/>
<feOffset dy="6.32812"/>
<feGaussianBlur stdDeviation="9.49219"/>
<feComposite in2="hardAlpha" operator="out"/>
<feColorMatrix type="matrix" values="0 0 0 0 0 0 0 0 0 0.294118 0 0 0 0 0.560784 0 0 0 0.1 0"/>
<feBlend mode="normal" in2="BackgroundImageFix" result="effect1_dropShadow_11068_314812"/>
<feBlend mode="normal" in="SourceGraphic" in2="effect1_dropShadow_11068_314812" result="shape"/>
</filter>
<filter id="filter6_d_11068_314812" x="-29.9844" y="59.3438" width="113.969" height="90.9688" filterUnits="userSpaceOnUse" color-interpolation-filters="sRGB">
<feFlood flood-opacity="0" result="BackgroundImageFix"/>
<feColorMatrix in="SourceAlpha" type="matrix" values="0 0 0 0 0 0 0 0 0 0 0 0 0 0 0 0 0 0 127 0" result="hardAlpha"/>
<feOffset dy="6.32812"/>
<feGaussianBlur stdDeviation="9.49219"/>
<feComposite in2="hardAlpha" operator="out"/>
<feColorMatrix type="matrix" values="0 0 0 0 0 0 0 0 0 0.294118 0 0 0 0 0.560784 0 0 0 0.1 0"/>
<feBlend mode="normal" in2="BackgroundImageFix" result="effect1_dropShadow_11068_314812"/>
<feBlend mode="normal" in="SourceGraphic" in2="effect1_dropShadow_11068_314812" result="shape"/>
</filter>
<filter id="filter7_d_11068_314812" x="15.0156" y="127.344" width="113.969" height="90.9688" filterUnits="userSpaceOnUse" color-interpolation-filters="sRGB">
<feFlood flood-opacity="0" result="BackgroundImageFix"/>
<feColorMatrix in="SourceAlpha" type="matrix" values="0 0 0 0 0 0 0 0 0 0 0 0 0 0 0 0 0 0 127 0" result="hardAlpha"/>
<feOffset dy="6.32812"/>
<feGaussianBlur stdDeviation="9.49219"/>
<feComposite in2="hardAlpha" operator="out"/>
<feColorMatrix type="matrix" values="0 0 0 0 0 0 0 0 0 0.294118 0 0 0 0 0.560784 0 0 0 0.1 0"/>
<feBlend mode="normal" in2="BackgroundImageFix" result="effect1_dropShadow_11068_314812"/>
<feBlend mode="normal" in="SourceGraphic" in2="effect1_dropShadow_11068_314812" result="shape"/>
</filter>
<filter id="filter8_d_11068_314812" x="293.016" y="59.3438" width="113.969" height="90.9688" filterUnits="userSpaceOnUse" color-interpolation-filters="sRGB">
<feFlood flood-opacity="0" result="BackgroundImageFix"/>
<feColorMatrix in="SourceAlpha" type="matrix" values="0 0 0 0 0 0 0 0 0 0 0 0 0 0 0 0 0 0 127 0" result="hardAlpha"/>
<feOffset dy="6.32812"/>
<feGaussianBlur stdDeviation="9.49219"/>
<feComposite in2="hardAlpha" operator="out"/>
<feColorMatrix type="matrix" values="0 0 0 0 0 0 0 0 0 0.294118 0 0 0 0 0.560784 0 0 0 0.1 0"/>
<feBlend mode="normal" in2="BackgroundImageFix" result="effect1_dropShadow_11068_314812"/>
<feBlend mode="normal" in="SourceGraphic" in2="effect1_dropShadow_11068_314812" result="shape"/>
</filter>
<filter id="filter9_d_11068_314812" x="338.016" y="127.344" width="113.969" height="90.9688" filterUnits="userSpaceOnUse" color-interpolation-filters="sRGB">
<feFlood flood-opacity="0" result="BackgroundImageFix"/>
<feColorMatrix in="SourceAlpha" type="matrix" values="0 0 0 0 0 0 0 0 0 0 0 0 0 0 0 0 0 0 127 0" result="hardAlpha"/>
<feOffset dy="6.32812"/>
<feGaussianBlur stdDeviation="9.49219"/>
<feComposite in2="hardAlpha" operator="out"/>
<feColorMatrix type="matrix" values="0 0 0 0 0 0 0 0 0 0.294118 0 0 0 0 0.560784 0 0 0 0.1 0"/>
<feBlend mode="normal" in2="BackgroundImageFix" result="effect1_dropShadow_11068_314812"/>
<feBlend mode="normal" in="SourceGraphic" in2="effect1_dropShadow_11068_314812" result="shape"/>
</filter>
<filter id="filter10_d_11068_314812" x="338.016" y="-7.65625" width="113.969" height="90.9688" filterUnits="userSpaceOnUse" color-interpolation-filters="sRGB">
<feFlood flood-opacity="0" result="BackgroundImageFix"/>
<feColorMatrix in="SourceAlpha" type="matrix" values="0 0 0 0 0 0 0 0 0 0 0 0 0 0 0 0 0 0 127 0" result="hardAlpha"/>
<feOffset dy="6.32812"/>
<feGaussianBlur stdDeviation="9.49219"/>
<feComposite in2="hardAlpha" operator="out"/>
<feColorMatrix type="matrix" values="0 0 0 0 0 0 0 0 0 0.294118 0 0 0 0 0.560784 0 0 0 0.1 0"/>
<feBlend mode="normal" in2="BackgroundImageFix" result="effect1_dropShadow_11068_314812"/>
<feBlend mode="normal" in="SourceGraphic" in2="effect1_dropShadow_11068_314812" result="shape"/>
</filter>
<filter id="filter11_d_11068_314812" x="183.286" y="33.5769" width="115.887" height="130.623" filterUnits="userSpaceOnUse" color-interpolation-filters="sRGB">
<feFlood flood-opacity="0" result="BackgroundImageFix"/>
<feColorMatrix in="SourceAlpha" type="matrix" values="0 0 0 0 0 0 0 0 0 0 0 0 0 0 0 0 0 0 127 0" result="hardAlpha"/>
<feOffset dy="7.7146"/>
<feGaussianBlur stdDeviation="5.60792"/>
<feComposite in2="hardAlpha" operator="out"/>
<feColorMatrix type="matrix" values="0 0 0 0 0.19 0 0 0 0 0.3786 0 0 0 0 0.6 0 0 0 0.25 0"/>
<feBlend mode="normal" in2="BackgroundImageFix" result="effect1_dropShadow_11068_314812"/>
<feBlend mode="normal" in="SourceGraphic" in2="effect1_dropShadow_11068_314812" result="shape"/>
</filter>
<filter id="filter12_d_11068_314812" x="17.0156" y="-7.65625" width="113.969" height="90.9688" filterUnits="userSpaceOnUse" color-interpolation-filters="sRGB">
<feFlood flood-opacity="0" result="BackgroundImageFix"/>
<feColorMatrix in="SourceAlpha" type="matrix" values="0 0 0 0 0 0 0 0 0 0 0 0 0 0 0 0 0 0 127 0" result="hardAlpha"/>
<feOffset dy="6.32812"/>
<feGaussianBlur stdDeviation="9.49219"/>
<feComposite in2="hardAlpha" operator="out"/>
<feColorMatrix type="matrix" values="0 0 0 0 0 0 0 0 0 0.294118 0 0 0 0 0.560784 0 0 0 0.1 0"/>
<feBlend mode="normal" in2="BackgroundImageFix" result="effect1_dropShadow_11068_314812"/>
<feBlend mode="normal" in="SourceGraphic" in2="effect1_dropShadow_11068_314812" result="shape"/>
</filter>
<linearGradient id="paint0_linear_11068_314812" x1="368.107" y1="-32.8779" x2="200.799" y2="848.122" gradientUnits="userSpaceOnUse">
<stop stop-color="white"/>
<stop offset="1" stop-color="#72C9FF"/>
</linearGradient>
<clipPath id="clip0_11068_314812">
<rect width="464" height="200" fill="white"/>
</clipPath>
</defs>
</svg>
