<svg width="79" height="80" viewBox="0 0 79 80" fill="none" xmlns="http://www.w3.org/2000/svg">
<g clip-path="url(#clip0_11209_291488)">
<path d="M6.41643 21.9164L6.4998 7.0002L21.416 6.91684" stroke="#D1D5DB" stroke-width="2.5" stroke-linecap="round"/>
<path d="M72.7467 21.9164L72.6633 7.0002L57.7471 6.91684" stroke="#D1D5DB" stroke-width="2.5" stroke-linecap="round"/>
<path d="M6.41643 58.3258L6.4998 73.242L21.416 73.3253" stroke="#D1D5DB" stroke-width="2.5" stroke-linecap="round"/>
<path d="M72.7467 58.2476L72.6633 73.1639L57.7471 73.2472" stroke="#D1D5DB" stroke-width="2.5" stroke-linecap="round"/>
<path d="M39.5395 29.411C38.7301 29.411 37.9389 29.171 37.266 28.7213C36.593 28.2716 36.0685 27.6325 35.7588 26.8848C35.449 26.137 35.368 25.3142 35.5259 24.5204C35.6838 23.7266 36.0735 22.9974 36.6458 22.4251C37.2181 21.8528 37.9473 21.4631 38.7411 21.3052C39.5349 21.1473 40.3577 21.2283 41.1055 21.5381C41.8532 21.8478 42.4923 22.3723 42.942 23.0453C43.3917 23.7182 43.6317 24.5094 43.6317 25.3188C43.6305 26.4037 43.199 27.4439 42.4318 28.2111C41.6646 28.9783 40.6244 29.4098 39.5395 29.411Z" fill="#6B7280"/>
<path d="M53.4683 28.6023L53.4327 28.6118L53.3995 28.622C53.3204 28.6442 53.2412 28.668 53.1621 28.6925C51.6893 29.1246 44.5413 31.1395 39.5056 31.1395C34.826 31.1395 28.3245 29.3984 26.2447 28.8072C26.0377 28.7272 25.8264 28.659 25.6116 28.6031C24.1079 28.2074 23.0791 29.7348 23.0791 31.1308C23.0791 32.5134 24.3216 33.1718 25.576 33.6443V33.6665L33.1118 36.0201C33.8818 36.3153 34.0876 36.6168 34.1881 36.878C34.5149 37.7161 34.2538 39.3757 34.1612 39.955L33.7022 43.5163L31.1546 57.4601C31.1467 57.4981 31.1396 57.5369 31.1333 57.5765L31.1151 57.677C30.9314 58.9551 31.8701 60.1952 33.6476 60.1952C35.1987 60.1952 35.8833 59.1245 36.1801 57.6675C36.1801 57.6675 38.396 45.1973 39.504 45.1973C40.6119 45.1973 42.8944 57.6675 42.8944 57.6675C43.1911 59.1245 43.8757 60.1952 45.4269 60.1952C47.2091 60.1952 48.1477 58.9496 47.9594 57.6675C47.9427 57.5583 47.923 57.4506 47.8992 57.3462L45.3169 43.5179L44.8586 39.9566C44.527 37.8823 44.7937 37.1969 44.884 37.0363C44.8864 37.0325 44.8885 37.0285 44.8903 37.0244C44.9758 36.8661 45.3651 36.5116 46.2737 36.1705L53.3393 33.7005C53.3827 33.689 53.4255 33.6752 53.4676 33.6594C54.7338 33.1845 56.0001 32.5276 56.0001 31.1324C56.0001 29.7371 54.972 28.2074 53.4683 28.6023Z" fill="#6B7280"/>
</g>
<defs>
<clipPath id="clip0_11209_291488">
<rect width="79" height="79" fill="white" transform="translate(0 0.5)"/>
</clipPath>
</defs>
</svg>
