<svg width="28" height="16" viewBox="0 0 28 16" fill="none" xmlns="http://www.w3.org/2000/svg">
<path d="M21 5.23785L23.3 1.26285C23.5 0.875346 23.35 0.400346 22.975 0.200346C22.6125 0.0128459 22.1625 0.125346 21.9375 0.475346L19.5875 4.52535C16.0125 3.01285 11.9875 3.01285 8.4125 4.52535L6.0625 0.475346C5.825 0.112846 5.3375 0.000345893 4.975 0.225346C4.625 0.450346 4.5125 0.900346 4.7 1.26285L7 5.23785C3.125 7.45035 0.6 11.4378 0.25 15.8878H27.75C27.4 11.4378 24.875 7.45035 21 5.23785ZM7.75 12.4503C6.8875 12.4503 6.1875 11.7503 6.1875 10.8878C6.1875 10.0253 6.8875 9.32535 7.75 9.32535C8.6125 9.32535 9.3125 10.0253 9.3125 10.8878C9.3125 11.7503 8.6125 12.4503 7.75 12.4503ZM20.25 12.4503C19.3875 12.4503 18.6875 11.7503 18.6875 10.8878C18.6875 10.0253 19.3875 9.32535 20.25 9.32535C21.1125 9.32535 21.8125 10.0253 21.8125 10.8878C21.8125 11.7503 21.1125 12.4503 20.25 12.4503Z" fill="#32DE84"/>
</svg>
