<svg width="40" height="40" viewBox="0 0 40 40" fill="none" xmlns="http://www.w3.org/2000/svg">
<rect width="40" height="40" rx="8" fill="#92400E"/>
<path d="M26 19C26 19.67 26 20.33 26 21C27.2 21 28.76 21 30 21C30 20.33 30 19.67 30 19C28.76 19 27.2 19 26 19Z" fill="white"/>
<path d="M24 25.61C24.96 26.32 26.21 27.26 27.2 28C27.6 27.47 28 26.93 28.4 26.4C27.41 25.66 26.16 24.72 25.2 24C24.8 24.54 24.4 25.08 24 25.61Z" fill="white"/>
<path d="M28.4 13.6C28 13.07 27.6 12.53 27.2 12C26.21 12.74 24.96 13.68 24 14.4C24.4 14.93 24.8 15.47 25.2 16C26.16 15.28 27.41 14.35 28.4 13.6Z" fill="white"/>
<path d="M12 17C10.9 17 10 17.9 10 19V21C10 22.1 10.9 23 12 23H13V27H15V23H16L21 26V14L16 17H12ZM17.03 18.71L19 17.53V22.47L17.03 21.29L16.55 21H12V19H16.55L17.03 18.71Z" fill="white"/>
<path d="M23.5 20C23.5 18.67 22.92 17.47 22 16.65V23.34C22.92 22.53 23.5 21.33 23.5 20Z" fill="white"/>
</svg>
