<svg width="304" height="319" fill="none" xmlns="http://www.w3.org/2000/svg"><g clip-path="url(#clip0_263_27226)"><path d="M242.868 86.356c25.758 17.396 53.004 37.414 58.876 62.515 5.872 25.102-9.551 55.366-25.132 88.332-15.502 32.965-31.082 68.631-56.293 78.322-25.211 9.612-59.973-6.831-97.084-19.461-37.033-12.551-76.415-21.368-94.736-46.152-18.32-24.704-15.736-65.375-13.857-111.447 1.8-46.072 2.74-97.546 28.342-114.942 25.602-17.396 75.71-.715 112.899 15.013 37.19 15.728 61.304 30.424 86.985 47.82z" fill="url(#paint0_linear_263_27226)"/><path fill-rule="evenodd" clip-rule="evenodd" d="M4.93 263.83h283.396v146.246H4.931V263.83z" fill="url(#paint1_radial_263_27226)"/><path d="M251.66 262.795h-26.199v-18.138h26.199v18.138z" fill="#3DB3FA"/><path d="M189.437 246.365h98.247c1.811 0 3.273-1.451 3.273-3.248v-60.008c0-1.798-1.462-3.248-3.273-3.248h-98.247c-1.811 0-3.273 1.45-3.273 3.248v60.008c0 1.777 1.462 3.248 3.273 3.248z" fill="#3DB3FA"/><path d="M284.911 185.907v54.412H192.21v-54.412h92.701z" fill="url(#paint2_linear_263_27226)"/><path d="M262.59 263.325h-50.382v-2.016h50.382v2.016z" fill="#3DB3FA"/><path d="M225.629 263.41h-90.126v-97.964h90.126v97.964z" fill="url(#paint3_linear_263_27226)"/><path d="M135.503 263.41h-53.88v-97.964h53.88v97.964z" fill="url(#paint4_linear_263_27226)"/><path opacity=".3" d="M135.503 164.467v69.554a31.331 31.331 0 019.464-12.328c15.531-12.227 35.982-5.602 53.872-14.163 10.551-5.048 21.961-16.214 25.811-43.062l-89.147-.001z" fill="url(#paint5_linear_263_27226)"/><path opacity=".3" d="M81.622 236.96a35.135 35.135 0 015.904-13.127c9.324-12.156 21.609-5.57 32.353-14.08 6.452-5.111 13.442-16.531 15.624-44.307h-53.88v71.514z" fill="url(#paint6_linear_263_27226)"/><path d="M107.179 190.917H53.213l28.323-25.471h53.967l-28.324 25.471z" fill="url(#paint7_linear_263_27226)"/><path d="M163.603 190.917h89.456l-28.099-25.471h-89.457l28.1 25.471z" fill="url(#paint8_linear_263_27226)"/><path d="M97.297 247.777h17.633v15.675H97.297v-15.675z" fill="#D5EFFF"/><path d="M67.605 263.83c-1 0-1.797-.817-1.797-1.812v-39.06c0-1.008.81-1.812 1.797-1.812h20.898c1 0 1.796.817 1.796 1.812v39.06c0 1.008-.81 1.812-1.796 1.812H67.605z" fill="url(#paint9_linear_263_27226)"/><path d="M68.607 254.977v-29.176c0-.255.197-.457.446-.457h18.002c.249 0 .445.202.445.457v29.176a.447.447 0 01-.445.456H69.053a.447.447 0 01-.446-.456z" fill="url(#paint10_linear_263_27226)"/><path opacity=".235" d="M84.001 228.143H72.106a2.1 2.1 0 00-2.1 2.1v6.297c0 1.16.94 2.099 2.1 2.099H84c1.16 0 2.1-.939 2.1-2.099v-6.297a2.1 2.1 0 00-2.1-2.1z" fill="url(#paint11_linear_263_27226)"/><path opacity=".235" d="M85.051 240.039H71.056a1.05 1.05 0 000 2.099h13.995a1.05 1.05 0 100-2.099z" fill="url(#paint12_linear_263_27226)"/><path opacity=".235" d="M84.229 243.838H72.333a2.1 2.1 0 00-2.1 2.099v6.298a2.1 2.1 0 002.1 2.099h11.896a2.1 2.1 0 002.099-2.099v-6.298a2.1 2.1 0 00-2.1-2.099z" fill="url(#paint13_linear_263_27226)"/><path fill-rule="evenodd" clip-rule="evenodd" d="M173.671 8.768l17.338-.26.361 156.742h-17.494l-.205-156.482z" fill="url(#paint14_linear_263_27226)"/><path d="M183.078 17.488A8.747 8.747 0 10181.553.06a8.747 8.747 0 001.525 17.427z" fill="url(#paint15_linear_263_27226)"/><path d="M177.593 6.875l2.199-2.53 6.865 5.968-2.198 2.53-6.866-5.968z" fill="#fff"/><path d="M177.877 10.927l5.968-6.865 2.529 2.199-5.968 6.865-2.529-2.199z" fill="#fff"/><path fill-rule="evenodd" clip-rule="evenodd" d="M81.305 8.768l17.338-.26.361 156.742H81.51L81.305 8.768z" fill="url(#paint16_linear_263_27226)"/><path d="M90.712 17.488A8.747 8.747 0 1089.187.06a8.747 8.747 0 001.525 17.427z" fill="url(#paint17_linear_263_27226)"/><path d="M94.04 4.591l1.417 2.296-7.107 6.061-1.622-2.216 7.312-6.14z" fill="#fff"/><path d="M85.176 8.78l2.266-1.8 2.459 3.21-2.266 1.798-2.459-3.209z" fill="#fff"/><path fill-rule="evenodd" clip-rule="evenodd" d="M197.462 26.931l17.338-.23.361 138.549h-17.493l-.206-138.319z" fill="url(#paint18_linear_263_27226)"/><path d="M206.869 35.681a8.747 8.747 0 10-1.525-17.427 8.747 8.747 0 001.525 17.427z" fill="url(#paint19_linear_263_27226)"/><path d="M201.384 25.068l2.199-2.53 6.865 5.969-2.198 2.529-6.866-5.968z" fill="#fff"/><path d="M201.668 29.12l5.968-6.865 2.529 2.199-5.968 6.865-2.529-2.198z" fill="#fff"/><path opacity=".651" d="M240.774 125.836l-35.439 8.25a1.4 1.4 0 01-1.68-1.046l-3.173-13.631a1.4 1.4 0 011.046-1.68l35.439-8.249a1.398 1.398 0 011.68 1.045l3.173 13.631a1.4 1.4 0 01-1.046 1.68z" fill="url(#paint20_linear_263_27226)"/><path opacity=".651" d="M237.385 122.343l-7.562 1.76a.699.699 0 01-.84-.523l-1.761-7.562a.7.7 0 01.523-.84l7.563-1.76a.7.7 0 01.84.522l1.76 7.563a.7.7 0 01-.523.84z" fill="url(#paint21_linear_263_27226)"/><path opacity=".48" d="M232.533 116.64c-.981.156-1.63 1.21-1.449 2.355.182 1.145 1.124 1.947 2.106 1.792.981-.156 1.63-1.21 1.449-2.355-.182-1.145-1.124-1.947-2.106-1.792z" fill="#D1EDFF"/><path opacity=".651" d="M63.827 99.477l35.949 5.627a1.4 1.4 0 011.166 1.599l-2.164 13.827a1.4 1.4 0 01-1.6 1.166l-35.948-5.627a1.399 1.399 0 01-1.166-1.599l2.164-13.826a1.4 1.4 0 011.599-1.167z" fill="url(#paint22_linear_263_27226)"/><path opacity=".651" d="M65.66 103.986l7.672 1.2a.7.7 0 01.583.8l-1.2 7.671a.7.7 0 01-.8.583l-7.672-1.201a.699.699 0 01-.583-.799l1.201-7.671a.7.7 0 01.8-.583z" fill="url(#paint23_linear_263_27226)"/><path opacity=".113" d="M79.601 106.163l21.614 3.374a1.4 1.4 0 011.053.792l.358.768a.839.839 0 01-.899 1.179l-22.386-3.777a1.236 1.236 0 01-1.022-1.355 1.117 1.117 0 011.233-.987l.05.006z" fill="url(#paint24_linear_263_27226)"/><path opacity=".113" d="M78.786 112.88l21.614 3.374a1.4 1.4 0 011.053.792l.358.767a.838.838 0 01-.899 1.18l-22.386-3.778a1.235 1.235 0 01-1.022-1.355 1.117 1.117 0 011.282-.98z" fill="url(#paint25_linear_263_27226)"/><path opacity=".48" d="M68.023 111.091c.968.223 1.965-.511 2.226-1.641.26-1.13-.313-2.227-1.281-2.45-.969-.224-1.965.511-2.226 1.641-.26 1.129.313 2.226 1.281 2.45z" fill="#D1EDFF"/><path opacity=".651" d="M63.155 121.007l36.293-2.604a1.4 1.4 0 011.496 1.296l1.002 13.959a1.4 1.4 0 01-1.296 1.496l-36.293 2.604a1.4 1.4 0 01-1.496-1.296l-1.002-13.959a1.4 1.4 0 011.296-1.496z" fill="url(#paint26_linear_263_27226)"/><path opacity=".651" d="M65.956 124.987l7.744-.556a.7.7 0 01.748.648l.556 7.745a.7.7 0 01-.648.748l-7.745.556a.7.7 0 01-.748-.648l-.555-7.745a.7.7 0 01.647-.748z" fill="url(#paint27_linear_263_27226)"/><path opacity=".48" d="M69.856 131.379c.994 0 1.8-.94 1.8-2.099 0-1.16-.806-2.1-1.8-2.1s-1.8.94-1.8 2.1c0 1.159.806 2.099 1.8 2.099z" fill="#D1EDFF"/><path opacity=".113" d="M76.95 125.831l21.788-1.955a1.4 1.4 0 011.213.513l.532.659a.837.837 0 01-.586 1.362l-22.635 1.75a1.236 1.236 0 01-1.32-1.067 1.118 1.118 0 01.958-1.257l.05-.005z" fill="url(#paint28_linear_263_27226)"/><path d="M138.706 58.011h4.4v19.812h-4.4V58.01zm-11.002 0h4.401v19.812h-4.401V58.01zm-20.903 0h4.401v19.812h-4.401V58.01zm31.9 39.281h4.401v19.811h-4.401V97.292zm-11.001 0h4.4v19.811h-4.4V97.292zm-20.899-.758h4.401v19.811h-4.401V96.534zm31.905 37.421h4.4v19.812h-4.4v-19.812zm-11.002 0h4.401v19.812h-4.401v-19.812zm-20.903 0h4.401v19.812h-4.401v-19.812z" fill="#fff"/><path d="M212.917 52.508H93.098a2.799 2.799 0 00-2.799 2.8V155.37a2.799 2.799 0 002.8 2.799h119.818a2.799 2.799 0 002.799-2.799V55.307a2.799 2.799 0 00-2.799-2.799z" fill="#fff"/><path d="M118.304 51.51H93.098a2.799 2.799 0 00-2.799 2.799v108.868a2.8 2.8 0 002.8 2.799h25.205a2.8 2.8 0 002.799-2.799V54.309a2.799 2.799 0 00-2.799-2.8z" fill="#43BAFF"/><path opacity=".605" d="M98.715 97.662l16.142-.029c.395 0 .717.32.717.715l.03 16.15c0 .396-.32.717-.716.718l-16.142.029a.716.716 0 01-.718-.715L98 98.38c0-.395.32-.717.716-.718z" fill="#0084D5"/><path opacity=".48" d="M106.571 109.733a3.301 3.301 0 10.46-6.587 3.301 3.301 0 00-.46 6.587z" fill="#D1EDFF"/><path d="M155.978 70.015l.729-3.092a2.527 2.527 0 00-1.88-3.039 2.528 2.528 0 01-1.945-2.373 22.525 22.525 0 00-.928-5.658 2.515 2.515 0 011.096-2.852l.006-.004a2.527 2.527 0 00.821-3.478l-1.671-2.701a2.527 2.527 0 00-3.478-.82h-.007c-.964.6-2.21.48-3.042-.292a22.587 22.587 0 00-4.646-3.357 2.527 2.527 0 01-1.256-2.8 2.527 2.527 0 00-1.879-3.039l-3.092-.728a2.527 2.527 0 00-3.039 1.88 2.528 2.528 0 01-2.374 1.944c-1.918.067-3.819.38-5.658.928a2.515 2.515 0 01-2.853-1.096v-.006a2.53 2.53 0 00-3.479-.82l-2.703 1.677a2.527 2.527 0 00-.819 3.478v.007c.6.964.479 2.21-.294 3.041a22.563 22.563 0 00-3.357 4.646 2.526 2.526 0 01-2.799 1.256 2.526 2.526 0 00-3.039 1.879l-.73 3.091a2.527 2.527 0 001.88 3.039 2.529 2.529 0 011.945 2.374c.067 1.917.379 3.819.928 5.658a2.515 2.515 0 01-1.096 2.853h-.006a2.527 2.527 0 00-.82 3.478l1.67 2.7a2.528 2.528 0 003.479.821h.006c.964-.6 2.21-.48 3.042.293a22.544 22.544 0 004.647 3.357 2.528 2.528 0 011.255 2.8 2.523 2.523 0 001.879 3.038l3.092.729a2.528 2.528 0 003.043-1.885 2.527 2.527 0 012.373-1.944 22.58 22.58 0 005.659-.928 2.515 2.515 0 012.852 1.096l.004.006a2.528 2.528 0 003.478.82l2.702-1.671a2.527 2.527 0 00.819-3.478v-.006a2.516 2.516 0 01.294-3.041 22.564 22.564 0 003.357-4.647 2.528 2.528 0 012.8-1.255 2.526 2.526 0 003.034-1.879zm-17.199-6.817a8.396 8.396 0 11-5.65-9.136 8.406 8.406 0 015.65 9.136z" fill="url(#paint29_linear_263_27226)"/><path fill-rule="evenodd" clip-rule="evenodd" d="M164.246 147.791l3.062 13.802c.153.586-.383 1.125-.999 1.051l-4.782-1.059-2.276 9.087c-.355 1.195-3.104.608-2.821-.558l2.248-9.156-4.826-.96c-.572-.173-.853-.868-.462-1.35l9.296-11.196c.535-.54 1.38-.316 1.56.339z" fill="#009CFC"/><path opacity=".651" d="M204.758 97.293l-78.473.143a.998.998 0 00-.997 1l.031 16.896a.998.998 0 001 .997l78.473-.143a.998.998 0 00.997-1l-.031-16.896a.999.999 0 00-1-.997z" fill="url(#paint30_linear_263_27226)"/><path opacity=".651" d="M148.396 104.196l52.481-.187m-52.482 5.138l26.299-.205" stroke="#60BFF9" stroke-width="1.798"/><path opacity=".48" d="M134.554 111.398a4.898 4.898 0 10.684-9.772 4.898 4.898 0 00-.684 9.772z" fill="#7ACBFE"/><path opacity=".651" d="M204.758 121.085l-78.473.142a.998.998 0 00-.997 1l.031 16.896a.998.998 0 001 .997l78.473-.142a.999.999 0 00.997-1.001l-.031-16.896a.998.998 0 00-1-.996z" fill="url(#paint31_linear_263_27226)"/><path opacity=".651" d="M148.396 127.988l52.481-.188m-52.482 5.138l26.299-.205" stroke="#60BFF9" stroke-width="1.798"/><path opacity=".48" d="M134.554 135.889a4.898 4.898 0 10.684-9.772 4.898 4.898 0 00-.684 9.772z" fill="#7ACBFE"/><path d="M236.195 46.91a7.86 7.86 0 005.948 5.947 7.862 7.862 0 00-5.948 5.949 7.858 7.858 0 00-5.947-5.949 7.854 7.854 0 005.947-5.947zM15.077 11.223a7.859 7.859 0 005.948 5.947 7.862 7.862 0 00-5.948 5.949 7.858 7.858 0 00-5.948-5.948 7.855 7.855 0 005.948-5.948zm11.196 129.453a4.16 4.16 0 003.149 3.148 4.163 4.163 0 00-3.15 3.149 4.16 4.16 0 00-3.148-3.149 4.159 4.159 0 003.149-3.148zM3.881 190.357a4.16 4.16 0 003.149 3.149 4.163 4.163 0 00-3.149 3.149 4.16 4.16 0 00-3.149-3.149 4.158 4.158 0 003.15-3.149zm62.277 13.995a4.162 4.162 0 003.149 3.149 4.161 4.161 0 00-3.149 3.149 4.159 4.159 0 00-3.149-3.149 4.16 4.16 0 003.15-3.149zm211.322-79.071a4.162 4.162 0 003.149 3.149 4.164 4.164 0 00-3.149 3.149 4.16 4.16 0 00-3.149-3.149 4.158 4.158 0 003.149-3.149zm-27.29 26.59a4.16 4.16 0 003.149 3.149 4.164 4.164 0 00-3.149 3.149 4.16 4.16 0 00-3.149-3.149 4.158 4.158 0 003.149-3.149z" fill="#009CFC"/></g><defs><linearGradient id="paint0_linear_263_27226" x1="-12.306" y1="-126.297" x2="709.118" y2="492.272" gradientUnits="userSpaceOnUse"><stop stop-color="#fff"/><stop offset="1" stop-color="#009CFC"/></linearGradient><linearGradient id="paint2_linear_263_27226" x1="261.768" y1="213.738" x2="126.412" y2="229.997" gradientUnits="userSpaceOnUse"><stop stop-color="#D5EFFF"/><stop offset="1" stop-color="#fff"/></linearGradient><linearGradient id="paint3_linear_263_27226" x1="249.978" y1="317.26" x2="187.594" y2="198.04" gradientUnits="userSpaceOnUse"><stop stop-color="#88D1FF"/><stop offset="1" stop-color="#fff"/></linearGradient><linearGradient id="paint4_linear_263_27226" x1="168.377" y1="452.787" x2="25.991" y2="256.006" gradientUnits="userSpaceOnUse"><stop stop-color="#88D1FF"/><stop offset="1" stop-color="#fff"/></linearGradient><linearGradient id="paint5_linear_263_27226" x1="180.076" y1="164.467" x2="180.076" y2="234.021" gradientUnits="userSpaceOnUse"><stop stop-color="#ECF8FF"/><stop offset="1" stop-color="#88D2FF"/></linearGradient><linearGradient id="paint6_linear_263_27226" x1="108.562" y1="165.446" x2="108.562" y2="236.96" gradientUnits="userSpaceOnUse"><stop stop-color="#ECF8FF"/><stop offset="1" stop-color="#88D2FF"/></linearGradient><linearGradient id="paint7_linear_263_27226" x1="128.769" y1="173.857" x2="92.473" y2="210.158" gradientUnits="userSpaceOnUse"><stop stop-color="#ECF8FF"/><stop offset="1" stop-color="#39B3FF"/></linearGradient><linearGradient id="paint8_linear_263_27226" x1="125.088" y1="176.102" x2="198.305" y2="229.693" gradientUnits="userSpaceOnUse"><stop stop-color="#ECF8FF"/><stop offset="1" stop-color="#5BC0FF"/></linearGradient><linearGradient id="paint9_linear_263_27226" x1="14.592" y1="154.559" x2="111.418" y2="209.354" gradientUnits="userSpaceOnUse"><stop stop-color="#F3FBFF"/><stop offset="1" stop-color="#6DC5FF"/></linearGradient><linearGradient id="paint10_linear_263_27226" x1="102.519" y1="248.351" x2="68.607" y2="248.351" gradientUnits="userSpaceOnUse"><stop stop-color="#fff"/><stop offset="1" stop-color="#DEEEFF"/></linearGradient><linearGradient id="paint11_linear_263_27226" x1="70.007" y1="234.054" x2="123.736" y2="244.85" gradientUnits="userSpaceOnUse"><stop stop-color="#6DC7FF"/><stop offset="1" stop-color="#EAEBF0"/></linearGradient><linearGradient id="paint12_linear_263_27226" x1="70.007" y1="241.094" x2="124.875" y2="243.299" gradientUnits="userSpaceOnUse"><stop stop-color="#6DC7FF"/><stop offset="1" stop-color="#EAEBF0"/></linearGradient><linearGradient id="paint13_linear_263_27226" x1="70.234" y1="249.748" x2="123.963" y2="260.544" gradientUnits="userSpaceOnUse"><stop stop-color="#6DC7FF"/><stop offset="1" stop-color="#EAEBF0"/></linearGradient><linearGradient id="paint14_linear_263_27226" x1="182.567" y1="-94.893" x2="178.941" y2="185.549" gradientUnits="userSpaceOnUse"><stop stop-color="#61BEF9"/><stop offset="1" stop-color="#fff" stop-opacity=".154"/></linearGradient><linearGradient id="paint15_linear_263_27226" x1="197.903" y1="-1.37" x2="185.899" y2="49.731" gradientUnits="userSpaceOnUse"><stop stop-color="#81CEFD"/><stop offset="1" stop-color="#38A6E9"/></linearGradient><linearGradient id="paint16_linear_263_27226" x1="90.155" y1="-59.556" x2="90.155" y2="185.595" gradientUnits="userSpaceOnUse"><stop stop-color="#61BEF9"/><stop offset="1" stop-color="#fff" stop-opacity=".154"/></linearGradient><linearGradient id="paint17_linear_263_27226" x1="85.252" y1="-44.914" x2="90.964" y2="20.371" gradientUnits="userSpaceOnUse"><stop stop-color="#83CFFE"/><stop offset="1" stop-color="#5DC1FF"/></linearGradient><linearGradient id="paint18_linear_263_27226" x1="206.546" y1="-57.675" x2="192.227" y2="182.393" gradientUnits="userSpaceOnUse"><stop stop-color="#61BEF9"/><stop offset="1" stop-color="#fff" stop-opacity=".154"/></linearGradient><linearGradient id="paint19_linear_263_27226" x1="273.772" y1="-38.669" x2="194.455" y2="29.118" gradientUnits="userSpaceOnUse"><stop stop-color="#fff"/><stop offset=".536" stop-color="#91D4FE"/><stop offset=".999" stop-color="#83CFFE"/><stop offset="1" stop-color="#54BEFF"/></linearGradient><linearGradient id="paint20_linear_263_27226" x1="223.055" y1="129.961" x2="214.456" y2="93.02" gradientUnits="userSpaceOnUse"><stop stop-color="#E8F6FF"/><stop offset="1" stop-color="#AFE0FF"/></linearGradient><linearGradient id="paint21_linear_263_27226" x1="227.363" y1="126.308" x2="220.127" y2="80.618" gradientUnits="userSpaceOnUse"><stop stop-color="#3DB3FC"/><stop offset="1" stop-color="#fff"/></linearGradient><linearGradient id="paint22_linear_263_27226" x1="81.801" y1="102.291" x2="75.936" y2="139.763" gradientUnits="userSpaceOnUse"><stop stop-color="#E8F6FF"/><stop offset="1" stop-color="#AFE0FF"/></linearGradient><linearGradient id="paint23_linear_263_27226" x1="76.438" y1="104.064" x2="66.032" y2="149.138" gradientUnits="userSpaceOnUse"><stop stop-color="#3DB3FC"/><stop offset="1" stop-color="#fff"/></linearGradient><linearGradient id="paint24_linear_263_27226" x1="106.783" y1="109.998" x2="104.484" y2="123.036" gradientUnits="userSpaceOnUse"><stop stop-color="#3DB3FC"/><stop offset="1" stop-color="#fff"/></linearGradient><linearGradient id="paint25_linear_263_27226" x1="105.967" y1="116.715" x2="103.669" y2="129.753" gradientUnits="userSpaceOnUse"><stop stop-color="#3DB3FC"/><stop offset="1" stop-color="#fff"/></linearGradient><linearGradient id="paint26_linear_263_27226" x1="81.301" y1="119.705" x2="84.016" y2="157.536" gradientUnits="userSpaceOnUse"><stop stop-color="#E8F6FF"/><stop offset="1" stop-color="#AFE0FF"/></linearGradient><linearGradient id="paint27_linear_263_27226" x1="76.474" y1="122.639" x2="76.474" y2="168.898" gradientUnits="userSpaceOnUse"><stop stop-color="#3DB3FC"/><stop offset="1" stop-color="#fff"/></linearGradient><linearGradient id="paint28_linear_263_27226" x1="104.251" y1="122.976" x2="105.175" y2="136.183" gradientUnits="userSpaceOnUse"><stop stop-color="#3DB3FC"/><stop offset="1" stop-color="#fff"/></linearGradient><linearGradient id="paint29_linear_263_27226" x1="218.341" y1="-80.948" x2="122.898" y2="76.618" gradientUnits="userSpaceOnUse"><stop stop-color="#fff"/><stop offset="1" stop-color="#1A99E6"/></linearGradient><linearGradient id="paint30_linear_263_27226" x1="165.447" y1="56.402" x2="165.599" y2="140.034" gradientUnits="userSpaceOnUse"><stop stop-color="#E8F6FF"/><stop offset="1" stop-color="#AFE0FF"/></linearGradient><linearGradient id="paint31_linear_263_27226" x1="165.447" y1="80.193" x2="165.599" y2="163.825" gradientUnits="userSpaceOnUse"><stop stop-color="#E8F6FF"/><stop offset="1" stop-color="#AFE0FF"/></linearGradient><radialGradient id="paint1_radial_263_27226" cx="0" cy="0" r="1" gradientUnits="userSpaceOnUse" gradientTransform="matrix(0 -276.834 73.7228 0 119.221 -117.04)"><stop stop-color="#16A6FF"/><stop offset="1" stop-color="#fff" stop-opacity="0"/></radialGradient><clipPath id="clip0_263_27226"><path fill="#fff" transform="translate(.732)" d="M0 0h302.536v319H0z"/></clipPath></defs></svg>