<svg width="31" height="38" viewBox="0 0 31 38" fill="none" xmlns="http://www.w3.org/2000/svg">
<path d="M19.1663 0.667969H4.49967C2.48301 0.667969 0.851342 2.31797 0.851342 4.33464L0.833008 33.668C0.833008 35.6846 2.46467 37.3346 4.48134 37.3346H26.4997C28.5163 37.3346 30.1663 35.6846 30.1663 33.668V11.668L19.1663 0.667969ZM4.49967 4.33464H17.333L26.4997 13.5013V29.2313L23.1263 25.858C25.473 22.3013 25.088 17.4796 21.953 14.3446C20.1747 12.5663 17.8463 11.668 15.4997 11.668C13.153 11.668 10.8247 12.5663 9.02801 14.3446C5.45301 17.9196 5.45301 23.713 9.02801 27.2696C10.8063 29.048 13.153 29.9463 15.4997 29.9463C17.2597 29.9463 19.0197 29.433 20.5413 28.4246L25.7663 33.668H4.49967V4.33464ZM19.368 24.6846C18.3413 25.7113 16.9663 26.298 15.4997 26.298C14.033 26.298 12.658 25.7296 11.6313 24.6846C10.6047 23.658 10.018 22.283 10.018 20.8163C10.018 19.3496 10.5863 17.9746 11.6313 16.948C12.658 15.903 14.033 15.3346 15.4997 15.3346C16.9663 15.3346 18.3413 15.903 19.368 16.948C20.3947 17.9746 20.9813 19.3496 20.9813 20.8163C20.9813 22.283 20.413 23.658 19.368 24.6846Z" fill="#9CA3AF"/>
</svg>
