<svg width="161" height="161" viewBox="0 0 161 161" fill="none" xmlns="http://www.w3.org/2000/svg">
<mask id="mask0_8389_298617" style="mask-type:alpha" maskUnits="userSpaceOnUse" x="0" y="0" width="161" height="161">
<circle cx="80.5" cy="80.5" r="80" fill="#D9D9D9"/>
</mask>
<g mask="url(#mask0_8389_298617)">
<mask id="mask1_8389_298617" style="mask-type:alpha" maskUnits="userSpaceOnUse" x="-79" y="-32" width="320" height="319">
<circle cx="80.9789" cy="127.588" r="159.088" fill="#D9D9D9"/>
</mask>
<g mask="url(#mask1_8389_298617)">
<g opacity="0.393">
<path opacity="0.393" d="M129.552 133.997V134.785C129.552 134.942 129.615 135.092 129.726 135.203C129.837 135.314 129.987 135.376 130.144 135.376C130.301 135.376 130.451 135.314 130.562 135.203C130.673 135.092 130.736 134.942 130.736 134.785V133.997H131.522C131.676 133.992 131.822 133.928 131.929 133.817C132.036 133.707 132.096 133.559 132.096 133.406C132.096 133.252 132.036 133.104 131.929 132.994C131.822 132.883 131.676 132.819 131.522 132.814H130.736V132.038C130.736 131.881 130.673 131.73 130.562 131.619C130.451 131.509 130.301 131.446 130.144 131.446C129.987 131.446 129.837 131.509 129.726 131.619C129.615 131.73 129.552 131.881 129.552 132.038V132.814H128.776C128.619 132.814 128.469 132.876 128.358 132.987C128.247 133.098 128.184 133.248 128.184 133.405C128.184 133.562 128.247 133.713 128.358 133.824C128.469 133.935 128.619 133.997 128.776 133.997H129.552ZM99.2184 122.209V122.997C99.2184 123.154 99.2808 123.304 99.3917 123.415C99.5026 123.526 99.6531 123.588 99.81 123.588C99.9669 123.588 100.117 123.526 100.228 123.415C100.339 123.304 100.402 123.154 100.402 122.997V122.208H101.189C101.343 122.204 101.489 122.139 101.596 122.029C101.703 121.919 101.763 121.771 101.763 121.617C101.763 121.463 101.703 121.316 101.596 121.205C101.489 121.095 101.343 121.03 101.189 121.026H100.402V120.249C100.402 120.092 100.339 119.942 100.228 119.831C100.117 119.72 99.9669 119.658 99.81 119.658C99.6531 119.658 99.5026 119.72 99.3917 119.831C99.2808 119.942 99.2184 120.092 99.2184 120.249V121.025H98.4419C98.285 121.025 98.1345 121.088 98.0236 121.199C97.9127 121.309 97.8503 121.46 97.8503 121.617C97.8503 121.774 97.9127 121.924 98.0236 122.035C98.1345 122.146 98.285 122.208 98.4419 122.208H99.219L99.2184 122.209Z" fill="url(#paint0_linear_8389_298617)"/>
</g>
<path d="M80.8246 223.076C111.687 223.076 136.706 182.127 136.706 131.614C136.706 81.1014 111.687 40.1528 80.8246 40.1528C49.9624 40.1528 24.9436 81.1014 24.9436 131.614C24.9436 182.127 49.9624 223.076 80.8246 223.076Z" fill="url(#paint1_linear_8389_298617)" stroke="url(#paint2_linear_8389_298617)" stroke-width="0.313785"/>
<path d="M59.2818 73.7318C58.9856 73.7419 58.7028 73.8581 58.4851 74.0592L55.3254 76.9673C55.2054 77.0778 55.1083 77.2109 55.0397 77.359C54.9711 77.5071 54.9323 77.6672 54.9256 77.8302C54.9189 77.9933 54.9444 78.156 55.0006 78.3093C55.0567 78.4625 55.1426 78.6031 55.2531 78.7231C55.3636 78.8432 55.4967 78.9403 55.6448 79.0088C55.7929 79.0774 55.953 79.1162 56.116 79.1229C56.4453 79.1365 56.7665 79.0187 57.0089 78.7954L58.2493 77.6538V95.2148C58.2493 95.5023 58.3635 95.7781 58.5669 95.9814C58.7702 96.1847 59.0459 96.2989 59.3334 96.2989C59.6209 96.2989 59.8966 96.1847 60.0999 95.9814C60.3032 95.7781 60.4175 95.5023 60.4175 95.2148V77.6538L61.6579 78.796C61.9004 79.0192 62.2216 79.137 62.5509 79.1234C62.8803 79.1098 63.1907 78.9659 63.414 78.7234C63.6372 78.4809 63.755 78.1596 63.7414 77.8303C63.7278 77.501 63.5839 77.1905 63.3414 76.9673L60.1817 74.0586C59.9638 73.8579 59.6811 73.7421 59.385 73.7323C59.368 73.7312 59.3506 73.7318 59.3337 73.7318H59.2818Z" fill="url(#paint3_linear_8389_298617)"/>
<path d="M133.475 155.909C135.804 157.655 136.051 163.913 134.217 174.681H-3.38965C-3.3633 174.514 -3.32389 174.349 -3.27177 174.188C-2.93159 173.222 -2.35114 172.358 -1.58509 171.679C-0.819042 170.999 0.107408 170.525 1.10702 170.302C3.09341 169.84 4.15428 169.691 5.91366 170.726C4.98936 168.931 4.62463 166.901 4.86663 164.897C5.10864 162.893 5.94624 161.008 7.27114 159.485C8.59604 157.962 10.3473 156.872 12.2985 156.355C14.2497 155.838 16.3111 155.918 18.2162 156.585C21.008 157.603 23.3187 159.627 24.6949 162.261C24.6542 161.095 24.8842 159.935 25.3666 158.872C25.8491 157.809 26.571 156.873 27.4758 156.136C28.8156 155.164 30.4292 154.642 32.0845 154.645C33.7398 154.648 35.3514 155.176 36.6875 156.153C36.8981 156.315 37.0978 156.49 37.2856 156.677C37.1333 156.449 36.9936 156.213 36.8665 155.97C35.3166 152.988 35.954 149.041 38.1762 146.474C40.5773 143.698 44.5021 142.497 48.1474 142.93C51.7928 143.366 55.2941 145.676 57.9572 148.199C76.8737 142.087 77.4849 76.2173 77.4849 76.2173L81.0081 75.1433L84.5355 76.2173C84.5355 76.2173 85.1424 142.087 104.063 148.199C106.726 145.676 110.228 143.366 113.873 142.93C117.518 142.497 121.443 143.698 123.844 146.474C126.245 149.251 126.796 153.639 124.731 156.677C126.108 155.361 129.982 153.289 133.475 155.909Z" fill="url(#paint4_linear_8389_298617)"/>
<path opacity="0.888" d="M62.7122 149.509C77.7105 143.397 78.1951 77.527 78.1951 77.527L80.9886 76.4531L83.7854 77.527C83.7854 77.527 84.2667 143.397 99.2683 149.509C101.646 149.579 66.686 149.579 62.7122 149.509Z" fill="url(#paint5_linear_8389_298617)"/>
<path opacity="0.9" d="M68.1697 149.776C78.7041 143.664 79.0446 77.7947 79.0446 77.7947L81.0065 76.7207L82.971 77.7947C82.971 77.7947 83.3094 143.664 93.846 149.776C95.5159 149.846 70.961 149.846 68.1702 149.776H68.1697Z" fill="url(#paint6_linear_8389_298617)"/>
<path d="M147.995 171.03H70.947C71.3989 166.982 73.1866 163.019 76.7561 161.184C78.8891 160.148 81.3028 159.841 83.6273 160.308C85.9517 160.776 88.0585 161.994 89.6246 163.774C87.779 155.438 94.136 146.224 102.579 144.979C111.021 143.739 119.762 150.735 120.395 159.247C120.666 155.48 124.693 152.459 128.385 153.252C132.072 154.044 134.503 158.454 133.205 161.997C136.588 158.944 142.35 159.05 145.621 162.226C146.73 163.373 147.53 164.782 147.945 166.322C148.36 167.862 148.377 169.482 147.994 171.03H147.995Z" fill="#56C4FF"/>
<path d="M18.7849 173.147H82.0133C81.6422 169.824 80.1754 166.572 77.246 165.066C75.4955 164.216 73.5147 163.964 71.6071 164.348C69.6995 164.732 67.9706 165.731 66.6854 167.192C68.2003 160.351 62.9832 152.789 56.0549 151.768C49.1265 150.751 41.9537 156.491 41.4341 163.477C41.2115 160.386 37.9067 157.906 34.8769 158.556C31.8514 159.207 29.8563 162.826 30.9215 165.734C28.145 163.228 23.4169 163.315 20.732 165.921C19.8217 166.862 19.1654 168.018 18.8248 169.282C18.4842 170.546 18.4705 171.876 18.7849 173.147Z" fill="#7BD0FF"/>
<path d="M63.7425 141.879C63.7425 141.493 63.4297 141.18 63.044 141.18C62.6582 141.18 62.3455 141.493 62.3455 141.879V157.945C62.3455 158.33 62.6582 158.643 63.044 158.643C63.4297 158.643 63.7425 158.33 63.7425 157.945V141.879Z" fill="url(#paint7_linear_8389_298617)"/>
<path d="M36.1863 153.291C36.1863 152.688 36.6749 152.199 37.2777 152.199C37.8805 152.199 38.3691 152.688 38.3691 153.291V178.394C38.3691 178.996 37.8805 179.485 37.2777 179.485C36.6749 179.485 36.1863 178.996 36.1863 178.394V153.291Z" fill="url(#paint8_linear_8389_298617)"/>
<path d="M47.9983 137.334C47.9983 136.948 47.6856 136.635 47.2998 136.635C46.9141 136.635 46.6013 136.948 46.6013 137.334V153.4C46.6013 153.786 46.9141 154.098 47.2998 154.098C47.6856 154.098 47.9983 153.786 47.9983 153.4V137.334Z" fill="url(#paint9_linear_8389_298617)"/>
<path fill-rule="evenodd" clip-rule="evenodd" d="M71.0538 67.9413C71.0538 67.9413 68.3163 73.7693 63.8458 85.7722C63.6585 86.2749 64.1386 86.734 64.6521 86.903C66.2789 81.0491 68.9503 75.662 71.6501 70.2874L71.0538 67.9413Z" fill="white"/>
<path fill-rule="evenodd" clip-rule="evenodd" d="M64.6252 86.8786C64.7607 86.9229 64.8988 86.9488 65.0267 86.9488H65.4315C65.8447 86.9488 66.2261 86.7147 66.4511 86.3274C67.883 83.8484 70.2842 80.9637 74.0488 79.812L71.6233 70.263C68.9226 75.6368 66.252 81.0239 64.6252 86.8786ZM95.3481 86.3274C93.9162 83.8484 91.5158 80.9637 87.7513 79.8111L90.7723 67.9169C90.7723 67.9169 93.5098 73.744 97.9819 85.747C98.2178 86.3826 97.3881 86.9488 96.7717 86.9488H96.3677C95.9545 86.9488 95.5731 86.7147 95.3481 86.3274ZM84.3422 83.324H77.1685C76.8858 83.324 76.6399 83.1048 76.5772 82.797L76.1841 80.8549C76.0979 80.4317 76.3856 80.0286 76.7746 80.0286H84.7369C85.125 80.0286 85.4144 80.4317 85.3274 80.8549L84.9343 82.7962C84.8708 83.1048 84.6257 83.3231 84.3422 83.3231" fill="#529BD2"/>
<path fill-rule="evenodd" clip-rule="evenodd" d="M70.4237 63.3434C70.4237 63.3434 71.5252 74.6388 74.9276 81.7966C74.9276 81.7966 80.3331 78.8893 86.739 81.7966C86.739 81.7966 90.6433 75.7579 91.4445 62.4477C91.9054 54.7797 91.3542 46.0236 89.0809 38.4794H73.2038C71.0911 44.6252 69.5873 52.8778 70.4237 63.3434Z" fill="white"/>
<path fill-rule="evenodd" clip-rule="evenodd" d="M90.9366 47.454C90.5309 44.3803 89.9187 41.3551 89.0597 38.5038H73.1827C71.07 44.6488 69.5645 52.9014 70.4017 63.367C70.4017 63.367 70.7756 67.191 71.7566 71.7969C81.2203 67.8325 88.1489 58.2977 90.9366 47.454Z" fill="white"/>
<path fill-rule="evenodd" clip-rule="evenodd" d="M71.7585 71.7965C72.4645 75.1094 73.4832 78.8271 74.9075 81.8214C74.9075 81.8214 80.3131 78.9133 86.7189 81.8214C86.7189 81.8214 90.6223 75.7827 91.4236 62.4733C91.7105 57.7026 91.6051 52.512 90.9377 47.4536C88.15 58.2989 81.2214 67.8337 71.7585 71.7965Z" fill="#E7F6FF"/>
<path fill-rule="evenodd" clip-rule="evenodd" d="M81.2381 25.5493C80.6635 25.5075 80.0772 25.7434 79.6649 26.2644C78.0682 28.2826 75.3299 32.3291 73.2063 38.5041H82.5035C82.7545 38.111 82.9443 37.6518 83.0572 37.1475C83.4595 32.8794 82.777 29.0153 81.2381 25.5493Z" fill="#71C9FF"/>
<path fill-rule="evenodd" clip-rule="evenodd" d="M78.8659 33.4752C79.98 31.5917 80.4032 29.7098 79.8111 29.2724C79.2172 28.8341 77.8338 30.0059 76.7189 31.8894C75.6049 33.7729 75.1825 35.654 75.7755 36.0922C76.3677 36.5305 77.7519 35.3587 78.8659 33.4744" fill="white"/>
<path fill-rule="evenodd" clip-rule="evenodd" d="M82.3919 26.114C82.0573 25.7602 81.6391 25.5804 81.2151 25.5486C82.754 29.0146 83.4365 32.8787 83.0342 37.1468C82.9301 37.6278 82.7427 38.0869 82.4805 38.5034H89.0604C87.6051 33.6758 85.4472 29.3433 82.3919 26.114Z" fill="#529BD2"/>
<path fill-rule="evenodd" clip-rule="evenodd" d="M80.5577 62.9875C79.9773 64.6344 77.3544 72.8928 79.0965 83.3677C81.0846 76.8489 81.1407 69.9187 80.5577 62.9875Z" fill="white"/>
<path fill-rule="evenodd" clip-rule="evenodd" d="M80.6349 62.8204C80.6349 62.8204 80.5931 62.9274 80.5237 63.124C81.1066 70.0543 81.0506 76.9854 79.0625 83.5041C79.1938 84.2962 79.3502 85.1008 79.5342 85.9154C79.6714 86.521 80.1565 86.9492 80.716 86.9492C81.2639 86.9492 81.7414 86.5402 81.8878 85.9506C83.073 81.1765 84.1929 72.5484 80.6349 62.8204Z" fill="#529BD2"/>
<path fill-rule="evenodd" clip-rule="evenodd" d="M87.9808 51.3239C87.9808 53.1392 87.2597 54.8802 85.976 56.1638C84.6924 57.4474 82.9515 58.1685 81.1362 58.1685C79.3209 58.1685 77.58 57.4474 76.2964 56.1638C75.0128 54.8802 74.2917 53.1392 74.2917 51.3239C74.2817 50.4187 74.4513 49.5205 74.7908 48.6813C75.1303 47.8422 75.6329 47.0786 76.2694 46.435C76.906 45.7913 77.6639 45.2804 78.4993 44.9316C79.3347 44.5829 80.231 44.4033 81.1362 44.4033C82.0415 44.4033 82.9377 44.5829 83.7731 44.9316C84.6085 45.2804 85.3664 45.7913 86.003 46.435C86.6396 47.0786 87.1422 47.8422 87.4816 48.6813C87.8211 49.5205 87.9908 50.4187 87.9808 51.3239Z" fill="#91D5FF"/>
<path fill-rule="evenodd" clip-rule="evenodd" d="M85.8892 51.3236C85.8892 52.584 85.3885 53.7927 84.4973 54.684C83.606 55.5752 82.3973 56.0759 81.1369 56.0759C79.8765 56.0759 78.6677 55.5752 77.7764 54.684C76.8852 53.7927 76.3845 52.584 76.3845 51.3236C76.4011 50.0742 76.909 48.8816 77.7984 48.004C78.6877 47.1264 79.887 46.6343 81.1364 46.6343C82.3859 46.6343 83.5851 47.1264 84.4745 48.004C85.3638 48.8816 85.8718 50.0742 85.8884 51.3236" fill="#214A81"/>
<path fill-rule="evenodd" clip-rule="evenodd" d="M81.4823 46.5908C80.1683 49.2547 79.0049 51.9487 77.6868 54.5866C78.2793 55.2115 79.0303 55.6639 79.8597 55.8956C80.9612 52.9281 82.2568 50.0877 83.6167 47.2767C82.9705 46.8802 82.2385 46.6449 81.4823 46.5908Z" fill="#3464A3"/>
<path fill-rule="evenodd" clip-rule="evenodd" d="M83.617 47.276C82.257 50.0871 80.9615 52.9275 79.8599 55.8949C80.2656 56.0087 80.693 56.0756 81.1363 56.0756C82.3967 56.0756 83.6054 55.5749 84.4967 54.6837C85.3879 53.7924 85.8886 52.5837 85.8886 51.3233C85.8889 50.5104 85.6801 49.711 85.2823 49.0021C84.8844 48.2932 84.311 47.6985 83.617 47.2752V47.276ZM81.1363 46.5718C79.8761 46.5718 78.6675 47.0724 77.7764 47.9635C76.8854 48.8545 76.3848 50.0631 76.3848 51.3233C76.3848 52.5879 76.8816 53.7346 77.687 54.5852C79.0051 51.9481 80.1686 49.2532 81.4825 46.5893C81.3679 46.581 81.2534 46.5726 81.1363 46.5726" fill="#214A81"/>
<path d="M112.241 99.3734C111.649 99.3943 111.083 99.6266 110.648 100.028L104.328 105.844C103.843 106.291 103.555 106.912 103.528 107.571C103.501 108.229 103.737 108.872 104.183 109.357C104.63 109.842 105.25 110.129 105.909 110.157C106.568 110.184 107.21 109.948 107.695 109.502L110.176 107.218V212.191C110.176 212.766 110.405 213.318 110.811 213.724C111.218 214.131 111.769 214.359 112.344 214.359C112.919 214.359 113.471 214.131 113.877 213.724C114.284 213.318 114.512 212.766 114.512 212.191V107.218L116.993 109.502C117.478 109.948 118.121 110.184 118.779 110.156C119.438 110.129 120.059 109.841 120.505 109.356C120.951 108.871 121.187 108.229 121.16 107.57C121.132 106.912 120.845 106.291 120.36 105.844L114.04 100.028C113.605 99.6262 113.039 99.3939 112.447 99.3729H112.241V99.3734Z" fill="url(#paint10_linear_8389_298617)"/>
<path opacity="0.876" d="M121.86 137.334C121.86 136.948 121.547 136.635 121.161 136.635C120.776 136.635 120.463 136.948 120.463 137.334V153.399C120.463 153.785 120.776 154.098 121.161 154.098C121.547 154.098 121.86 153.785 121.86 153.399V137.334Z" fill="url(#paint11_linear_8389_298617)"/>
<path opacity="0.876" d="M132.774 153.705C132.774 153.319 132.461 153.006 132.075 153.006C131.69 153.006 131.377 153.319 131.377 153.705V169.77C131.377 170.156 131.69 170.469 132.075 170.469C132.461 170.469 132.774 170.156 132.774 169.77V153.705Z" fill="url(#paint12_linear_8389_298617)"/>
<path opacity="0.876" d="M101.343 148.487C101.343 147.885 101.832 147.396 102.435 147.396C103.037 147.396 103.526 147.885 103.526 148.487V173.59C103.526 174.193 103.037 174.682 102.435 174.682C101.832 174.682 101.343 174.193 101.343 173.59V148.487Z" fill="url(#paint13_linear_8389_298617)"/>
<path d="M103.462 60.1788V61.273C103.462 61.4909 103.548 61.7 103.702 61.8541C103.856 62.0082 104.065 62.0948 104.283 62.0948C104.501 62.0948 104.71 62.0082 104.865 61.8541C105.019 61.7 105.105 61.4909 105.105 61.273V60.1788H106.198C106.412 60.1733 106.616 60.0843 106.765 59.9308C106.915 59.7774 106.998 59.5715 106.998 59.3572C106.998 59.1429 106.915 58.9371 106.765 58.7836C106.616 58.6302 106.412 58.5412 106.198 58.5357H105.105V57.4579C105.105 57.2399 105.019 57.0309 104.865 56.8768C104.71 56.7226 104.501 56.636 104.283 56.636C104.065 56.636 103.856 56.7226 103.702 56.8768C103.548 57.0309 103.462 57.2399 103.462 57.4579V58.5351H102.383C102.165 58.5351 101.956 58.6217 101.802 58.7758C101.648 58.9298 101.562 59.1388 101.562 59.3567C101.562 59.5746 101.648 59.7836 101.802 59.9376C101.956 60.0917 102.165 60.1783 102.383 60.1783H103.462V60.1788ZM136.204 87.4644V88.5586C136.204 88.7766 136.291 88.9856 136.445 89.1397C136.599 89.2938 136.808 89.3804 137.026 89.3804C137.244 89.3804 137.453 89.2938 137.607 89.1397C137.761 88.9856 137.848 88.7766 137.848 88.5586V87.4644H138.94C139.155 87.4589 139.358 87.3699 139.508 87.2165C139.657 87.063 139.741 86.8572 139.741 86.6429C139.741 86.4286 139.657 86.2227 139.508 86.0693C139.358 85.9158 139.155 85.8268 138.94 85.8213H137.848V84.7435C137.848 84.5255 137.761 84.3165 137.607 84.1624C137.453 84.0083 137.244 83.9217 137.026 83.9217C136.808 83.9217 136.599 84.0083 136.445 84.1624C136.291 84.3165 136.204 84.5255 136.204 84.7435V85.8207H135.126C134.908 85.8207 134.699 85.9073 134.545 86.0614C134.391 86.2155 134.304 86.4244 134.304 86.6423C134.304 86.8602 134.391 87.0692 134.545 87.2233C134.699 87.3773 134.908 87.4639 135.126 87.4639H136.204V87.4644ZM49.2002 67.332V68.4262C49.2058 68.6404 49.2947 68.844 49.4482 68.9936C49.6017 69.1431 49.8075 69.2268 50.0218 69.2268C50.2361 69.2268 50.4419 69.1431 50.5954 68.9936C50.7489 68.844 50.8379 68.6404 50.8434 68.4262V67.332H51.9364C52.1491 67.3243 52.3504 67.2343 52.4981 67.0812C52.6458 66.928 52.7283 66.7235 52.7283 66.5107C52.7283 66.2979 52.6458 66.0934 52.4981 65.9403C52.3504 65.7871 52.1491 65.6972 51.9364 65.6894H50.8434V64.6111C50.8434 64.3932 50.7568 64.1842 50.6028 64.0301C50.4487 63.8761 50.2397 63.7895 50.0218 63.7895C49.8039 63.7895 49.595 63.8761 49.4409 64.0301C49.2868 64.1842 49.2002 64.3932 49.2002 64.6111V65.6889H48.1219C47.9041 65.6889 47.6952 65.7754 47.5412 65.9294C47.3871 66.0834 47.3006 66.2923 47.3006 66.5102C47.3006 66.728 47.3871 66.9369 47.5412 67.0909C47.6952 67.2449 47.9041 67.3315 48.1219 67.3315H49.2002V67.332ZM34.1577 138.21V139.304C34.1632 139.518 34.2522 139.722 34.4057 139.871C34.5591 140.021 34.765 140.104 34.9793 140.104C35.1936 140.104 35.3994 140.021 35.5528 139.871C35.7063 139.722 35.7953 139.518 35.8008 139.304V138.21H36.8939C37.1065 138.202 37.3079 138.112 37.4556 137.959C37.6033 137.806 37.6858 137.601 37.6858 137.388C37.6858 137.176 37.6033 136.971 37.4556 136.818C37.3079 136.665 37.1065 136.575 36.8939 136.567H35.8008V135.489C35.8008 135.271 35.7143 135.062 35.5602 134.908C35.4061 134.754 35.1971 134.667 34.9793 134.667C34.7614 134.667 34.5524 134.754 34.3983 134.908C34.2442 135.062 34.1577 135.271 34.1577 135.489V136.567H33.0794C32.8615 136.567 32.6526 136.653 32.4986 136.807C32.3446 136.961 32.2581 137.17 32.2581 137.388C32.2581 137.606 32.3446 137.815 32.4986 137.969C32.6526 138.123 32.8615 138.209 33.0794 138.209H34.1577V138.21ZM65.642 111.151V112.245C65.642 112.463 65.7286 112.672 65.8827 112.826C66.0369 112.98 66.2459 113.067 66.4639 113.067C66.6818 113.067 66.8909 112.98 67.045 112.826C67.1991 112.672 67.2857 112.463 67.2857 112.245V111.151H68.3782C68.5924 111.146 68.796 111.057 68.9456 110.903C69.0952 110.75 69.1789 110.544 69.1789 110.33C69.1789 110.115 69.0952 109.909 68.9456 109.756C68.796 109.602 68.5924 109.513 68.3782 109.508H67.2857V108.43C67.2857 108.212 67.1991 108.003 67.045 107.849C66.8909 107.695 66.6818 107.608 66.4639 107.608C66.2459 107.608 66.0369 107.695 65.8827 107.849C65.7286 108.003 65.642 108.212 65.642 108.43V109.507H64.5642C64.3463 109.507 64.1374 109.594 63.9833 109.748C63.8292 109.902 63.7427 110.111 63.7427 110.329C63.7427 110.547 63.8292 110.756 63.9833 110.91C64.1374 111.064 64.3463 111.151 64.5642 111.151H65.642V111.151Z" fill="url(#paint14_linear_8389_298617)"/>
<path d="M100.07 31.6915V33.6609C100.07 34.0532 100.226 34.4293 100.503 34.7067C100.78 34.984 101.157 35.1398 101.549 35.1398C101.941 35.1398 102.317 34.984 102.594 34.7067C102.872 34.4293 103.028 34.0532 103.028 33.6609V31.6909H104.995C105.387 31.6909 105.763 31.5351 106.041 31.2578C106.318 30.9804 106.474 30.6043 106.474 30.212C106.474 29.8198 106.318 29.4437 106.041 29.1663C105.763 28.889 105.387 28.7332 104.995 28.7332H103.028V26.7942C103.028 26.402 102.872 26.0259 102.595 25.7485C102.318 25.4712 101.942 25.3154 101.549 25.3154C101.157 25.3154 100.781 25.4712 100.504 25.7485C100.226 26.0259 100.07 26.402 100.07 26.7942V28.7343H98.1293C97.7421 28.7417 97.3732 28.9007 97.102 29.1772C96.8308 29.4537 96.6788 29.8256 96.6788 30.2129C96.6788 30.6002 96.8308 30.972 97.102 31.2485C97.3732 31.525 97.7421 31.684 98.1293 31.6915H100.07V31.692V31.6915ZM37.5312 45.88V47.8495C37.5312 48.2417 37.687 48.6179 37.9644 48.8952C38.2417 49.1725 38.6179 49.3284 39.0101 49.3284C39.4023 49.3284 39.7785 49.1725 40.0558 48.8952C40.3332 48.6179 40.489 48.2417 40.489 47.8495V45.8794H42.4563C42.8485 45.8794 43.2247 45.7236 43.502 45.4463C43.7793 45.169 43.9352 44.7928 43.9352 44.4006C43.9352 44.0083 43.7793 43.6322 43.502 43.3548C43.2247 43.0775 42.8485 42.9217 42.4563 42.9217H40.4895V40.9817C40.4895 40.5895 40.3337 40.2133 40.0564 39.936C39.779 39.6586 39.4029 39.5028 39.0106 39.5028C38.6184 39.5028 38.2423 39.6586 37.9649 39.936C37.6876 40.2133 37.5318 40.5895 37.5318 40.9817V42.9217H35.5901C35.2029 42.9291 34.834 43.0882 34.5628 43.3647C34.2916 43.6411 34.1396 44.013 34.1396 44.4003C34.1396 44.7876 34.2916 45.1594 34.5628 45.4359C34.834 45.7124 35.2029 45.8715 35.5901 45.8789H37.5307V45.8794L37.5312 45.88Z" fill="url(#paint15_linear_8389_298617)"/>
</g>
</g>
<defs>
<linearGradient id="paint0_linear_8389_298617" x1="152.628" y1="160.551" x2="144.058" y2="102.651" gradientUnits="userSpaceOnUse">
<stop stop-color="white"/>
<stop offset="1" stop-color="white"/>
</linearGradient>
<linearGradient id="paint1_linear_8389_298617" x1="84.5082" y1="173.571" x2="84.5082" y2="33.9334" gradientUnits="userSpaceOnUse">
<stop stop-color="white" stop-opacity="0"/>
<stop offset="1" stop-color="#54BEFF"/>
</linearGradient>
<linearGradient id="paint2_linear_8389_298617" x1="81.1822" y1="85.406" x2="77.8601" y2="11.0219" gradientUnits="userSpaceOnUse">
<stop stop-color="white" stop-opacity="0"/>
<stop offset="1" stop-color="white"/>
</linearGradient>
<linearGradient id="paint3_linear_8389_298617" x1="59.3335" y1="93.6892" x2="59.3335" y2="71.3524" gradientUnits="userSpaceOnUse">
<stop stop-color="white" stop-opacity="0"/>
<stop offset="1" stop-color="white"/>
</linearGradient>
<linearGradient id="paint4_linear_8389_298617" x1="81.5465" y1="179.072" x2="81.5465" y2="80.821" gradientUnits="userSpaceOnUse">
<stop stop-color="#20B2FF"/>
<stop offset="1" stop-color="#81CDFC"/>
</linearGradient>
<linearGradient id="paint5_linear_8389_298617" x1="81.3408" y1="76.4531" x2="80.178" y2="148.12" gradientUnits="userSpaceOnUse">
<stop stop-color="#1C8DE2"/>
<stop offset="1" stop-color="#37B9FF"/>
</linearGradient>
<linearGradient id="paint6_linear_8389_298617" x1="81.0485" y1="75.464" x2="80.2974" y2="149.822" gradientUnits="userSpaceOnUse">
<stop stop-color="#1587D9"/>
<stop offset="1" stop-color="#34B7FE" stop-opacity="0.356"/>
</linearGradient>
<linearGradient id="paint7_linear_8389_298617" x1="63.044" y1="141.18" x2="63.044" y2="158.643" gradientUnits="userSpaceOnUse">
<stop stop-color="white"/>
<stop offset="1" stop-color="white" stop-opacity="0.059"/>
</linearGradient>
<linearGradient id="paint8_linear_8389_298617" x1="37.2777" y1="152.199" x2="37.2777" y2="179.485" gradientUnits="userSpaceOnUse">
<stop stop-color="white"/>
<stop offset="1" stop-color="white" stop-opacity="0.059"/>
</linearGradient>
<linearGradient id="paint9_linear_8389_298617" x1="47.2998" y1="136.635" x2="47.2998" y2="154.098" gradientUnits="userSpaceOnUse">
<stop stop-color="white"/>
<stop offset="1" stop-color="white" stop-opacity="0.059"/>
</linearGradient>
<linearGradient id="paint10_linear_8389_298617" x1="112.344" y1="99.3729" x2="112.344" y2="160.064" gradientUnits="userSpaceOnUse">
<stop stop-color="white"/>
<stop offset="1" stop-color="white" stop-opacity="0"/>
</linearGradient>
<linearGradient id="paint11_linear_8389_298617" x1="121.161" y1="136.635" x2="121.161" y2="154.098" gradientUnits="userSpaceOnUse">
<stop stop-color="white"/>
<stop offset="1" stop-color="white" stop-opacity="0.059"/>
</linearGradient>
<linearGradient id="paint12_linear_8389_298617" x1="132.075" y1="153.006" x2="132.075" y2="170.469" gradientUnits="userSpaceOnUse">
<stop stop-color="white"/>
<stop offset="1" stop-color="white" stop-opacity="0.059"/>
</linearGradient>
<linearGradient id="paint13_linear_8389_298617" x1="102.435" y1="147.396" x2="102.435" y2="174.682" gradientUnits="userSpaceOnUse">
<stop stop-color="white"/>
<stop offset="1" stop-color="white" stop-opacity="0.059"/>
</linearGradient>
<linearGradient id="paint14_linear_8389_298617" x1="204.184" y1="273.783" x2="130.142" y2="-21.8673" gradientUnits="userSpaceOnUse">
<stop stop-color="white"/>
<stop offset="1" stop-color="white"/>
</linearGradient>
<linearGradient id="paint15_linear_8389_298617" x1="149.842" y1="87.7861" x2="140.275" y2="-1.57945" gradientUnits="userSpaceOnUse">
<stop stop-color="white"/>
<stop offset="1" stop-color="#009CFC"/>
</linearGradient>
</defs>
</svg>
