<svg width="464" height="200" viewBox="0 0 464 200" fill="none" xmlns="http://www.w3.org/2000/svg">
<g clip-path="url(#clip0_11068_320054)">
<rect width="464" height="200" fill="white"/>
<rect y="-15.0156" width="464" height="223.278" fill="url(#paint0_linear_11068_320054)"/>
<g filter="url(#filter0_d_11068_320054)">
<path d="M182.061 97.7943L185.597 118.23C186.083 121.04 188.784 122.94 191.599 122.453L206.954 119.796L226.701 133.691C230.483 136.351 235.613 133.096 234.826 128.549L224.952 71.4831C224.165 66.9362 218.239 65.5937 215.572 69.3702L201.65 89.143L186.295 91.7999C183.48 92.287 181.575 94.9845 182.061 97.7943Z" fill="#0070F0"/>
</g>
<path d="M269.804 88.4155C268.538 88.4754 267.571 87.7654 266.767 87.1737C265.846 86.4958 265.287 86.1261 264.516 86.3679C264.03 86.5217 263.509 86.2566 263.353 85.7773C263.198 85.2968 263.468 84.7827 263.955 84.63C265.671 84.088 266.893 84.9876 267.876 85.7103C268.797 86.3869 269.356 86.7591 270.127 86.5161C270.898 86.273 271.135 85.6504 271.489 84.5712C271.866 83.4199 272.335 81.9879 274.051 81.4459C275.767 80.905 276.989 81.8035 277.972 82.5261C278.893 83.2027 279.45 83.575 280.223 83.3319C280.994 83.0888 281.233 82.4662 281.586 81.3869C281.963 80.2356 282.433 78.8037 284.15 78.2616C285.865 77.7207 287.089 78.6191 288.072 79.3417C288.993 80.0196 289.553 80.3905 290.324 80.1475C290.813 79.9947 291.332 80.2587 291.487 80.7393C291.642 81.2198 291.372 81.7339 290.885 81.8866C289.169 82.4274 287.946 81.529 286.963 80.8064C286.041 80.1285 285.48 79.7576 284.711 80.0007C283.939 80.2437 283.701 80.8664 283.348 81.9456C282.97 83.0969 282.501 84.5289 280.784 85.071C279.068 85.6118 277.846 84.7134 276.863 83.9907C275.942 83.3141 275.382 82.9419 274.612 83.185C273.841 83.428 273.604 84.0506 273.25 85.1298C272.873 86.2811 272.404 87.7131 270.688 88.2552C270.377 88.353 270.083 88.4035 269.804 88.4168L269.804 88.4155Z" fill="#FFD33C"/>
<path d="M250.601 118.849C247.891 118.389 246.173 116.438 244.742 114.812C243.104 112.95 242.092 111.908 240.347 112.064C239.245 112.164 238.264 111.362 238.157 110.274C238.05 109.184 238.859 108.22 239.963 108.122C243.849 107.768 246.021 110.24 247.769 112.225C249.408 114.085 250.418 115.132 252.165 114.974C253.911 114.816 254.702 113.607 255.95 111.484C257.282 109.22 258.939 106.403 262.825 106.049C266.71 105.697 268.883 108.166 270.631 110.152C272.27 112.012 273.278 113.058 275.026 112.901C276.773 112.743 277.566 111.534 278.814 109.411C280.146 107.147 281.803 104.33 285.692 103.977C289.577 103.625 291.753 106.094 293.501 108.08C295.139 109.942 296.153 110.987 297.899 110.829C299.005 110.732 299.984 111.532 300.088 112.621C300.195 113.711 299.386 114.675 298.282 114.773C294.397 115.125 292.221 112.655 290.473 110.67C288.835 108.807 287.819 107.762 286.075 107.92C284.329 108.078 283.536 109.287 282.288 111.41C280.956 113.674 279.298 116.491 275.41 116.845C271.525 117.196 269.352 114.727 267.604 112.742C265.965 110.882 264.952 109.834 263.208 109.993C261.462 110.151 260.671 111.36 259.423 113.483C258.091 115.747 256.434 118.564 252.548 118.918C251.845 118.982 251.199 118.953 250.6 118.851L250.601 118.849Z" fill="#FFD33C"/>
<path d="M246.25 77.8373C244.666 78.6728 243.004 78.3439 241.621 78.0692C240.036 77.7545 239.1 77.6161 238.258 78.3878C237.728 78.8762 236.903 78.8494 236.417 78.3294C235.93 77.8079 235.967 76.9886 236.499 76.501C238.369 74.779 240.471 75.1972 242.162 75.5323C243.746 75.8455 244.684 75.9869 245.524 75.2137C246.365 74.4404 246.295 73.5018 246.1 71.9094C245.893 70.2105 245.635 68.0973 247.505 66.3753C249.375 64.6548 251.477 65.0715 253.168 65.4066C254.752 65.7199 255.688 65.8621 256.53 65.088C257.371 64.3147 257.303 63.3753 257.108 61.7829C256.9 60.084 256.642 57.9708 258.514 56.248C260.384 54.5275 262.488 54.9434 264.178 55.2785C265.763 55.5933 266.702 55.7323 267.542 54.9591C268.076 54.4706 268.899 54.4967 269.385 55.019C269.872 55.5406 269.835 56.3598 269.302 56.8474C267.432 58.5679 265.328 58.1521 263.638 57.817C262.053 57.5022 261.113 57.3639 260.274 58.1364C259.433 58.9096 259.501 59.8491 259.696 61.4415C259.904 63.1404 260.162 65.2536 258.29 66.9764C256.42 68.6969 254.318 68.2802 252.627 67.9451C251.043 67.6318 250.104 67.4913 249.265 68.2637C248.424 69.037 248.494 69.9756 248.689 71.568C248.897 73.2669 249.155 75.38 247.285 77.1021C246.946 77.4133 246.6 77.6543 246.25 77.8388L246.25 77.8373Z" fill="#FFD33C"/>
<g opacity="0.5">
<g filter="url(#filter1_d_11068_320054)">
<rect x="81" y="72" width="76" height="53" rx="6.32812" fill="white"/>
</g>
</g>
<g opacity="0.5">
<g filter="url(#filter2_d_11068_320054)">
<rect x="404" y="72" width="76" height="53" rx="6.32812" fill="white"/>
</g>
<circle cx="442.238" cy="98.2617" r="14.2383" fill="#43C53F"/>
<path d="M440.449 100.427L438.121 98.0986L437.328 98.8859L440.449 102.007L447.15 95.3068L446.362 94.5195L440.449 100.427Z" fill="white"/>
</g>
<circle cx="395.238" cy="166.238" r="14.2383" fill="#43C53F"/>
<path d="M393.449 168.404L391.121 166.075L390.328 166.863L393.449 169.984L400.15 163.283L399.362 162.496L393.449 168.404Z" fill="white"/>
<circle cx="395.238" cy="31.2383" r="14.2383" fill="#43C53F"/>
<path d="M393.449 33.4036L391.121 31.0752L390.328 31.8625L393.449 34.9838L400.15 28.2834L399.362 27.4961L393.449 33.4036Z" fill="white"/>
<g opacity="0.5">
<g filter="url(#filter3_d_11068_320054)">
<rect x="449" y="140" width="76" height="53" rx="6.32812" fill="white"/>
</g>
</g>
<g opacity="0.5">
<g filter="url(#filter4_d_11068_320054)">
<rect x="449" y="5" width="76" height="53" rx="6.32812" fill="white"/>
</g>
</g>
<g opacity="0.5">
<g filter="url(#filter5_d_11068_320054)">
<rect x="-58" y="140" width="76" height="53" rx="6.32812" fill="white"/>
</g>
</g>
<g opacity="0.5">
<g filter="url(#filter6_d_11068_320054)">
<rect x="-58" y="5" width="76" height="53" rx="6.32812" fill="white"/>
</g>
</g>
<g opacity="0.5">
<g filter="url(#filter7_d_11068_320054)">
<rect x="-11" y="72" width="76" height="53" rx="6.32812" fill="white"/>
</g>
<circle cx="25.2383" cy="98.2617" r="14.2383" fill="#FFDB60"/>
<mask id="path-20-outside-1_11068_320054" maskUnits="userSpaceOnUse" x="20.4105" y="90.4361" width="9.22767" height="7.29525" fill="black">
<rect fill="white" x="20.4105" y="90.4361" width="9.22767" height="7.29525"/>
<path fill-rule="evenodd" clip-rule="evenodd" d="M28.2709 97.3457C28.0347 97.3379 27.8495 97.1399 27.8573 96.9037L27.91 95.3209C27.9611 93.7839 26.7565 92.4965 25.2195 92.4454C23.6825 92.3943 22.3951 93.5988 22.344 95.1358L22.2914 96.7186C22.2835 96.9549 22.0856 97.14 21.8493 97.1322C21.6131 97.1243 21.4279 96.9264 21.4357 96.6901L21.4884 95.1074C21.5552 93.0978 23.2384 91.5229 25.248 91.5897C27.2575 91.6566 28.8324 93.3398 28.7656 95.3494L28.713 96.9321C28.7051 97.1684 28.5072 97.3536 28.2709 97.3457Z"/>
</mask>
<path fill-rule="evenodd" clip-rule="evenodd" d="M28.2709 97.3457C28.0347 97.3379 27.8495 97.1399 27.8573 96.9037L27.91 95.3209C27.9611 93.7839 26.7565 92.4965 25.2195 92.4454C23.6825 92.3943 22.3951 93.5988 22.344 95.1358L22.2914 96.7186C22.2835 96.9549 22.0856 97.14 21.8493 97.1322C21.6131 97.1243 21.4279 96.9264 21.4357 96.6901L21.4884 95.1074C21.5552 93.0978 23.2384 91.5229 25.248 91.5897C27.2575 91.6566 28.8324 93.3398 28.7656 95.3494L28.713 96.9321C28.7051 97.1684 28.5072 97.3536 28.2709 97.3457Z" fill="#0070F0"/>
<path d="M28.7656 95.3494L28.6801 95.3465L28.7656 95.3494ZM28.713 96.9321L28.6274 96.9293L28.713 96.9321ZM27.9429 96.9065L27.9955 95.3238L27.8244 95.3181L27.7718 96.9008L27.9429 96.9065ZM27.9955 95.3238C28.0482 93.7395 26.8066 92.4125 25.2224 92.3598L25.2167 92.531C26.7064 92.5805 27.874 93.8283 27.8244 95.3181L27.9955 95.3238ZM25.2224 92.3598C23.6381 92.3071 22.3111 93.5487 22.2585 95.133L22.4296 95.1387C22.4791 93.6489 23.727 92.4814 25.2167 92.531L25.2224 92.3598ZM22.2585 95.133L22.2058 96.7157L22.377 96.7214L22.4296 95.1387L22.2585 95.133ZM21.4028 95.1045L21.3502 96.6873L21.5213 96.693L21.5739 95.1102L21.4028 95.1045ZM25.2508 91.5042C23.194 91.4358 21.4712 93.0477 21.4028 95.1045L21.5739 95.1102C21.6392 93.1479 23.2829 91.6101 25.2451 91.6753L25.2508 91.5042ZM28.8512 95.3522C28.9196 93.2954 27.3077 91.5726 25.2508 91.5042L25.2451 91.6753C27.2074 91.7406 28.7453 93.3842 28.6801 95.3465L28.8512 95.3522ZM28.7986 96.935L28.8512 95.3522L28.6801 95.3465L28.6274 96.9293L28.7986 96.935ZM28.6274 96.9293C28.6211 97.1183 28.4628 97.2664 28.2738 97.2601L28.2681 97.4313C28.5516 97.4407 28.7891 97.2185 28.7986 96.935L28.6274 96.9293ZM22.2058 96.7157C22.1995 96.9048 22.0412 97.0529 21.8522 97.0466L21.8465 97.2177C22.13 97.2272 22.3675 97.005 22.377 96.7214L22.2058 96.7157ZM21.8522 97.0466C21.6632 97.0403 21.515 96.882 21.5213 96.693L21.3502 96.6873C21.3408 96.9708 21.563 97.2083 21.8465 97.2177L21.8522 97.0466ZM27.7718 96.9008C27.7624 97.1844 27.9846 97.4218 28.2681 97.4313L28.2738 97.2601C28.0848 97.2539 27.9366 97.0955 27.9429 96.9065L27.7718 96.9008Z" fill="#0070F0" mask="url(#path-20-outside-1_11068_320054)"/>
<path d="M20.3211 97.563C20.3293 97.0903 20.7192 96.7137 21.1919 96.7218L28.7549 96.8527C29.2276 96.8609 29.6042 97.2507 29.5961 97.7235L29.5229 101.953C29.4943 103.607 28.1297 104.925 26.4751 104.897L23.1921 104.84C21.5374 104.811 20.2193 103.447 20.248 101.792L20.3211 97.563Z" fill="#0070F0"/>
<circle cx="25.0572" cy="99.5291" r="0.764003" transform="rotate(-1.19845 25.0572 99.5291)" fill="white"/>
<path d="M24.5852 99.8377C24.6024 99.7126 24.708 99.6185 24.8343 99.6159L25.285 99.6064C25.4112 99.6038 25.5207 99.6934 25.5431 99.8177L25.9083 101.843C25.9363 101.999 25.8187 102.143 25.6609 102.146L24.565 102.169C24.4071 102.172 24.2836 102.033 24.3051 101.877L24.5852 99.8377Z" fill="white"/>
</g>
<g opacity="0.5">
<g filter="url(#filter8_d_11068_320054)">
<rect x="34" y="140" width="76" height="53" rx="6.32812" fill="white"/>
</g>
<circle cx="70.2383" cy="166.262" r="14.2383" fill="#FFDB60"/>
<mask id="path-27-outside-2_11068_320054" maskUnits="userSpaceOnUse" x="65.4105" y="158.436" width="9.22767" height="7.29525" fill="black">
<rect fill="white" x="65.4105" y="158.436" width="9.22767" height="7.29525"/>
<path fill-rule="evenodd" clip-rule="evenodd" d="M73.2709 165.346C73.0347 165.338 72.8495 165.14 72.8573 164.904L72.91 163.321C72.9611 161.784 71.7565 160.496 70.2195 160.445C68.6825 160.394 67.3951 161.599 67.344 163.136L67.2914 164.719C67.2835 164.955 67.0856 165.14 66.8493 165.132C66.6131 165.124 66.4279 164.926 66.4357 164.69L66.4884 163.107C66.5552 161.098 68.2384 159.523 70.248 159.59C72.2575 159.657 73.8324 161.34 73.7656 163.349L73.713 164.932C73.7051 165.168 73.5072 165.354 73.2709 165.346Z"/>
</mask>
<path fill-rule="evenodd" clip-rule="evenodd" d="M73.2709 165.346C73.0347 165.338 72.8495 165.14 72.8573 164.904L72.91 163.321C72.9611 161.784 71.7565 160.496 70.2195 160.445C68.6825 160.394 67.3951 161.599 67.344 163.136L67.2914 164.719C67.2835 164.955 67.0856 165.14 66.8493 165.132C66.6131 165.124 66.4279 164.926 66.4357 164.69L66.4884 163.107C66.5552 161.098 68.2384 159.523 70.248 159.59C72.2575 159.657 73.8324 161.34 73.7656 163.349L73.713 164.932C73.7051 165.168 73.5072 165.354 73.2709 165.346Z" fill="#0070F0"/>
<path d="M72.91 163.321L72.9955 163.324L72.91 163.321ZM73.7656 163.349L73.6801 163.347L73.7656 163.349ZM73.713 164.932L73.6274 164.929L73.713 164.932ZM72.8573 164.904L72.9429 164.907L72.8573 164.904ZM72.9429 164.907L72.9955 163.324L72.8244 163.318L72.7718 164.901L72.9429 164.907ZM72.9955 163.324C73.0482 161.74 71.8066 160.413 70.2224 160.36L70.2167 160.531C71.7064 160.58 72.874 161.828 72.8244 163.318L72.9955 163.324ZM70.2224 160.36C68.6381 160.307 67.3111 161.549 67.2585 163.133L67.4296 163.139C67.4791 161.649 68.727 160.481 70.2167 160.531L70.2224 160.36ZM67.2585 163.133L67.2058 164.716L67.377 164.721L67.4296 163.139L67.2585 163.133ZM66.4028 163.105L66.3502 164.687L66.5213 164.693L66.5739 163.11L66.4028 163.105ZM70.2508 159.504C68.194 159.436 66.4712 161.048 66.4028 163.105L66.5739 163.11C66.6392 161.148 68.2829 159.61 70.2451 159.675L70.2508 159.504ZM73.8512 163.352C73.9196 161.295 72.3077 159.573 70.2508 159.504L70.2451 159.675C72.2074 159.741 73.7453 161.384 73.6801 163.347L73.8512 163.352ZM73.7986 164.935L73.8512 163.352L73.6801 163.347L73.6274 164.929L73.7986 164.935ZM73.6274 164.929C73.6211 165.118 73.4628 165.266 73.2738 165.26L73.2681 165.431C73.5516 165.441 73.7891 165.218 73.7986 164.935L73.6274 164.929ZM67.2058 164.716C67.1995 164.905 67.0412 165.053 66.8522 165.047L66.8465 165.218C67.13 165.227 67.3675 165.005 67.377 164.721L67.2058 164.716ZM66.8522 165.047C66.6632 165.04 66.515 164.882 66.5213 164.693L66.3502 164.687C66.3408 164.971 66.563 165.208 66.8465 165.218L66.8522 165.047ZM72.7718 164.901C72.7624 165.184 72.9846 165.422 73.2681 165.431L73.2738 165.26C73.0848 165.254 72.9366 165.096 72.9429 164.907L72.7718 164.901Z" fill="#0070F0" mask="url(#path-27-outside-2_11068_320054)"/>
<path d="M65.3211 165.563C65.3293 165.09 65.7192 164.714 66.1919 164.722L73.7549 164.853C74.2276 164.861 74.6042 165.251 74.5961 165.723L74.5229 169.953C74.4943 171.607 73.1297 172.925 71.4751 172.897L68.1921 172.84C66.5374 172.811 65.2193 171.447 65.248 169.792L65.3211 165.563Z" fill="#0070F0"/>
<circle cx="70.0572" cy="167.529" r="0.764003" transform="rotate(-1.19845 70.0572 167.529)" fill="white"/>
<path d="M69.5852 167.838C69.6024 167.713 69.708 167.619 69.8343 167.616L70.285 167.606C70.4112 167.604 70.5207 167.693 70.5431 167.818L70.9083 169.843C70.9363 169.999 70.8187 170.143 70.6609 170.146L69.565 170.169C69.4071 170.172 69.2836 170.033 69.3051 169.877L69.5852 167.838Z" fill="white"/>
</g>
<g opacity="0.5">
<g filter="url(#filter9_d_11068_320054)">
<rect x="312" y="72" width="76" height="53" rx="6.32812" fill="white"/>
</g>
<circle cx="350.238" cy="98.2617" r="14.2383" fill="#43C53F"/>
<path d="M348.449 100.427L346.121 98.0986L345.328 98.8859L348.449 102.007L355.15 95.3068L354.362 94.5195L348.449 100.427Z" fill="white"/>
<circle cx="119.238" cy="98.2617" r="14.2383" fill="#FFDB60"/>
<mask id="path-36-outside-3_11068_320054" maskUnits="userSpaceOnUse" x="114.411" y="90.4361" width="9.22767" height="7.29525" fill="black">
<rect fill="white" x="114.411" y="90.4361" width="9.22767" height="7.29525"/>
<path fill-rule="evenodd" clip-rule="evenodd" d="M122.271 97.3457C122.035 97.3379 121.849 97.1399 121.857 96.9037L121.91 95.3209C121.961 93.7839 120.757 92.4965 119.22 92.4454C117.683 92.3943 116.395 93.5988 116.344 95.1358L116.291 96.7186C116.284 96.9549 116.086 97.14 115.849 97.1322C115.613 97.1243 115.428 96.9264 115.436 96.6901L115.488 95.1074C115.555 93.0978 117.238 91.5229 119.248 91.5897C121.258 91.6566 122.832 93.3398 122.766 95.3494L122.713 96.9321C122.705 97.1684 122.507 97.3536 122.271 97.3457Z"/>
</mask>
<path fill-rule="evenodd" clip-rule="evenodd" d="M122.271 97.3457C122.035 97.3379 121.849 97.1399 121.857 96.9037L121.91 95.3209C121.961 93.7839 120.757 92.4965 119.22 92.4454C117.683 92.3943 116.395 93.5988 116.344 95.1358L116.291 96.7186C116.284 96.9549 116.086 97.14 115.849 97.1322C115.613 97.1243 115.428 96.9264 115.436 96.6901L115.488 95.1074C115.555 93.0978 117.238 91.5229 119.248 91.5897C121.258 91.6566 122.832 93.3398 122.766 95.3494L122.713 96.9321C122.705 97.1684 122.507 97.3536 122.271 97.3457Z" fill="#0070F0"/>
<path d="M122.766 95.3494L122.68 95.3465L122.766 95.3494ZM122.713 96.9321L122.627 96.9293L122.713 96.9321ZM121.943 96.9065L121.996 95.3238L121.824 95.3181L121.772 96.9008L121.943 96.9065ZM121.996 95.3238C122.048 93.7395 120.807 92.4125 119.222 92.3598L119.217 92.531C120.706 92.5805 121.874 93.8283 121.824 95.3181L121.996 95.3238ZM119.222 92.3598C117.638 92.3071 116.311 93.5487 116.258 95.133L116.43 95.1387C116.479 93.6489 117.727 92.4814 119.217 92.531L119.222 92.3598ZM116.258 95.133L116.206 96.7157L116.377 96.7214L116.43 95.1387L116.258 95.133ZM115.403 95.1045L115.35 96.6873L115.521 96.693L115.574 95.1102L115.403 95.1045ZM119.251 91.5042C117.194 91.4358 115.471 93.0477 115.403 95.1045L115.574 95.1102C115.639 93.1479 117.283 91.6101 119.245 91.6753L119.251 91.5042ZM122.851 95.3522C122.92 93.2954 121.308 91.5726 119.251 91.5042L119.245 91.6753C121.207 91.7406 122.745 93.3842 122.68 95.3465L122.851 95.3522ZM122.799 96.935L122.851 95.3522L122.68 95.3465L122.627 96.9293L122.799 96.935ZM122.627 96.9293C122.621 97.1183 122.463 97.2664 122.274 97.2601L122.268 97.4313C122.552 97.4407 122.789 97.2185 122.799 96.935L122.627 96.9293ZM116.206 96.7157C116.2 96.9048 116.041 97.0529 115.852 97.0466L115.846 97.2177C116.13 97.2272 116.368 97.005 116.377 96.7214L116.206 96.7157ZM115.852 97.0466C115.663 97.0403 115.515 96.882 115.521 96.693L115.35 96.6873C115.341 96.9708 115.563 97.2083 115.846 97.2177L115.852 97.0466ZM121.772 96.9008C121.762 97.1844 121.985 97.4218 122.268 97.4313L122.274 97.2601C122.085 97.2539 121.937 97.0955 121.943 96.9065L121.772 96.9008Z" fill="#0070F0" mask="url(#path-36-outside-3_11068_320054)"/>
<path d="M114.321 97.563C114.329 97.0903 114.719 96.7137 115.192 96.7218L122.755 96.8527C123.228 96.8609 123.604 97.2507 123.596 97.7235L123.523 101.953C123.494 103.607 122.13 104.925 120.475 104.897L117.192 104.84C115.537 104.811 114.219 103.447 114.248 101.792L114.321 97.563Z" fill="#0070F0"/>
<circle cx="119.057" cy="99.5291" r="0.764003" transform="rotate(-1.19845 119.057 99.5291)" fill="white"/>
<path d="M118.585 99.8377C118.602 99.7126 118.708 99.6185 118.834 99.6159L119.285 99.6064C119.411 99.6038 119.521 99.6934 119.543 99.8177L119.908 101.843C119.936 101.999 119.819 102.143 119.661 102.146L118.565 102.169C118.407 102.172 118.284 102.033 118.305 101.877L118.585 99.8377Z" fill="white"/>
</g>
<g opacity="0.5">
<g filter="url(#filter10_d_11068_320054)">
<rect x="357" y="140" width="76" height="53" rx="6.32812" fill="white"/>
</g>
</g>
<g opacity="0.5">
<g filter="url(#filter11_d_11068_320054)">
<rect x="357" y="5" width="76" height="53" rx="6.32812" fill="white"/>
</g>
</g>
<g opacity="0.5">
<g filter="url(#filter12_d_11068_320054)">
<rect x="36" y="5" width="76" height="53" rx="6.32812" fill="white"/>
</g>
<circle cx="74.2383" cy="31.2383" r="14.2383" fill="#FFDB60"/>
<mask id="path-45-outside-4_11068_320054" maskUnits="userSpaceOnUse" x="69.4105" y="23.4126" width="9.22767" height="7.29525" fill="black">
<rect fill="white" x="69.4105" y="23.4126" width="9.22767" height="7.29525"/>
<path fill-rule="evenodd" clip-rule="evenodd" d="M77.2709 30.3223C77.0347 30.3144 76.8495 30.1165 76.8573 29.8802L76.91 28.2975C76.9611 26.7605 75.7565 25.4731 74.2195 25.4219C72.6825 25.3708 71.3951 26.5754 71.344 28.1124L71.2914 29.6951C71.2835 29.9314 71.0856 30.1166 70.8493 30.1087C70.6131 30.1009 70.4279 29.903 70.4357 29.6667L70.4884 28.0839C70.5552 26.0744 72.2384 24.4995 74.248 24.5663C76.2575 24.6331 77.8324 26.3164 77.7656 28.3259L77.713 29.9087C77.7051 30.145 77.5072 30.3301 77.2709 30.3223Z"/>
</mask>
<path fill-rule="evenodd" clip-rule="evenodd" d="M77.2709 30.3223C77.0347 30.3144 76.8495 30.1165 76.8573 29.8802L76.91 28.2975C76.9611 26.7605 75.7565 25.4731 74.2195 25.4219C72.6825 25.3708 71.3951 26.5754 71.344 28.1124L71.2914 29.6951C71.2835 29.9314 71.0856 30.1166 70.8493 30.1087C70.6131 30.1009 70.4279 29.903 70.4357 29.6667L70.4884 28.0839C70.5552 26.0744 72.2384 24.4995 74.248 24.5663C76.2575 24.6331 77.8324 26.3164 77.7656 28.3259L77.713 29.9087C77.7051 30.145 77.5072 30.3301 77.2709 30.3223Z" fill="#0070F0"/>
<path d="M76.91 28.2975L76.8244 28.2946L76.91 28.2975ZM70.4884 28.0839L70.5739 28.0868L70.4884 28.0839ZM77.7656 28.3259L77.6801 28.3231L77.7656 28.3259ZM77.713 29.9087L77.6274 29.9058L77.713 29.9087ZM76.8573 29.8802L76.7718 29.8774L76.8573 29.8802ZM76.9429 29.8831L76.9955 28.3003L76.8244 28.2946L76.7718 29.8774L76.9429 29.8831ZM76.9955 28.3003C77.0482 26.7161 75.8066 25.3891 74.2224 25.3364L74.2167 25.5075C75.7064 25.5571 76.874 26.8049 76.8244 28.2946L76.9955 28.3003ZM74.2224 25.3364C72.6381 25.2837 71.3111 26.5253 71.2585 28.1095L71.4296 28.1152C71.4791 26.6255 72.727 25.458 74.2167 25.5075L74.2224 25.3364ZM71.2585 28.1095L71.2058 29.6923L71.377 29.698L71.4296 28.1152L71.2585 28.1095ZM70.4028 28.0811L70.3502 29.6638L70.5213 29.6695L70.5739 28.0868L70.4028 28.0811ZM74.2508 24.4807C72.194 24.4123 70.4712 26.0243 70.4028 28.0811L70.5739 28.0868C70.6392 26.1245 72.2829 24.5866 74.2451 24.6519L74.2508 24.4807ZM77.8512 28.3288C77.9196 26.272 76.3077 24.5491 74.2508 24.4807L74.2451 24.6519C76.2074 24.7171 77.7453 26.3608 77.6801 28.3231L77.8512 28.3288ZM77.7986 29.9115L77.8512 28.3288L77.6801 28.3231L77.6274 29.9058L77.7986 29.9115ZM77.6274 29.9058C77.6211 30.0949 77.4628 30.243 77.2738 30.2367L77.2681 30.4078C77.5516 30.4173 77.7891 30.1951 77.7986 29.9115L77.6274 29.9058ZM71.2058 29.6923C71.1995 29.8813 71.0412 30.0295 70.8522 30.0232L70.8465 30.1943C71.13 30.2037 71.3675 29.9815 71.377 29.698L71.2058 29.6923ZM70.8522 30.0232C70.6632 30.0169 70.515 29.8586 70.5213 29.6695L70.3502 29.6638C70.3408 29.9474 70.563 30.1849 70.8465 30.1943L70.8522 30.0232ZM76.7718 29.8774C76.7624 30.1609 76.9846 30.3984 77.2681 30.4078L77.2738 30.2367C77.0848 30.2304 76.9366 30.0721 76.9429 29.8831L76.7718 29.8774Z" fill="#0070F0" mask="url(#path-45-outside-4_11068_320054)"/>
<path d="M69.3211 30.5396C69.3293 30.0668 69.7192 29.6902 70.1919 29.6984L77.7549 29.8293C78.2276 29.8374 78.6042 30.2273 78.5961 30.7001L78.5229 34.9292C78.4943 36.5838 77.1297 37.902 75.4751 37.8733L72.1921 37.8165C70.5374 37.7879 69.2193 36.4233 69.248 34.7687L69.3211 30.5396Z" fill="#0070F0"/>
<circle cx="74.0572" cy="32.5057" r="0.764003" transform="rotate(-1.19845 74.0572 32.5057)" fill="white"/>
<path d="M73.5852 32.8143C73.6024 32.6891 73.708 32.5951 73.8343 32.5924L74.285 32.583C74.4112 32.5804 74.5207 32.6699 74.5431 32.7942L74.9083 34.82C74.9363 34.9754 74.8187 35.1191 74.6609 35.1224L73.565 35.1453C73.4071 35.1486 73.2836 35.01 73.3051 34.8536L73.5852 32.8143Z" fill="white"/>
</g>
</g>
<defs>
<filter id="filter0_d_11068_320054" x="171.628" y="65.1007" width="73.6341" height="88.1888" filterUnits="userSpaceOnUse" color-interpolation-filters="sRGB">
<feFlood flood-opacity="0" result="BackgroundImageFix"/>
<feColorMatrix in="SourceAlpha" type="matrix" values="0 0 0 0 0 0 0 0 0 0 0 0 0 0 0 0 0 0 127 0" result="hardAlpha"/>
<feOffset dy="8.2849"/>
<feGaussianBlur stdDeviation="5.17806"/>
<feComposite in2="hardAlpha" operator="out"/>
<feColorMatrix type="matrix" values="0 0 0 0 0.419392 0 0 0 0 0.651792 0 0 0 0 0.845833 0 0 0 0.5 0"/>
<feBlend mode="normal" in2="BackgroundImageFix" result="effect1_dropShadow_11068_320054"/>
<feBlend mode="normal" in="SourceGraphic" in2="effect1_dropShadow_11068_320054" result="shape"/>
</filter>
<filter id="filter1_d_11068_320054" x="62.0156" y="59.3438" width="113.969" height="90.9688" filterUnits="userSpaceOnUse" color-interpolation-filters="sRGB">
<feFlood flood-opacity="0" result="BackgroundImageFix"/>
<feColorMatrix in="SourceAlpha" type="matrix" values="0 0 0 0 0 0 0 0 0 0 0 0 0 0 0 0 0 0 127 0" result="hardAlpha"/>
<feOffset dy="6.32812"/>
<feGaussianBlur stdDeviation="9.49219"/>
<feComposite in2="hardAlpha" operator="out"/>
<feColorMatrix type="matrix" values="0 0 0 0 0 0 0 0 0 0.294118 0 0 0 0 0.560784 0 0 0 0.1 0"/>
<feBlend mode="normal" in2="BackgroundImageFix" result="effect1_dropShadow_11068_320054"/>
<feBlend mode="normal" in="SourceGraphic" in2="effect1_dropShadow_11068_320054" result="shape"/>
</filter>
<filter id="filter2_d_11068_320054" x="385.016" y="59.3438" width="113.969" height="90.9688" filterUnits="userSpaceOnUse" color-interpolation-filters="sRGB">
<feFlood flood-opacity="0" result="BackgroundImageFix"/>
<feColorMatrix in="SourceAlpha" type="matrix" values="0 0 0 0 0 0 0 0 0 0 0 0 0 0 0 0 0 0 127 0" result="hardAlpha"/>
<feOffset dy="6.32812"/>
<feGaussianBlur stdDeviation="9.49219"/>
<feComposite in2="hardAlpha" operator="out"/>
<feColorMatrix type="matrix" values="0 0 0 0 0 0 0 0 0 0.294118 0 0 0 0 0.560784 0 0 0 0.1 0"/>
<feBlend mode="normal" in2="BackgroundImageFix" result="effect1_dropShadow_11068_320054"/>
<feBlend mode="normal" in="SourceGraphic" in2="effect1_dropShadow_11068_320054" result="shape"/>
</filter>
<filter id="filter3_d_11068_320054" x="430.016" y="127.344" width="113.969" height="90.9688" filterUnits="userSpaceOnUse" color-interpolation-filters="sRGB">
<feFlood flood-opacity="0" result="BackgroundImageFix"/>
<feColorMatrix in="SourceAlpha" type="matrix" values="0 0 0 0 0 0 0 0 0 0 0 0 0 0 0 0 0 0 127 0" result="hardAlpha"/>
<feOffset dy="6.32812"/>
<feGaussianBlur stdDeviation="9.49219"/>
<feComposite in2="hardAlpha" operator="out"/>
<feColorMatrix type="matrix" values="0 0 0 0 0 0 0 0 0 0.294118 0 0 0 0 0.560784 0 0 0 0.1 0"/>
<feBlend mode="normal" in2="BackgroundImageFix" result="effect1_dropShadow_11068_320054"/>
<feBlend mode="normal" in="SourceGraphic" in2="effect1_dropShadow_11068_320054" result="shape"/>
</filter>
<filter id="filter4_d_11068_320054" x="430.016" y="-7.65625" width="113.969" height="90.9688" filterUnits="userSpaceOnUse" color-interpolation-filters="sRGB">
<feFlood flood-opacity="0" result="BackgroundImageFix"/>
<feColorMatrix in="SourceAlpha" type="matrix" values="0 0 0 0 0 0 0 0 0 0 0 0 0 0 0 0 0 0 127 0" result="hardAlpha"/>
<feOffset dy="6.32812"/>
<feGaussianBlur stdDeviation="9.49219"/>
<feComposite in2="hardAlpha" operator="out"/>
<feColorMatrix type="matrix" values="0 0 0 0 0 0 0 0 0 0.294118 0 0 0 0 0.560784 0 0 0 0.1 0"/>
<feBlend mode="normal" in2="BackgroundImageFix" result="effect1_dropShadow_11068_320054"/>
<feBlend mode="normal" in="SourceGraphic" in2="effect1_dropShadow_11068_320054" result="shape"/>
</filter>
<filter id="filter5_d_11068_320054" x="-76.9844" y="127.344" width="113.969" height="90.9688" filterUnits="userSpaceOnUse" color-interpolation-filters="sRGB">
<feFlood flood-opacity="0" result="BackgroundImageFix"/>
<feColorMatrix in="SourceAlpha" type="matrix" values="0 0 0 0 0 0 0 0 0 0 0 0 0 0 0 0 0 0 127 0" result="hardAlpha"/>
<feOffset dy="6.32812"/>
<feGaussianBlur stdDeviation="9.49219"/>
<feComposite in2="hardAlpha" operator="out"/>
<feColorMatrix type="matrix" values="0 0 0 0 0 0 0 0 0 0.294118 0 0 0 0 0.560784 0 0 0 0.1 0"/>
<feBlend mode="normal" in2="BackgroundImageFix" result="effect1_dropShadow_11068_320054"/>
<feBlend mode="normal" in="SourceGraphic" in2="effect1_dropShadow_11068_320054" result="shape"/>
</filter>
<filter id="filter6_d_11068_320054" x="-76.9844" y="-7.65625" width="113.969" height="90.9688" filterUnits="userSpaceOnUse" color-interpolation-filters="sRGB">
<feFlood flood-opacity="0" result="BackgroundImageFix"/>
<feColorMatrix in="SourceAlpha" type="matrix" values="0 0 0 0 0 0 0 0 0 0 0 0 0 0 0 0 0 0 127 0" result="hardAlpha"/>
<feOffset dy="6.32812"/>
<feGaussianBlur stdDeviation="9.49219"/>
<feComposite in2="hardAlpha" operator="out"/>
<feColorMatrix type="matrix" values="0 0 0 0 0 0 0 0 0 0.294118 0 0 0 0 0.560784 0 0 0 0.1 0"/>
<feBlend mode="normal" in2="BackgroundImageFix" result="effect1_dropShadow_11068_320054"/>
<feBlend mode="normal" in="SourceGraphic" in2="effect1_dropShadow_11068_320054" result="shape"/>
</filter>
<filter id="filter7_d_11068_320054" x="-29.9844" y="59.3438" width="113.969" height="90.9688" filterUnits="userSpaceOnUse" color-interpolation-filters="sRGB">
<feFlood flood-opacity="0" result="BackgroundImageFix"/>
<feColorMatrix in="SourceAlpha" type="matrix" values="0 0 0 0 0 0 0 0 0 0 0 0 0 0 0 0 0 0 127 0" result="hardAlpha"/>
<feOffset dy="6.32812"/>
<feGaussianBlur stdDeviation="9.49219"/>
<feComposite in2="hardAlpha" operator="out"/>
<feColorMatrix type="matrix" values="0 0 0 0 0 0 0 0 0 0.294118 0 0 0 0 0.560784 0 0 0 0.1 0"/>
<feBlend mode="normal" in2="BackgroundImageFix" result="effect1_dropShadow_11068_320054"/>
<feBlend mode="normal" in="SourceGraphic" in2="effect1_dropShadow_11068_320054" result="shape"/>
</filter>
<filter id="filter8_d_11068_320054" x="15.0156" y="127.344" width="113.969" height="90.9688" filterUnits="userSpaceOnUse" color-interpolation-filters="sRGB">
<feFlood flood-opacity="0" result="BackgroundImageFix"/>
<feColorMatrix in="SourceAlpha" type="matrix" values="0 0 0 0 0 0 0 0 0 0 0 0 0 0 0 0 0 0 127 0" result="hardAlpha"/>
<feOffset dy="6.32812"/>
<feGaussianBlur stdDeviation="9.49219"/>
<feComposite in2="hardAlpha" operator="out"/>
<feColorMatrix type="matrix" values="0 0 0 0 0 0 0 0 0 0.294118 0 0 0 0 0.560784 0 0 0 0.1 0"/>
<feBlend mode="normal" in2="BackgroundImageFix" result="effect1_dropShadow_11068_320054"/>
<feBlend mode="normal" in="SourceGraphic" in2="effect1_dropShadow_11068_320054" result="shape"/>
</filter>
<filter id="filter9_d_11068_320054" x="293.016" y="59.3438" width="113.969" height="90.9688" filterUnits="userSpaceOnUse" color-interpolation-filters="sRGB">
<feFlood flood-opacity="0" result="BackgroundImageFix"/>
<feColorMatrix in="SourceAlpha" type="matrix" values="0 0 0 0 0 0 0 0 0 0 0 0 0 0 0 0 0 0 127 0" result="hardAlpha"/>
<feOffset dy="6.32812"/>
<feGaussianBlur stdDeviation="9.49219"/>
<feComposite in2="hardAlpha" operator="out"/>
<feColorMatrix type="matrix" values="0 0 0 0 0 0 0 0 0 0.294118 0 0 0 0 0.560784 0 0 0 0.1 0"/>
<feBlend mode="normal" in2="BackgroundImageFix" result="effect1_dropShadow_11068_320054"/>
<feBlend mode="normal" in="SourceGraphic" in2="effect1_dropShadow_11068_320054" result="shape"/>
</filter>
<filter id="filter10_d_11068_320054" x="338.016" y="127.344" width="113.969" height="90.9688" filterUnits="userSpaceOnUse" color-interpolation-filters="sRGB">
<feFlood flood-opacity="0" result="BackgroundImageFix"/>
<feColorMatrix in="SourceAlpha" type="matrix" values="0 0 0 0 0 0 0 0 0 0 0 0 0 0 0 0 0 0 127 0" result="hardAlpha"/>
<feOffset dy="6.32812"/>
<feGaussianBlur stdDeviation="9.49219"/>
<feComposite in2="hardAlpha" operator="out"/>
<feColorMatrix type="matrix" values="0 0 0 0 0 0 0 0 0 0.294118 0 0 0 0 0.560784 0 0 0 0.1 0"/>
<feBlend mode="normal" in2="BackgroundImageFix" result="effect1_dropShadow_11068_320054"/>
<feBlend mode="normal" in="SourceGraphic" in2="effect1_dropShadow_11068_320054" result="shape"/>
</filter>
<filter id="filter11_d_11068_320054" x="338.016" y="-7.65625" width="113.969" height="90.9688" filterUnits="userSpaceOnUse" color-interpolation-filters="sRGB">
<feFlood flood-opacity="0" result="BackgroundImageFix"/>
<feColorMatrix in="SourceAlpha" type="matrix" values="0 0 0 0 0 0 0 0 0 0 0 0 0 0 0 0 0 0 127 0" result="hardAlpha"/>
<feOffset dy="6.32812"/>
<feGaussianBlur stdDeviation="9.49219"/>
<feComposite in2="hardAlpha" operator="out"/>
<feColorMatrix type="matrix" values="0 0 0 0 0 0 0 0 0 0.294118 0 0 0 0 0.560784 0 0 0 0.1 0"/>
<feBlend mode="normal" in2="BackgroundImageFix" result="effect1_dropShadow_11068_320054"/>
<feBlend mode="normal" in="SourceGraphic" in2="effect1_dropShadow_11068_320054" result="shape"/>
</filter>
<filter id="filter12_d_11068_320054" x="17.0156" y="-7.65625" width="113.969" height="90.9688" filterUnits="userSpaceOnUse" color-interpolation-filters="sRGB">
<feFlood flood-opacity="0" result="BackgroundImageFix"/>
<feColorMatrix in="SourceAlpha" type="matrix" values="0 0 0 0 0 0 0 0 0 0 0 0 0 0 0 0 0 0 127 0" result="hardAlpha"/>
<feOffset dy="6.32812"/>
<feGaussianBlur stdDeviation="9.49219"/>
<feComposite in2="hardAlpha" operator="out"/>
<feColorMatrix type="matrix" values="0 0 0 0 0 0 0 0 0 0.294118 0 0 0 0 0.560784 0 0 0 0.1 0"/>
<feBlend mode="normal" in2="BackgroundImageFix" result="effect1_dropShadow_11068_320054"/>
<feBlend mode="normal" in="SourceGraphic" in2="effect1_dropShadow_11068_320054" result="shape"/>
</filter>
<linearGradient id="paint0_linear_11068_320054" x1="368.107" y1="-32.8779" x2="200.799" y2="848.122" gradientUnits="userSpaceOnUse">
<stop stop-color="white"/>
<stop offset="1" stop-color="#72C9FF"/>
</linearGradient>
<clipPath id="clip0_11068_320054">
<rect width="464" height="200" fill="white"/>
</clipPath>
</defs>
</svg>
