<svg width="20" height="20" viewBox="0 0 20 20" fill="none" xmlns="http://www.w3.org/2000/svg">
<path d="M3.7264 17.087H16.2764C17.5597 17.087 18.3597 15.6953 17.7181 14.587L11.4431 3.74531C10.8014 2.63698 9.2014 2.63698 8.55974 3.74531L2.28474 14.587C1.64307 15.6953 2.44307 17.087 3.7264 17.087ZM10.0014 11.2536C9.54307 11.2536 9.16807 10.8786 9.16807 10.4203V8.75365C9.16807 8.29531 9.54307 7.92031 10.0014 7.92031C10.4597 7.92031 10.8347 8.29531 10.8347 8.75365V10.4203C10.8347 10.8786 10.4597 11.2536 10.0014 11.2536ZM10.8347 14.587H9.16807V12.9203H10.8347V14.587Z" fill="#D97706"/>
</svg>
