<svg width="161" height="160" viewBox="0 0 161 160" fill="none" xmlns="http://www.w3.org/2000/svg">
<mask id="mask0_8564_326595" style="mask-type:alpha" maskUnits="userSpaceOnUse" x="0" y="0" width="161" height="160">
<circle cx="80.5" cy="80" r="80" fill="#D9D9D9"/>
</mask>
<g mask="url(#mask0_8564_326595)">
<mask id="mask1_8564_326595" style="mask-type:alpha" maskUnits="userSpaceOnUse" x="-79" y="-32" width="320" height="319">
<circle cx="80.9788" cy="127.088" r="159.088" fill="#D9D9D9"/>
</mask>
<g mask="url(#mask1_8564_326595)">
<g opacity="0.393">
<path opacity="0.393" d="M129.552 133.497V134.285C129.552 134.442 129.615 134.592 129.726 134.703C129.836 134.814 129.987 134.876 130.144 134.876C130.301 134.876 130.451 134.814 130.562 134.703C130.673 134.592 130.735 134.442 130.735 134.285V133.497H131.522C131.676 133.492 131.822 133.428 131.929 133.317C132.036 133.207 132.096 133.059 132.096 132.906C132.096 132.752 132.036 132.604 131.929 132.494C131.822 132.383 131.676 132.319 131.522 132.314H130.735V131.538C130.735 131.381 130.673 131.23 130.562 131.119C130.451 131.009 130.301 130.946 130.144 130.946C129.987 130.946 129.836 131.009 129.726 131.119C129.615 131.23 129.552 131.381 129.552 131.538V132.314H128.776C128.619 132.314 128.468 132.376 128.357 132.487C128.247 132.598 128.184 132.748 128.184 132.905C128.184 133.062 128.247 133.213 128.357 133.324C128.468 133.435 128.619 133.497 128.776 133.497H129.552ZM99.2183 121.709V122.497C99.2183 122.654 99.2806 122.804 99.3916 122.915C99.5025 123.026 99.653 123.088 99.8099 123.088C99.9668 123.088 100.117 123.026 100.228 122.915C100.339 122.804 100.401 122.654 100.401 122.497V121.708H101.189C101.343 121.704 101.488 121.639 101.596 121.529C101.703 121.419 101.762 121.271 101.762 121.117C101.762 120.963 101.703 120.816 101.596 120.705C101.488 120.595 101.343 120.53 101.189 120.526H100.401V119.749C100.401 119.592 100.339 119.442 100.228 119.331C100.117 119.22 99.9668 119.158 99.8099 119.158C99.653 119.158 99.5025 119.22 99.3916 119.331C99.2806 119.442 99.2183 119.592 99.2183 119.749V120.525H98.4418C98.2849 120.525 98.1344 120.588 98.0235 120.699C97.9125 120.809 97.8502 120.96 97.8502 121.117C97.8502 121.274 97.9125 121.424 98.0235 121.535C98.1344 121.646 98.2849 121.708 98.4418 121.708H99.2189L99.2183 121.709Z" fill="url(#paint0_linear_8564_326595)"/>
</g>
<path d="M80.8246 222.576C111.687 222.576 136.706 181.627 136.706 131.114C136.706 80.6015 111.687 39.6528 80.8246 39.6528C49.9624 39.6528 24.9436 80.6015 24.9436 131.114C24.9436 181.627 49.9624 222.576 80.8246 222.576Z" fill="url(#paint1_linear_8564_326595)" stroke="url(#paint2_linear_8564_326595)" stroke-width="0.313785"/>
<path d="M59.2817 73.2318C58.9855 73.242 58.7027 73.3581 58.485 73.5593L55.3253 76.4674C55.2052 76.5779 55.1082 76.711 55.0396 76.8591C54.971 77.0071 54.9322 77.1673 54.9255 77.3303C54.9188 77.4933 54.9442 77.6561 55.0004 77.8093C55.0566 77.9625 55.1424 78.1031 55.253 78.2232C55.3635 78.3432 55.4966 78.4403 55.6447 78.5089C55.7927 78.5775 55.9529 78.6163 56.1159 78.623C56.4452 78.6365 56.7664 78.5187 57.0088 78.2955L58.2492 77.1539V94.7149C58.2492 95.0024 58.3634 95.2781 58.5667 95.4814C58.77 95.6847 59.0458 95.7989 59.3333 95.7989C59.6208 95.7989 59.8965 95.6847 60.0998 95.4814C60.3031 95.2781 60.4173 95.0024 60.4173 94.7149V77.1539L61.6577 78.296C61.9002 78.5193 62.2215 78.6371 62.5508 78.6234C62.8802 78.6098 63.1906 78.466 63.4138 78.2235C63.6371 77.981 63.7549 77.6597 63.7412 77.3304C63.7276 77.001 63.5838 76.6906 63.3413 76.4674L60.1816 73.5587C59.9637 73.358 59.6809 73.2422 59.3848 73.2324C59.3679 73.2313 59.3505 73.2318 59.3335 73.2318H59.2817Z" fill="url(#paint3_linear_8564_326595)"/>
<path d="M133.475 155.409C135.804 157.155 136.051 163.413 134.217 174.181H-3.38971C-3.36336 174.014 -3.32395 173.849 -3.27184 173.688C-2.93165 172.722 -2.35121 171.858 -1.58515 171.179C-0.819103 170.499 0.107347 170.025 1.10696 169.802C3.09335 169.34 4.15422 169.191 5.9136 170.226C4.9893 168.431 4.62457 166.401 4.86657 164.397C5.10857 162.393 5.94618 160.508 7.27108 158.985C8.59598 157.462 10.3472 156.372 12.2985 155.855C14.2497 155.338 16.3111 155.418 18.2161 156.085C21.0079 157.103 23.3187 159.127 24.6948 161.761C24.6542 160.595 24.8841 159.435 25.3666 158.372C25.849 157.309 26.5709 156.373 27.4758 155.636C28.8156 154.664 30.4292 154.142 32.0844 154.145C33.7397 154.148 35.3513 154.676 36.6874 155.653C36.8981 155.815 37.0978 155.99 37.2855 156.177C37.1333 155.949 36.9936 155.713 36.8664 155.47C35.3166 152.488 35.954 148.541 38.1761 145.974C40.5772 143.198 44.502 141.997 48.1474 142.43C51.7927 142.866 55.294 145.176 57.9571 147.699C76.8737 141.587 77.4849 75.7173 77.4849 75.7173L81.008 74.6433L84.5355 75.7173C84.5355 75.7173 85.1423 141.587 104.063 147.699C106.726 145.176 110.228 142.866 113.873 142.43C117.518 141.997 121.443 143.198 123.844 145.974C126.245 148.751 126.795 153.139 124.73 156.177C126.108 154.861 129.982 152.789 133.475 155.409Z" fill="url(#paint4_linear_8564_326595)"/>
<path opacity="0.888" d="M62.7122 149.009C77.7105 142.897 78.1951 77.0271 78.1951 77.0271L80.9886 75.9531L83.7854 77.0271C83.7854 77.0271 84.2667 142.897 99.2683 149.009C101.646 149.079 66.686 149.079 62.7122 149.009Z" fill="url(#paint5_linear_8564_326595)"/>
<path opacity="0.9" d="M68.1696 149.276C78.704 143.164 79.0445 77.2947 79.0445 77.2947L81.0063 76.2207L82.9709 77.2947C82.9709 77.2947 83.3093 143.164 93.8459 149.276C95.5157 149.346 70.9609 149.346 68.1701 149.276H68.1696Z" fill="url(#paint6_linear_8564_326595)"/>
<path d="M147.995 170.53H70.9469C71.3987 166.482 73.1865 162.519 76.756 160.684C78.889 159.648 81.3027 159.341 83.6271 159.808C85.9516 160.276 88.0584 161.494 89.6245 163.274C87.7789 154.938 94.1359 145.724 102.579 144.479C111.021 143.239 119.761 150.235 120.394 158.747C120.666 154.98 124.693 151.959 128.385 152.752C132.072 153.544 134.503 157.954 133.204 161.497C136.588 158.444 142.35 158.55 145.621 161.726C146.73 162.873 147.53 164.282 147.945 165.822C148.36 167.362 148.377 168.982 147.994 170.53H147.995Z" fill="#56C4FF"/>
<path d="M18.785 172.647H82.0134C81.6423 169.324 80.1754 166.072 77.246 164.566C75.4956 163.716 73.5147 163.463 71.6071 163.848C69.6996 164.232 67.9706 165.231 66.6854 166.692C68.2003 159.851 62.9833 152.289 56.0549 151.268C49.1266 150.25 41.9537 155.991 41.4342 162.976C41.2116 159.886 37.9067 157.406 34.8769 158.056C31.8515 158.707 29.8564 162.326 30.9216 165.234C28.145 162.728 23.417 162.815 20.7321 165.421C19.8218 166.362 19.1655 167.518 18.8249 168.782C18.4843 170.046 18.4706 171.376 18.785 172.647Z" fill="#7BD0FF"/>
<path d="M63.7424 141.379C63.7424 140.993 63.4297 140.68 63.0439 140.68C62.6581 140.68 62.3454 140.993 62.3454 141.379V157.445C62.3454 157.83 62.6581 158.143 63.0439 158.143C63.4297 158.143 63.7424 157.83 63.7424 157.445V141.379Z" fill="url(#paint7_linear_8564_326595)"/>
<path d="M36.1863 152.791C36.1863 152.188 36.6749 151.699 37.2777 151.699C37.8805 151.699 38.3691 152.188 38.3691 152.791V177.894C38.3691 178.496 37.8805 178.985 37.2777 178.985C36.6749 178.985 36.1863 178.496 36.1863 177.894V152.791Z" fill="url(#paint8_linear_8564_326595)"/>
<path d="M47.9983 136.834C47.9983 136.448 47.6855 136.135 47.2998 136.135C46.914 136.135 46.6013 136.448 46.6013 136.834V152.9C46.6013 153.286 46.914 153.598 47.2998 153.598C47.6855 153.598 47.9983 153.286 47.9983 152.9V136.834Z" fill="url(#paint9_linear_8564_326595)"/>
<path fill-rule="evenodd" clip-rule="evenodd" d="M71.0536 67.4414C71.0536 67.4414 68.3161 73.2693 63.8457 85.2723C63.6583 85.7749 64.1384 86.2341 64.6519 86.4031C66.2787 80.5492 68.9501 75.1621 71.6499 69.7875L71.0536 67.4414Z" fill="white"/>
<path fill-rule="evenodd" clip-rule="evenodd" d="M64.6252 86.3786C64.7607 86.423 64.8987 86.4489 65.0267 86.4489H65.4315C65.8446 86.4489 66.226 86.2147 66.451 85.8275C67.8829 83.3484 70.2842 80.4637 74.0487 79.312L71.6232 69.763C68.9225 75.1368 66.2519 80.524 64.6252 86.3786ZM95.3481 85.8275C93.9162 83.3484 91.5158 80.4637 87.7512 79.3112L90.7722 67.417C90.7722 67.417 93.5097 73.2441 97.9818 85.247C98.2177 85.8827 97.388 86.4489 96.7716 86.4489H96.3676C95.9545 86.4489 95.5731 86.2147 95.3481 85.8275ZM84.3421 82.824H77.1684C76.8857 82.824 76.6398 82.6049 76.5771 82.2971L76.184 80.355C76.0979 79.9318 76.3856 79.5287 76.7745 79.5287H84.7369C85.125 79.5287 85.4144 79.9318 85.3274 80.355L84.9343 82.2963C84.8707 82.6049 84.6256 82.8232 84.3421 82.8232" fill="#529BD2"/>
<path fill-rule="evenodd" clip-rule="evenodd" d="M70.4236 62.8435C70.4236 62.8435 71.5251 74.1389 74.9275 81.2966C74.9275 81.2966 80.333 78.3894 86.7389 81.2966C86.7389 81.2966 90.6431 75.258 91.4444 61.9477C91.9052 54.2798 91.3541 45.5237 89.0808 37.9795H73.2037C71.091 44.1252 69.5872 52.3778 70.4236 62.8435Z" fill="white"/>
<path fill-rule="evenodd" clip-rule="evenodd" d="M90.9365 46.954C90.5309 43.8803 89.9186 40.8551 89.0597 38.0039H73.1826C71.0699 44.1488 69.5644 52.4014 70.4016 62.8671C70.4016 62.8671 70.7755 66.691 71.7566 71.297C81.2203 67.3325 88.1489 57.7978 90.9365 46.954Z" fill="white"/>
<path fill-rule="evenodd" clip-rule="evenodd" d="M71.7584 71.2966C72.4643 74.6095 73.483 78.3272 74.9073 81.3215C74.9073 81.3215 80.3129 78.4134 86.7188 81.3215C86.7188 81.3215 90.6222 75.2828 91.4234 61.9734C91.7103 57.2027 91.6049 52.0121 90.9375 46.9536C88.1498 57.799 81.2212 67.3338 71.7584 71.2966Z" fill="#E7F6FF"/>
<path fill-rule="evenodd" clip-rule="evenodd" d="M81.238 25.0494C80.6634 25.0076 80.0771 25.2434 79.6648 25.7645C78.0681 27.7827 75.3298 31.8291 73.2062 38.0041H82.5035C82.7544 37.611 82.9443 37.1519 83.0572 36.6475C83.4595 32.3795 82.777 28.5154 81.238 25.0494Z" fill="#71C9FF"/>
<path fill-rule="evenodd" clip-rule="evenodd" d="M78.8659 32.9754C79.9799 31.0918 80.4032 29.21 79.811 28.7725C79.2172 28.3343 77.8338 29.5061 76.7189 31.3896C75.6048 33.2731 75.1824 35.1542 75.7754 35.5924C76.3676 36.0307 77.7518 34.8589 78.8659 32.9745" fill="white"/>
<path fill-rule="evenodd" clip-rule="evenodd" d="M82.3918 25.6142C82.0573 25.2604 81.6391 25.0806 81.215 25.0488C82.754 28.5148 83.4365 32.3789 83.0342 36.647C82.93 37.128 82.7426 37.5871 82.4805 38.0036H89.0603C87.605 33.176 85.4471 28.8435 82.3918 25.6142Z" fill="#529BD2"/>
<path fill-rule="evenodd" clip-rule="evenodd" d="M80.5576 62.4875C79.9771 64.1344 77.3542 72.3928 79.0964 82.8677C81.0845 76.3489 81.1406 69.4187 80.5576 62.4875Z" fill="white"/>
<path fill-rule="evenodd" clip-rule="evenodd" d="M80.6348 62.3206C80.6348 62.3206 80.593 62.4276 80.5235 62.6242C81.1065 69.5544 81.0505 76.4856 79.0624 83.0043C79.1937 83.7964 79.3501 84.601 79.5341 85.4156C79.6713 86.0212 80.1564 86.4494 80.7159 86.4494C81.2637 86.4494 81.7413 86.0404 81.8877 85.4508C83.0728 80.6767 84.1928 72.0485 80.6348 62.3206Z" fill="#529BD2"/>
<path fill-rule="evenodd" clip-rule="evenodd" d="M87.9807 50.8239C87.9807 52.6392 87.2596 54.3802 85.976 55.6638C84.6924 56.9474 82.9514 57.6685 81.1362 57.6685C79.3209 57.6685 77.5799 56.9474 76.2963 55.6638C75.0127 54.3802 74.2916 52.6392 74.2916 50.8239C74.2816 49.9187 74.4513 49.0205 74.7907 48.1813C75.1302 47.3422 75.6328 46.5786 76.2694 45.935C76.9059 45.2913 77.6638 44.7804 78.4992 44.4316C79.3346 44.0829 80.2309 43.9033 81.1362 43.9033C82.0414 43.9033 82.9377 44.0829 83.7731 44.4316C84.6085 44.7804 85.3664 45.2913 86.003 45.935C86.6395 46.5786 87.1421 47.3422 87.4816 48.1813C87.8211 49.0205 87.9907 49.9187 87.9807 50.8239Z" fill="#91D5FF"/>
<path fill-rule="evenodd" clip-rule="evenodd" d="M85.889 50.8236C85.889 52.084 85.3883 53.2927 84.4971 54.184C83.6058 55.0752 82.3971 55.5759 81.1367 55.5759C79.8763 55.5759 78.6675 55.0752 77.7763 54.184C76.885 53.2927 76.3843 52.084 76.3843 50.8236C76.4009 49.5742 76.9089 48.3816 77.7982 47.504C78.6876 46.6264 79.8868 46.1343 81.1363 46.1343C82.3857 46.1343 83.5849 46.6264 84.4743 47.504C85.3637 48.3816 85.8716 49.5742 85.8882 50.8236" fill="#214A81"/>
<path fill-rule="evenodd" clip-rule="evenodd" d="M81.4822 46.0908C80.1683 48.7547 79.0048 51.4487 77.6867 54.0866C78.2792 54.7115 79.0302 55.1639 79.8596 55.3956C80.9612 52.4281 82.2567 49.5877 83.6167 46.7767C82.9705 46.3802 82.2384 46.1449 81.4822 46.0908Z" fill="#3464A3"/>
<path fill-rule="evenodd" clip-rule="evenodd" d="M83.6168 46.776C82.2569 49.5871 80.9613 52.4275 79.8598 55.3949C80.2655 55.5087 80.6929 55.5756 81.1361 55.5756C82.3965 55.5756 83.6053 55.0749 84.4965 54.1837C85.3878 53.2924 85.8885 52.0837 85.8885 50.8233C85.8887 50.0104 85.68 49.211 85.2821 48.5021C84.8843 47.7932 84.3108 47.1985 83.6168 46.7752V46.776ZM81.1361 46.0718C79.876 46.0718 78.6674 46.5724 77.7763 47.4635C76.8852 48.3545 76.3846 49.5631 76.3846 50.8233C76.3846 52.0879 76.8814 53.2346 77.6869 54.0852C79.005 51.4481 80.1684 48.7532 81.4824 46.0893C81.3678 46.081 81.2532 46.0726 81.1361 46.0726" fill="#214A81"/>
<path d="M112.241 98.8736C111.649 98.8945 111.083 99.1268 110.647 99.5284L104.328 105.345C103.843 105.791 103.555 106.412 103.528 107.071C103.501 107.729 103.736 108.372 104.183 108.857C104.629 109.342 105.25 109.63 105.909 109.657C106.568 109.684 107.21 109.449 107.695 109.002L110.176 106.718V211.691C110.176 212.266 110.404 212.818 110.811 213.225C111.218 213.631 111.769 213.86 112.344 213.86C112.919 213.86 113.471 213.631 113.877 213.225C114.284 212.818 114.512 212.266 114.512 211.691V106.718L116.993 109.002C117.478 109.448 118.12 109.684 118.779 109.657C119.438 109.629 120.059 109.342 120.505 108.857C120.951 108.372 121.187 107.729 121.16 107.07C121.132 106.412 120.844 105.791 120.359 105.345L114.04 99.5279C113.604 99.1263 113.039 98.8941 112.447 98.873H112.241V98.8736Z" fill="url(#paint10_linear_8564_326595)"/>
<path opacity="0.876" d="M121.86 136.834C121.86 136.448 121.547 136.135 121.161 136.135C120.776 136.135 120.463 136.448 120.463 136.834V152.9C120.463 153.285 120.776 153.598 121.161 153.598C121.547 153.598 121.86 153.285 121.86 152.9V136.834Z" fill="url(#paint11_linear_8564_326595)"/>
<path opacity="0.876" d="M132.774 153.205C132.774 152.819 132.461 152.506 132.075 152.506C131.69 152.506 131.377 152.819 131.377 153.205V169.27C131.377 169.656 131.69 169.969 132.075 169.969C132.461 169.969 132.774 169.656 132.774 169.27V153.205Z" fill="url(#paint12_linear_8564_326595)"/>
<path opacity="0.876" d="M101.343 147.987C101.343 147.385 101.832 146.896 102.435 146.896C103.037 146.896 103.526 147.385 103.526 147.987V173.09C103.526 173.693 103.037 174.182 102.435 174.182C101.832 174.182 101.343 173.693 101.343 173.09V147.987Z" fill="url(#paint13_linear_8564_326595)"/>
<path d="M103.462 59.6787V60.7729C103.462 60.9909 103.548 61.1999 103.702 61.354C103.856 61.5082 104.065 61.5947 104.283 61.5947C104.501 61.5947 104.71 61.5082 104.865 61.354C105.019 61.1999 105.105 60.9909 105.105 60.7729V59.6787H106.198C106.412 59.6732 106.616 59.5842 106.765 59.4308C106.915 59.2773 106.998 59.0715 106.998 58.8572C106.998 58.6429 106.915 58.4371 106.765 58.2836C106.616 58.1301 106.412 58.0411 106.198 58.0356H105.105V56.9578C105.105 56.7399 105.019 56.5308 104.865 56.3767C104.71 56.2226 104.501 56.136 104.283 56.136C104.065 56.136 103.856 56.2226 103.702 56.3767C103.548 56.5308 103.462 56.7399 103.462 56.9578V58.0351H102.383C102.165 58.0351 101.956 58.1216 101.802 58.2757C101.648 58.4298 101.562 58.6387 101.562 58.8566C101.562 59.0745 101.648 59.2835 101.802 59.4376C101.956 59.5916 102.165 59.6782 102.383 59.6782H103.462V59.6787ZM136.204 86.9644V88.0585C136.204 88.2765 136.291 88.4855 136.445 88.6397C136.599 88.7938 136.808 88.8804 137.026 88.8804C137.244 88.8804 137.453 88.7938 137.607 88.6397C137.761 88.4855 137.848 88.2765 137.848 88.0585V86.9644H138.941C139.155 86.9588 139.358 86.8699 139.508 86.7164C139.658 86.5629 139.741 86.3571 139.741 86.1428C139.741 85.9285 139.658 85.7227 139.508 85.5692C139.358 85.4157 139.155 85.3268 138.941 85.3212H137.848V84.2434C137.848 84.0255 137.761 83.8164 137.607 83.6623C137.453 83.5082 137.244 83.4216 137.026 83.4216C136.808 83.4216 136.599 83.5082 136.445 83.6623C136.291 83.8164 136.204 84.0255 136.204 84.2434V85.3207H135.126C134.908 85.3207 134.699 85.4072 134.545 85.5613C134.391 85.7154 134.304 85.9244 134.304 86.1423C134.304 86.3601 134.391 86.5691 134.545 86.7232C134.699 86.8773 134.908 86.9638 135.126 86.9638H136.204V86.9644ZM49.2003 66.8319V67.9261C49.2058 68.1403 49.2948 68.3439 49.4483 68.4935C49.6018 68.6431 49.8076 68.7268 50.0219 68.7268C50.2362 68.7268 50.442 68.6431 50.5955 68.4935C50.7489 68.3439 50.8379 68.1403 50.8434 67.9261V66.8319H51.9365C52.1492 66.8242 52.3505 66.7343 52.4982 66.5811C52.6459 66.4279 52.7284 66.2234 52.7284 66.0107C52.7284 65.7979 52.6459 65.5934 52.4982 65.4402C52.3505 65.287 52.1492 65.1971 51.9365 65.1894H50.8434V64.111C50.8434 63.8931 50.7569 63.6842 50.6028 63.5301C50.4487 63.376 50.2398 63.2895 50.0219 63.2895C49.804 63.2895 49.595 63.376 49.4409 63.5301C49.2869 63.6842 49.2003 63.8931 49.2003 64.111V65.1888H48.122C47.9042 65.1888 47.6953 65.2753 47.5412 65.4294C47.3872 65.5834 47.3007 65.7923 47.3007 66.0101C47.3007 66.2279 47.3872 66.4368 47.5412 66.5909C47.6953 66.7449 47.9042 66.8314 48.122 66.8314H49.2003V66.8319ZM34.1577 137.71V138.804C34.1633 139.018 34.2522 139.222 34.4057 139.371C34.5592 139.521 34.765 139.604 34.9793 139.604C35.1936 139.604 35.3994 139.521 35.5529 139.371C35.7064 139.222 35.7954 139.018 35.8009 138.804V137.71H36.8939C37.1066 137.702 37.3079 137.612 37.4556 137.459C37.6033 137.306 37.6858 137.101 37.6858 136.888C37.6858 136.676 37.6033 136.471 37.4556 136.318C37.3079 136.165 37.1066 136.075 36.8939 136.067H35.8009V134.989C35.8009 134.771 35.7143 134.562 35.5603 134.408C35.4062 134.254 35.1972 134.167 34.9793 134.167C34.7614 134.167 34.5524 134.254 34.3984 134.408C34.2443 134.562 34.1577 134.771 34.1577 134.989V136.066H33.0794C32.8616 136.066 32.6527 136.153 32.4987 136.307C32.3446 136.461 32.2581 136.67 32.2581 136.888C32.2581 137.106 32.3446 137.314 32.4987 137.469C32.6527 137.623 32.8616 137.709 33.0794 137.709H34.1577V137.71ZM65.6421 110.651V111.745C65.6421 111.963 65.7287 112.172 65.8828 112.326C66.0369 112.48 66.246 112.567 66.4639 112.567C66.6819 112.567 66.8909 112.48 67.0451 112.326C67.1992 112.172 67.2858 111.963 67.2858 111.745V110.651H68.3783C68.5925 110.645 68.7961 110.557 68.9457 110.403C69.0952 110.25 69.1789 110.044 69.1789 109.829C69.1789 109.615 69.0952 109.409 68.9457 109.256C68.7961 109.102 68.5925 109.013 68.3783 109.008H67.2858V107.93C67.2858 107.712 67.1992 107.503 67.0451 107.349C66.8909 107.195 66.6819 107.108 66.4639 107.108C66.246 107.108 66.0369 107.195 65.8828 107.349C65.7287 107.503 65.6421 107.712 65.6421 107.93V109.007H64.5643C64.3464 109.007 64.1374 109.094 63.9834 109.248C63.8293 109.402 63.7427 109.611 63.7427 109.829C63.7427 110.047 63.8293 110.256 63.9834 110.41C64.1374 110.564 64.3464 110.65 64.5643 110.65H65.6421V110.651Z" fill="url(#paint14_linear_8564_326595)"/>
<path d="M100.07 31.1913V33.1608C100.07 33.553 100.226 33.9291 100.503 34.2065C100.78 34.4838 101.157 34.6396 101.549 34.6396C101.941 34.6396 102.317 34.4838 102.594 34.2065C102.872 33.9291 103.028 33.553 103.028 33.1608V31.1907H104.995C105.387 31.1907 105.763 31.0349 106.041 30.7576C106.318 30.4802 106.474 30.1041 106.474 29.7119C106.474 29.3196 106.318 28.9435 106.041 28.6661C105.763 28.3888 105.387 28.233 104.995 28.233H103.028V26.2941C103.028 25.9018 102.872 25.5257 102.595 25.2483C102.318 24.971 101.942 24.8152 101.549 24.8152C101.157 24.8152 100.781 24.971 100.504 25.2483C100.226 25.5257 100.07 25.9018 100.07 26.2941V28.2341H98.1293C97.7421 28.2415 97.3732 28.4006 97.102 28.677C96.8308 28.9535 96.6788 29.3254 96.6788 29.7127C96.6788 30.1 96.8308 30.4718 97.102 30.7483C97.3732 31.0248 97.7421 31.1838 98.1293 31.1913H100.07V31.1918V31.1913ZM37.5312 45.3798V47.3493C37.5312 47.7415 37.687 48.1177 37.9644 48.395C38.2417 48.6724 38.6179 48.8282 39.0101 48.8282C39.4023 48.8282 39.7785 48.6724 40.0558 48.395C40.3332 48.1177 40.489 47.7415 40.489 47.3493V45.3793H42.4563C42.8485 45.3793 43.2247 45.2235 43.502 44.9461C43.7793 44.6688 43.9352 44.2926 43.9352 43.9004C43.9352 43.5082 43.7793 43.132 43.502 42.8547C43.2247 42.5773 42.8485 42.4215 42.4563 42.4215H40.4895V40.4815C40.4895 40.0893 40.3337 39.7131 40.0564 39.4358C39.779 39.1584 39.4029 39.0026 39.0106 39.0026C38.6184 39.0026 38.2423 39.1584 37.9649 39.4358C37.6876 39.7131 37.5318 40.0893 37.5318 40.4815V42.4215H35.5901C35.2029 42.4289 34.834 42.588 34.5628 42.8645C34.2916 43.141 34.1396 43.5128 34.1396 43.9001C34.1396 44.2874 34.2916 44.6593 34.5628 44.9357C34.834 45.2122 35.2029 45.3713 35.5901 45.3787H37.5307V45.3793L37.5312 45.3798Z" fill="url(#paint15_linear_8564_326595)"/>
</g>
</g>
<defs>
<linearGradient id="paint0_linear_8564_326595" x1="152.628" y1="160.051" x2="144.058" y2="102.151" gradientUnits="userSpaceOnUse">
<stop stop-color="white"/>
<stop offset="1" stop-color="white"/>
</linearGradient>
<linearGradient id="paint1_linear_8564_326595" x1="84.5082" y1="173.071" x2="84.5082" y2="33.4335" gradientUnits="userSpaceOnUse">
<stop stop-color="white" stop-opacity="0"/>
<stop offset="1" stop-color="#54BEFF"/>
</linearGradient>
<linearGradient id="paint2_linear_8564_326595" x1="81.1822" y1="84.9061" x2="77.8601" y2="10.522" gradientUnits="userSpaceOnUse">
<stop stop-color="white" stop-opacity="0"/>
<stop offset="1" stop-color="white"/>
</linearGradient>
<linearGradient id="paint3_linear_8564_326595" x1="59.3334" y1="93.1893" x2="59.3334" y2="70.8524" gradientUnits="userSpaceOnUse">
<stop stop-color="white" stop-opacity="0"/>
<stop offset="1" stop-color="white"/>
</linearGradient>
<linearGradient id="paint4_linear_8564_326595" x1="81.5465" y1="178.572" x2="81.5465" y2="80.321" gradientUnits="userSpaceOnUse">
<stop stop-color="#20B2FF"/>
<stop offset="1" stop-color="#81CDFC"/>
</linearGradient>
<linearGradient id="paint5_linear_8564_326595" x1="81.3408" y1="75.9531" x2="80.178" y2="147.62" gradientUnits="userSpaceOnUse">
<stop stop-color="#1C8DE2"/>
<stop offset="1" stop-color="#37B9FF"/>
</linearGradient>
<linearGradient id="paint6_linear_8564_326595" x1="81.0484" y1="74.964" x2="80.2973" y2="149.322" gradientUnits="userSpaceOnUse">
<stop stop-color="#1587D9"/>
<stop offset="1" stop-color="#34B7FE" stop-opacity="0.356"/>
</linearGradient>
<linearGradient id="paint7_linear_8564_326595" x1="63.0439" y1="140.68" x2="63.0439" y2="158.143" gradientUnits="userSpaceOnUse">
<stop stop-color="white"/>
<stop offset="1" stop-color="white" stop-opacity="0.059"/>
</linearGradient>
<linearGradient id="paint8_linear_8564_326595" x1="37.2777" y1="151.699" x2="37.2777" y2="178.985" gradientUnits="userSpaceOnUse">
<stop stop-color="white"/>
<stop offset="1" stop-color="white" stop-opacity="0.059"/>
</linearGradient>
<linearGradient id="paint9_linear_8564_326595" x1="47.2998" y1="136.135" x2="47.2998" y2="153.598" gradientUnits="userSpaceOnUse">
<stop stop-color="white"/>
<stop offset="1" stop-color="white" stop-opacity="0.059"/>
</linearGradient>
<linearGradient id="paint10_linear_8564_326595" x1="112.344" y1="98.873" x2="112.344" y2="159.564" gradientUnits="userSpaceOnUse">
<stop stop-color="white"/>
<stop offset="1" stop-color="white" stop-opacity="0"/>
</linearGradient>
<linearGradient id="paint11_linear_8564_326595" x1="121.161" y1="136.135" x2="121.161" y2="153.598" gradientUnits="userSpaceOnUse">
<stop stop-color="white"/>
<stop offset="1" stop-color="white" stop-opacity="0.059"/>
</linearGradient>
<linearGradient id="paint12_linear_8564_326595" x1="132.075" y1="152.506" x2="132.075" y2="169.969" gradientUnits="userSpaceOnUse">
<stop stop-color="white"/>
<stop offset="1" stop-color="white" stop-opacity="0.059"/>
</linearGradient>
<linearGradient id="paint13_linear_8564_326595" x1="102.435" y1="146.896" x2="102.435" y2="174.182" gradientUnits="userSpaceOnUse">
<stop stop-color="white"/>
<stop offset="1" stop-color="white" stop-opacity="0.059"/>
</linearGradient>
<linearGradient id="paint14_linear_8564_326595" x1="204.184" y1="273.282" x2="130.142" y2="-22.3673" gradientUnits="userSpaceOnUse">
<stop stop-color="white"/>
<stop offset="1" stop-color="white"/>
</linearGradient>
<linearGradient id="paint15_linear_8564_326595" x1="149.842" y1="87.2859" x2="140.275" y2="-2.07964" gradientUnits="userSpaceOnUse">
<stop stop-color="white"/>
<stop offset="1" stop-color="#009CFC"/>
</linearGradient>
</defs>
</svg>
