<svg width="26" height="30" viewBox="0 0 26 30" fill="none" xmlns="http://www.w3.org/2000/svg">
<path d="M25.0153 23.3791C24.565 24.4272 24.0319 25.392 23.4144 26.279C22.5725 27.4882 21.8833 28.3253 21.3521 28.7901C20.5286 29.553 19.6464 29.9437 18.7016 29.9659C18.0234 29.9659 17.2054 29.7715 16.2533 29.3771C15.2981 28.9845 14.4203 28.7901 13.6176 28.7901C12.7758 28.7901 11.8729 28.9845 10.9072 29.3771C9.94002 29.7715 9.16087 29.9771 8.56516 29.9974C7.65919 30.0363 6.75616 29.6345 5.85478 28.7901C5.27947 28.2845 4.55988 27.4179 3.69783 26.1901C2.77293 24.8791 2.01253 23.3587 1.41682 21.6255C0.778835 19.7533 0.459015 17.9404 0.459015 16.1853C0.459015 14.1748 0.89022 12.4407 1.75392 10.9876C2.43271 9.82045 3.33574 8.89973 4.46595 8.22383C5.59617 7.54792 6.81737 7.20349 8.13249 7.18145C8.85208 7.18145 9.79573 7.4057 10.9684 7.84643C12.1378 8.28864 12.8886 8.51289 13.2178 8.51289C13.4639 8.51289 14.298 8.25068 15.712 7.72792C17.0492 7.24312 18.1778 7.04238 19.1023 7.12145C21.6076 7.32515 23.4897 8.32012 24.7414 10.1127C22.5009 11.4804 21.3925 13.3961 21.4146 15.8536C21.4348 17.7678 22.1241 19.3607 23.4787 20.6255C24.0926 21.2125 24.7782 21.6662 25.541 21.9884C25.3756 22.4717 25.2009 22.9347 25.0153 23.3791ZM19.2696 0.600171C19.2696 2.10051 18.7255 3.50138 17.6411 4.79801C16.3324 6.33944 14.7495 7.23015 13.0329 7.0896C13.011 6.90961 12.9983 6.72017 12.9983 6.5211C12.9983 5.08077 13.6207 3.53934 14.7259 2.27901C15.2777 1.64088 15.9795 1.11028 16.8305 0.687019C17.6797 0.270069 18.4829 0.0394863 19.2383 0C19.2604 0.200572 19.2696 0.401177 19.2696 0.600171Z" fill="#374151"/>
</svg>
