<svg width="174" height="40" viewBox="0 0 174 40" fill="none" xmlns="http://www.w3.org/2000/svg">
<path d="M32.25 16.7337C31.1167 10.9837 26.0667 6.66699 20 6.66699C15.1833 6.66699 11 9.40033 8.91667 13.4003C3.9 13.9337 0 18.1837 0 23.3337C0 28.8503 4.48333 33.3337 10 33.3337H31.6667C36.2667 33.3337 40 29.6003 40 25.0003C40 20.6003 36.5833 17.0337 32.25 16.7337ZM31.6667 30.0003H10C6.31667 30.0003 3.33333 27.017 3.33333 23.3337C3.33333 19.6503 6.31667 16.667 10 16.667H11.1833C12.2833 12.817 15.8 10.0003 20 10.0003C25.0667 10.0003 29.1667 14.1003 29.1667 19.167V20.0003H31.6667C34.4333 20.0003 36.6667 22.2337 36.6667 25.0003C36.6667 27.767 34.4333 30.0003 31.6667 30.0003Z" fill="#0070F0"/>
<path d="M134 20L124 14.2265V25.7735L134 20ZM48 21H49.9545V19H48V21ZM53.8636 21H57.7727V19H53.8636V21ZM61.6818 21H65.5909V19H61.6818V21ZM69.5 21H73.4091V19H69.5V21ZM77.3182 21H81.2273V19H77.3182V21ZM85.1364 21H89.0455V19H85.1364V21ZM92.9546 21H96.8636V19H92.9546V21ZM100.773 21H104.682V19H100.773V21ZM108.591 21H112.5V19H108.591V21ZM116.409 21H120.318V19H116.409V21ZM124.227 21H128.136V19H124.227V21Z" fill="#398FF4"/>
<g clip-path="url(#clip0_211_83556)">
<path fill-rule="evenodd" clip-rule="evenodd" d="M174 20C174 28.8368 166.837 36 158 36C149.163 36 142 28.8368 142 20C142 11.1635 149.163 4 158 4C166.837 4 174 11.1635 174 20Z" fill="#ECB360"/>
<path fill-rule="evenodd" clip-rule="evenodd" d="M169.733 18.4C169.733 26.3528 163.525 32.8 155.867 32.8C148.208 32.8 142 26.3528 142 18.4C142 10.4472 148.208 4 155.867 4C163.525 4 169.733 10.4472 169.733 18.4Z" fill="#D76835"/>
<path fill-rule="evenodd" clip-rule="evenodd" d="M170.8 16.7998C170.8 23.8692 165.308 29.6 158.533 29.6C151.759 29.6 146.267 23.8692 146.267 16.7998C146.267 9.73079 151.759 4 158.533 4C165.308 4 170.8 9.73079 170.8 16.7998Z" fill="#D33A41"/>
<path fill-rule="evenodd" clip-rule="evenodd" d="M169.733 17.8673C169.733 24.3471 164.718 29.6004 158.533 29.6004C152.347 29.6004 147.333 24.3471 147.333 17.8673C147.333 11.3868 152.347 6.13379 158.533 6.13379C164.718 6.13379 169.733 11.3868 169.733 17.8673Z" fill="#B6CB46"/>
<path fill-rule="evenodd" clip-rule="evenodd" d="M168.666 18.9331C168.666 24.8242 163.891 29.5999 158 29.5999C152.109 29.5999 147.333 24.8242 147.333 18.9331C147.333 13.0421 152.109 8.2666 158 8.2666C163.891 8.2666 168.666 13.0421 168.666 18.9331Z" fill="#66AD4A"/>
<path fill-rule="evenodd" clip-rule="evenodd" d="M164.4 16.7999C164.4 21.5127 160.579 25.3333 155.866 25.3333C151.153 25.3333 147.333 21.5127 147.333 16.7999C147.333 12.0871 151.153 8.2666 155.866 8.2666C160.579 8.2666 164.4 12.0871 164.4 16.7999Z" fill="#AED7DC"/>
<path fill-rule="evenodd" clip-rule="evenodd" d="M165.466 15.7333C165.466 19.8569 162.124 23.1999 158 23.1999C153.876 23.1999 150.533 19.8569 150.533 15.7333C150.533 11.6094 153.876 8.2666 158 8.2666C162.124 8.2666 165.466 11.6094 165.466 15.7333Z" fill="#5BB1CF"/>
<path fill-rule="evenodd" clip-rule="evenodd" d="M165.467 16.2662C165.467 20.0954 162.602 23.1997 159.067 23.1997C155.532 23.1997 152.667 20.0954 152.667 16.2662C152.667 12.4373 155.532 9.33301 159.067 9.33301C162.602 9.33301 165.467 12.4373 165.467 16.2662Z" fill="#25A8C3"/>
<path fill-rule="evenodd" clip-rule="evenodd" d="M158 23.2001C155.055 23.2001 152.667 20.5734 152.667 17.3333C152.667 14.0932 155.055 11.4668 158 11.4668C160.946 11.4668 163.334 14.0932 163.334 17.3333C163.334 20.5734 160.946 23.2001 158 23.2001Z" fill="#1B1A18"/>
<path fill-rule="evenodd" clip-rule="evenodd" d="M160.91 15.6413C160.403 16.4901 159.405 16.981 158.682 16.737C157.958 16.4933 157.783 15.6072 158.29 14.7581C158.797 13.909 159.795 13.4184 160.518 13.6621C161.242 13.9058 161.417 14.7919 160.91 15.6413Z" fill="#FFFFFE"/>
</g>
<defs>
<clipPath id="clip0_211_83556">
<rect width="32" height="32" fill="white" transform="translate(142 4)"/>
</clipPath>
</defs>
</svg>
