<svg width="304" height="319" viewBox="0 0 304 319" fill="none" xmlns="http://www.w3.org/2000/svg">
<g clip-path="url(#clip0_263_27226)">
<path d="M242.868 86.3561C268.626 103.752 295.872 123.77 301.744 148.871C307.616 173.973 292.193 204.237 276.612 237.203C261.11 270.168 245.53 305.834 220.319 315.525C195.108 325.137 160.346 308.694 123.235 296.064C86.2019 283.513 46.8202 274.696 28.4995 249.912C10.1788 225.208 12.7625 184.537 14.6415 138.465C16.4423 92.3932 17.3818 40.9195 42.9838 23.5233C68.5858 6.12713 118.694 22.8084 155.883 38.5365C193.073 54.2645 217.187 68.96 242.868 86.3561Z" fill="url(#paint0_linear_263_27226)"/>
<path fill-rule="evenodd" clip-rule="evenodd" d="M4.93069 263.83H288.326V410.076H4.93069V263.83Z" fill="url(#paint1_radial_263_27226)"/>
<path d="M251.66 262.795H225.461V244.657H251.66V262.795Z" fill="#3DB3FA"/>
<path d="M189.437 246.365H287.684C289.495 246.365 290.957 244.914 290.957 243.117V183.109C290.957 181.311 289.495 179.861 287.684 179.861H189.437C187.626 179.861 186.164 181.311 186.164 183.109V243.117C186.164 244.894 187.626 246.365 189.437 246.365Z" fill="#3DB3FA"/>
<path d="M284.911 185.907V240.319H192.21V185.907H284.911Z" fill="url(#paint2_linear_263_27226)"/>
<path d="M262.59 263.325H212.208V261.309H262.59V263.325Z" fill="#3DB3FA"/>
<path d="M225.629 263.41H135.503V165.446H225.629V263.41Z" fill="url(#paint3_linear_263_27226)"/>
<path d="M135.503 263.41H81.6224V165.446H135.503V263.41Z" fill="url(#paint4_linear_263_27226)"/>
<path opacity="0.3" d="M135.503 164.467V234.021C137.578 229.175 140.833 224.934 144.967 221.693C160.498 209.466 180.949 216.091 198.839 207.53C209.39 202.482 220.8 191.316 224.65 164.468L135.503 164.467Z" fill="url(#paint5_linear_263_27226)"/>
<path opacity="0.3" d="M81.6224 236.96C82.663 232.225 84.6731 227.755 87.5263 223.833C96.85 211.677 109.135 218.263 119.879 209.753C126.331 204.642 133.321 193.222 135.503 165.446H81.6224V236.96Z" fill="url(#paint6_linear_263_27226)"/>
<path d="M107.179 190.917H53.2129L81.5361 165.446H135.503L107.179 190.917Z" fill="url(#paint7_linear_263_27226)"/>
<path d="M163.603 190.917H253.059L224.96 165.446H135.503L163.603 190.917Z" fill="url(#paint8_linear_263_27226)"/>
<path d="M97.2966 247.777H114.93V263.452H97.2966V247.777Z" fill="#D5EFFF"/>
<path d="M67.6049 263.83C66.6052 263.83 65.8082 263.013 65.8082 262.018V222.958C65.8082 221.95 66.6188 221.146 67.6049 221.146H88.5026C89.5022 221.146 90.2992 221.963 90.2992 222.958V262.018C90.2992 263.026 89.4887 263.83 88.5026 263.83H67.6049Z" fill="url(#paint9_linear_263_27226)"/>
<path d="M68.6072 254.977V225.801C68.6072 225.546 68.8037 225.344 69.0527 225.344H87.0548C87.3037 225.344 87.5002 225.546 87.5002 225.801V254.977C87.5002 255.232 87.3037 255.433 87.0548 255.433H69.0527C68.8037 255.433 68.6072 255.232 68.6072 254.977Z" fill="url(#paint10_linear_263_27226)"/>
<path opacity="0.235491" d="M84.0015 228.143H72.1059C70.9466 228.143 70.0067 229.083 70.0067 230.243V236.54C70.0067 237.7 70.9466 238.639 72.1059 238.639H84.0015C85.1609 238.639 86.1008 237.7 86.1008 236.54V230.243C86.1008 229.083 85.1609 228.143 84.0015 228.143Z" fill="url(#paint11_linear_263_27226)"/>
<path opacity="0.235491" d="M85.0512 240.039H71.0563C70.4766 240.039 70.0067 240.509 70.0067 241.089C70.0067 241.668 70.4766 242.138 71.0563 242.138H85.0512C85.6308 242.138 86.1008 241.668 86.1008 241.089C86.1008 240.509 85.6308 240.039 85.0512 240.039Z" fill="url(#paint12_linear_263_27226)"/>
<path opacity="0.235491" d="M84.2286 243.838H72.333C71.1736 243.838 70.2338 244.778 70.2338 245.937V252.235C70.2338 253.394 71.1736 254.334 72.333 254.334H84.2286C85.388 254.334 86.3278 253.394 86.3278 252.235V245.937C86.3278 244.778 85.388 243.838 84.2286 243.838Z" fill="url(#paint13_linear_263_27226)"/>
<path fill-rule="evenodd" clip-rule="evenodd" d="M173.671 8.76829L191.009 8.50754L191.37 165.25H173.876L173.671 8.76829Z" fill="url(#paint14_linear_263_27226)"/>
<path d="M183.078 17.4877C187.89 17.0667 191.45 12.8242 191.029 8.01189C190.608 3.19956 186.365 -0.360297 181.553 0.0607275C176.741 0.481752 173.181 4.72422 173.602 9.53655C174.023 14.3489 178.265 17.9087 183.078 17.4877Z" fill="url(#paint15_linear_263_27226)"/>
<path d="M177.593 6.87466L179.792 4.34533L186.657 10.3133L184.459 12.8426L177.593 6.87466Z" fill="white"/>
<path d="M177.877 10.9273L183.845 4.06195L186.374 6.26066L180.406 13.126L177.877 10.9273Z" fill="white"/>
<path fill-rule="evenodd" clip-rule="evenodd" d="M81.3053 8.76829L98.6427 8.50754L99.0041 165.25H81.5105L81.3053 8.76829Z" fill="url(#paint16_linear_263_27226)"/>
<path d="M90.7117 17.4877C95.524 17.0667 99.0839 12.8242 98.6628 8.01189C98.2418 3.19956 93.9993 -0.360297 89.187 0.0607275C84.3747 0.481752 80.8148 4.72422 81.2358 9.53655C81.6569 14.3489 85.8993 17.9087 90.7117 17.4877Z" fill="url(#paint17_linear_263_27226)"/>
<path d="M94.0397 4.59135L95.457 6.88737L88.3503 12.948L86.728 10.7325L94.0397 4.59135Z" fill="white"/>
<path d="M85.176 8.77909L87.442 6.98067L89.9009 10.19L87.6349 11.9884L85.176 8.77909Z" fill="white"/>
<path fill-rule="evenodd" clip-rule="evenodd" d="M197.462 26.9313L214.8 26.7008L215.161 165.25H197.668L197.462 26.9313Z" fill="url(#paint18_linear_263_27226)"/>
<path d="M206.869 35.681C211.681 35.26 215.241 31.0175 214.82 26.2052C214.399 21.3929 210.157 17.833 205.344 18.254C200.532 18.675 196.972 22.9175 197.393 27.7298C197.814 32.5422 202.057 36.102 206.869 35.681Z" fill="url(#paint19_linear_263_27226)"/>
<path d="M201.384 25.068L203.583 22.5386L210.448 28.5066L208.25 31.0359L201.384 25.068Z" fill="white"/>
<path d="M201.668 29.1206L207.636 22.2552L210.165 24.454L204.197 31.3193L201.668 29.1206Z" fill="white"/>
<path opacity="0.650623" d="M240.774 125.836L205.335 134.086C204.582 134.261 203.83 133.793 203.655 133.04L200.482 119.409C200.307 118.657 200.775 117.904 201.528 117.729L236.967 109.48C237.72 109.304 238.472 109.772 238.647 110.525L241.82 124.156C241.995 124.908 241.527 125.661 240.774 125.836Z" fill="url(#paint20_linear_263_27226)"/>
<path opacity="0.650623" d="M237.385 122.343L229.823 124.103C229.447 124.191 229.07 123.957 228.983 123.58L227.222 116.018C227.135 115.642 227.369 115.266 227.745 115.178L235.308 113.418C235.684 113.33 236.06 113.564 236.148 113.94L237.908 121.503C237.996 121.879 237.762 122.255 237.385 122.343Z" fill="url(#paint21_linear_263_27226)"/>
<path opacity="0.479957" d="M232.533 116.64C231.552 116.796 230.903 117.85 231.084 118.995C231.266 120.14 232.208 120.942 233.19 120.787C234.171 120.631 234.82 119.577 234.639 118.432C234.457 117.287 233.515 116.485 232.533 116.64Z" fill="#D1EDFF"/>
<path opacity="0.650623" d="M63.8269 99.4773L99.7758 105.104C100.539 105.224 101.062 105.94 100.942 106.703L98.7778 120.53C98.6583 121.293 97.9424 121.816 97.1788 121.696L61.2299 116.069C60.4663 115.95 59.9441 115.234 60.0636 114.47L62.2278 100.644C62.3474 99.88 63.0633 99.3578 63.8269 99.4773Z" fill="url(#paint22_linear_263_27226)"/>
<path opacity="0.650623" d="M65.6605 103.986L73.3317 105.186C73.7135 105.246 73.9746 105.604 73.9148 105.986L72.7141 113.657C72.6543 114.039 72.2964 114.3 71.9145 114.24L64.2434 113.039C63.8616 112.98 63.6005 112.622 63.6603 112.24L64.861 104.569C64.9208 104.187 65.2787 103.926 65.6605 103.986Z" fill="url(#paint23_linear_263_27226)"/>
<path opacity="0.11277" d="M79.6013 106.163L101.215 109.537C101.676 109.609 102.071 109.906 102.268 110.329L102.626 111.097C102.821 111.516 102.639 112.014 102.22 112.21C102.066 112.281 101.894 112.305 101.727 112.276L79.3414 108.499C78.6951 108.39 78.2464 107.795 78.3187 107.144C78.3867 106.531 78.939 106.089 79.5522 106.157C79.5686 106.159 79.585 106.161 79.6013 106.163Z" fill="url(#paint24_linear_263_27226)"/>
<path opacity="0.11277" d="M78.7862 112.88L100.4 116.254C100.861 116.326 101.256 116.623 101.453 117.046L101.811 117.813C102.006 118.233 101.824 118.731 101.405 118.926C101.251 118.998 101.079 119.021 100.912 118.993L78.5263 115.215C77.88 115.106 77.4313 114.512 77.5036 113.86C77.5716 113.247 78.1239 112.805 78.7371 112.873C78.7535 112.875 78.7699 112.877 78.7862 112.88Z" fill="url(#paint25_linear_263_27226)"/>
<path opacity="0.479957" d="M68.0231 111.091C68.9914 111.314 69.9877 110.58 70.2485 109.45C70.5093 108.32 69.9358 107.223 68.9676 107C67.9993 106.776 67.0029 107.511 66.7421 108.641C66.4813 109.77 67.0548 110.867 68.0231 111.091Z" fill="#D1EDFF"/>
<path opacity="0.650623" d="M63.1547 121.007L99.448 118.403C100.219 118.348 100.889 118.928 100.944 119.699L101.946 133.658C102.001 134.428 101.421 135.098 100.65 135.154L64.3566 137.758C63.5857 137.813 62.9159 137.233 62.8606 136.462L61.859 122.503C61.8037 121.732 62.3838 121.062 63.1547 121.007Z" fill="url(#paint26_linear_263_27226)"/>
<path opacity="0.650623" d="M65.9555 124.987L73.7001 124.431C74.0856 124.404 74.4205 124.694 74.4482 125.079L75.0039 132.824C75.0315 133.209 74.7415 133.544 74.356 133.572L66.6113 134.128C66.2259 134.155 65.891 133.865 65.8633 133.48L65.3076 125.735C65.28 125.35 65.57 125.015 65.9555 124.987Z" fill="url(#paint27_linear_263_27226)"/>
<path opacity="0.479957" d="M69.8558 131.379C70.8496 131.379 71.6552 130.439 71.6552 129.28C71.6552 128.12 70.8496 127.18 69.8558 127.18C68.8621 127.18 68.0565 128.12 68.0565 129.28C68.0565 130.439 68.8621 131.379 69.8558 131.379Z" fill="#D1EDFF"/>
<path opacity="0.11277" d="M76.9494 125.831L98.7376 123.876C99.2023 123.834 99.6572 124.027 99.9506 124.389L100.483 125.048C100.774 125.407 100.719 125.935 100.359 126.226C100.227 126.332 100.066 126.397 99.8969 126.41L77.2622 128.16C76.6088 128.21 76.0296 127.742 75.9421 127.093C75.8598 126.481 76.2888 125.919 76.9002 125.836C76.9166 125.834 76.933 125.832 76.9494 125.831Z" fill="url(#paint28_linear_263_27226)"/>
<path d="M138.706 58.0113H143.106V77.8227H138.706V58.0113Z" fill="white"/>
<path d="M127.704 58.0113H132.105V77.8227H127.704V58.0113Z" fill="white"/>
<path d="M106.801 58.0113H111.202V77.8227H106.801V58.0113Z" fill="white"/>
<path d="M138.701 97.2916H143.102V117.103H138.701V97.2916Z" fill="white"/>
<path d="M127.7 97.2916H132.1V117.103H127.7V97.2916Z" fill="white"/>
<path d="M106.801 96.5335H111.202V116.345H106.801V96.5335Z" fill="white"/>
<path d="M138.706 133.955H143.106V153.767H138.706V133.955Z" fill="white"/>
<path d="M127.704 133.955H132.105V153.767H127.704V133.955Z" fill="white"/>
<path d="M106.801 133.955H111.202V153.767H106.801V133.955Z" fill="white"/>
<path d="M212.917 52.5081H93.0982C91.5524 52.5081 90.2992 53.7612 90.2992 55.3071V155.37C90.2992 156.916 91.5524 158.169 93.0982 158.169H212.917C214.463 158.169 215.716 156.916 215.716 155.37V55.3071C215.716 53.7612 214.463 52.5081 212.917 52.5081Z" fill="white"/>
<path d="M118.304 51.5095H93.0982C91.5524 51.5095 90.2992 52.7626 90.2992 54.3085V163.177C90.2992 164.722 91.5524 165.976 93.0982 165.976H118.304C119.85 165.976 121.103 164.722 121.103 163.177V54.3085C121.103 52.7626 119.85 51.5095 118.304 51.5095Z" fill="#43BAFF"/>
<path opacity="0.605213" d="M98.7145 97.6624L114.857 97.6331C115.252 97.6324 115.574 97.9526 115.574 98.3484C115.574 98.3484 115.574 98.3484 115.574 98.3484L115.604 114.498C115.604 114.894 115.284 115.215 114.888 115.216L98.7464 115.245C98.3506 115.246 98.0292 114.926 98.0285 114.53C98.0285 114.53 98.0285 114.53 98.0285 114.53L97.9992 98.3803C97.9985 97.9845 98.3187 97.6631 98.7145 97.6624Z" fill="#0084D5"/>
<path opacity="0.479957" d="M106.571 109.733C108.389 109.86 109.967 108.489 110.094 106.669C110.221 104.85 108.85 103.273 107.032 103.145C105.213 103.018 103.636 104.39 103.509 106.209C103.382 108.028 104.753 109.606 106.571 109.733Z" fill="#D1EDFF"/>
<path d="M155.978 70.0152L156.707 66.9231C157.027 65.5648 156.185 64.2043 154.827 63.8841C153.718 63.6219 152.921 62.6501 152.882 61.5112C152.815 59.5935 152.503 57.6921 151.954 55.8534C151.634 54.7642 152.083 53.5956 153.05 53.0013L153.056 52.997C153.626 52.6447 154.033 52.0803 154.187 51.4281C154.341 50.7758 154.229 50.0891 153.877 49.5192L152.206 46.818C151.472 45.6316 149.915 45.2647 148.728 45.9984H148.721C147.757 46.5986 146.511 46.4788 145.679 45.7061C144.279 44.3943 142.718 43.2662 141.033 42.3491C140.031 41.8059 139.516 40.659 139.777 39.5494C139.931 38.8972 139.819 38.2106 139.467 37.6407C139.115 37.0707 138.55 36.6642 137.898 36.5104L134.806 35.7817C134.154 35.6279 133.467 35.7396 132.897 36.0922C132.327 36.4447 131.921 37.0093 131.767 37.6617C131.505 38.7707 130.532 39.567 129.393 39.6059C127.475 39.6732 125.574 39.9852 123.735 40.5343C122.645 40.8548 121.476 40.4055 120.882 39.4379V39.4319C120.529 38.8618 119.964 38.455 119.312 38.3012C118.66 38.1473 117.973 38.259 117.403 38.6115L114.7 40.2892C113.514 41.0234 113.147 42.5803 113.881 43.767V43.7739C114.481 44.7377 114.36 45.9839 113.587 46.8154C112.275 48.2149 111.147 49.776 110.23 51.4608C109.687 52.4629 108.541 52.9773 107.431 52.7167C106.779 52.5626 106.092 52.6741 105.522 53.0265C104.952 53.379 104.545 53.9435 104.392 54.5958L103.662 57.6871C103.342 59.0453 104.184 60.4058 105.542 60.726C106.651 60.9885 107.448 61.9607 107.487 63.0997C107.554 65.0175 107.866 66.9188 108.415 68.7576C108.736 69.847 108.286 71.0161 107.319 71.6105H107.313C106.126 72.3448 105.759 73.9023 106.493 75.0892L108.163 77.7896C108.516 78.3597 109.08 78.7664 109.733 78.9203C110.385 79.0741 111.072 78.9625 111.642 78.61H111.648C112.612 78.0101 113.858 78.1302 114.69 78.9031C116.09 80.2152 117.651 81.3433 119.337 82.2601C120.338 82.8035 120.852 83.9498 120.592 85.0591C120.438 85.7113 120.549 86.3979 120.902 86.9679C121.254 87.5379 121.819 87.9444 122.471 88.098L125.563 88.8267C126.217 88.9814 126.905 88.8697 127.476 88.5161C128.047 88.1626 128.454 87.5963 128.606 86.9424C128.868 85.8335 129.84 85.0372 130.979 84.9982C132.897 84.9305 134.799 84.6185 136.638 84.0698C137.727 83.7497 138.896 84.199 139.49 85.1662L139.494 85.1722C139.847 85.7421 140.411 86.1487 141.064 86.3024C141.716 86.4561 142.403 86.3443 142.972 85.9917L145.674 84.321C146.86 83.5867 147.227 82.0299 146.493 80.8431V80.8371C145.894 79.8732 146.014 78.6272 146.787 77.7956C148.099 76.3959 149.227 74.8345 150.144 73.1493C150.688 72.1477 151.834 71.6337 152.944 71.8943C154.301 72.2114 155.658 71.3708 155.978 70.0152ZM138.779 63.1977C138.285 66.6992 135.65 69.5158 132.189 70.242C128.728 70.9683 125.183 69.4484 123.323 66.441C121.463 63.4335 121.686 59.5831 123.882 56.8112C126.078 54.0392 129.775 52.94 133.129 54.062C136.966 55.3502 139.341 59.1895 138.779 63.1977Z" fill="url(#paint29_linear_263_27226)"/>
<path fill-rule="evenodd" clip-rule="evenodd" d="M164.246 147.791L167.308 161.593C167.461 162.179 166.925 162.718 166.309 162.644L161.527 161.585L159.251 170.672C158.896 171.867 156.147 171.28 156.43 170.114L158.678 160.958L153.852 159.998C153.28 159.825 152.999 159.13 153.39 158.648L162.686 147.452C163.221 146.912 164.066 147.136 164.246 147.791Z" fill="#009CFC"/>
<path opacity="0.650623" d="M204.758 97.2934L126.285 97.4358C125.733 97.4368 125.287 97.8847 125.288 98.4362L125.319 115.332C125.32 115.884 125.768 116.33 126.319 116.329L204.792 116.186C205.344 116.185 205.79 115.738 205.789 115.186L205.758 98.2901C205.757 97.7386 205.309 97.2924 204.758 97.2934Z" fill="url(#paint30_linear_263_27226)"/>
<path opacity="0.650623" d="M148.396 104.196L200.877 104.009" stroke="#60BFF9" stroke-width="1.79834"/>
<path opacity="0.650623" d="M148.395 109.147L174.694 108.942" stroke="#60BFF9" stroke-width="1.79834"/>
<path opacity="0.479957" d="M134.554 111.398C137.253 111.587 139.593 109.552 139.782 106.854C139.971 104.155 137.936 101.814 135.238 101.626C132.539 101.437 130.198 103.472 130.01 106.17C129.821 108.869 131.856 111.209 134.554 111.398Z" fill="#7ACBFE"/>
<path opacity="0.650623" d="M204.758 121.085L126.285 121.227C125.733 121.228 125.287 121.676 125.288 122.227L125.319 139.123C125.32 139.675 125.768 140.121 126.319 140.12L204.792 139.978C205.344 139.977 205.79 139.529 205.789 138.977L205.758 122.081C205.757 121.53 205.309 121.084 204.758 121.085Z" fill="url(#paint31_linear_263_27226)"/>
<path opacity="0.650623" d="M148.396 127.988L200.877 127.8" stroke="#60BFF9" stroke-width="1.79834"/>
<path opacity="0.650623" d="M148.395 132.938L174.694 132.733" stroke="#60BFF9" stroke-width="1.79834"/>
<path opacity="0.479957" d="M134.554 135.889C137.253 136.078 139.593 134.043 139.782 131.345C139.971 128.646 137.936 126.305 135.238 126.117C132.539 125.928 130.198 127.963 130.01 130.661C129.821 133.36 131.856 135.7 134.554 135.889Z" fill="#7ACBFE"/>
<path d="M236.195 46.9102C236.861 49.8759 239.177 52.192 242.143 52.8574C239.177 53.5238 236.861 55.84 236.195 58.8058C235.53 55.8396 233.214 53.523 230.248 52.8574C233.214 52.1927 235.531 49.8763 236.195 46.9102Z" fill="#009CFC"/>
<path d="M15.0769 11.2233C15.7424 14.1891 18.0587 16.5051 21.0248 17.1705C18.0588 17.8369 15.7428 20.1532 15.0769 23.1189C14.4119 20.1527 12.0955 17.8361 9.12914 17.1705C12.0956 16.5059 14.4122 14.1895 15.0769 11.2233Z" fill="#009CFC"/>
<path d="M26.2728 140.676C26.6251 142.246 27.8514 143.472 29.4217 143.824C27.8515 144.177 26.6253 145.403 26.2728 146.973C25.9207 145.403 24.6944 144.176 23.124 143.824C24.6945 143.472 25.9209 142.246 26.2728 140.676Z" fill="#009CFC"/>
<path d="M3.88108 190.357C4.23339 191.927 5.45966 193.154 7.02992 193.506C5.45972 193.859 4.23359 195.085 3.88108 196.655C3.52897 195.085 2.30266 193.858 0.732239 193.506C2.30272 193.154 3.52917 191.928 3.88108 190.357Z" fill="#009CFC"/>
<path d="M66.1581 204.352C66.5104 205.922 67.7367 207.148 69.307 207.501C67.7368 207.853 66.5106 209.08 66.1581 210.65C65.806 209.079 64.5797 207.853 63.0093 207.501C64.5798 207.149 65.8062 205.922 66.1581 204.352Z" fill="#009CFC"/>
<path d="M277.48 125.281C277.833 126.851 279.059 128.078 280.629 128.43C279.059 128.783 277.833 130.009 277.48 131.579C277.128 130.009 275.902 128.782 274.331 128.43C275.902 128.078 277.128 126.852 277.48 125.281Z" fill="#009CFC"/>
<path d="M250.19 151.871C250.543 153.442 251.769 154.668 253.339 155.02C251.769 155.373 250.543 156.599 250.19 158.169C249.838 156.599 248.612 155.372 247.041 155.02C248.612 154.668 249.838 153.442 250.19 151.871Z" fill="#009CFC"/>
</g>
<defs>
<linearGradient id="paint0_linear_263_27226" x1="-12.3055" y1="-126.297" x2="709.118" y2="492.272" gradientUnits="userSpaceOnUse">
<stop stop-color="white"/>
<stop offset="1" stop-color="#009CFC"/>
</linearGradient>
<radialGradient id="paint1_radial_263_27226" cx="0" cy="0" r="1" gradientUnits="userSpaceOnUse" gradientTransform="translate(119.221 -117.04) rotate(-90) scale(276.834 73.7228)">
<stop stop-color="#16A6FF"/>
<stop offset="1" stop-color="white" stop-opacity="0"/>
</radialGradient>
<linearGradient id="paint2_linear_263_27226" x1="261.768" y1="213.738" x2="126.412" y2="229.997" gradientUnits="userSpaceOnUse">
<stop stop-color="#D5EFFF"/>
<stop offset="1" stop-color="white"/>
</linearGradient>
<linearGradient id="paint3_linear_263_27226" x1="249.978" y1="317.26" x2="187.594" y2="198.04" gradientUnits="userSpaceOnUse">
<stop stop-color="#88D1FF"/>
<stop offset="1" stop-color="white"/>
</linearGradient>
<linearGradient id="paint4_linear_263_27226" x1="168.377" y1="452.787" x2="25.9905" y2="256.006" gradientUnits="userSpaceOnUse">
<stop stop-color="#88D1FF"/>
<stop offset="1" stop-color="white"/>
</linearGradient>
<linearGradient id="paint5_linear_263_27226" x1="180.076" y1="164.467" x2="180.076" y2="234.021" gradientUnits="userSpaceOnUse">
<stop stop-color="#ECF8FF"/>
<stop offset="1" stop-color="#88D2FF"/>
</linearGradient>
<linearGradient id="paint6_linear_263_27226" x1="108.562" y1="165.446" x2="108.562" y2="236.96" gradientUnits="userSpaceOnUse">
<stop stop-color="#ECF8FF"/>
<stop offset="1" stop-color="#88D2FF"/>
</linearGradient>
<linearGradient id="paint7_linear_263_27226" x1="128.769" y1="173.857" x2="92.4731" y2="210.158" gradientUnits="userSpaceOnUse">
<stop stop-color="#ECF8FF"/>
<stop offset="1" stop-color="#39B3FF"/>
</linearGradient>
<linearGradient id="paint8_linear_263_27226" x1="125.088" y1="176.102" x2="198.305" y2="229.693" gradientUnits="userSpaceOnUse">
<stop stop-color="#ECF8FF"/>
<stop offset="1" stop-color="#5BC0FF"/>
</linearGradient>
<linearGradient id="paint9_linear_263_27226" x1="14.5919" y1="154.559" x2="111.418" y2="209.354" gradientUnits="userSpaceOnUse">
<stop stop-color="#F3FBFF"/>
<stop offset="1" stop-color="#6DC5FF"/>
</linearGradient>
<linearGradient id="paint10_linear_263_27226" x1="102.519" y1="248.351" x2="68.6072" y2="248.351" gradientUnits="userSpaceOnUse">
<stop stop-color="white"/>
<stop offset="1" stop-color="#DEEEFF"/>
</linearGradient>
<linearGradient id="paint11_linear_263_27226" x1="70.0067" y1="234.054" x2="123.736" y2="244.85" gradientUnits="userSpaceOnUse">
<stop stop-color="#6DC7FF"/>
<stop offset="1" stop-color="#EAEBF0"/>
</linearGradient>
<linearGradient id="paint12_linear_263_27226" x1="70.0067" y1="241.094" x2="124.875" y2="243.299" gradientUnits="userSpaceOnUse">
<stop stop-color="#6DC7FF"/>
<stop offset="1" stop-color="#EAEBF0"/>
</linearGradient>
<linearGradient id="paint13_linear_263_27226" x1="70.2338" y1="249.748" x2="123.963" y2="260.544" gradientUnits="userSpaceOnUse">
<stop stop-color="#6DC7FF"/>
<stop offset="1" stop-color="#EAEBF0"/>
</linearGradient>
<linearGradient id="paint14_linear_263_27226" x1="182.567" y1="-94.8926" x2="178.941" y2="185.549" gradientUnits="userSpaceOnUse">
<stop stop-color="#61BEF9"/>
<stop offset="1" stop-color="white" stop-opacity="0.154447"/>
</linearGradient>
<linearGradient id="paint15_linear_263_27226" x1="197.903" y1="-1.36975" x2="185.899" y2="49.7309" gradientUnits="userSpaceOnUse">
<stop stop-color="#81CEFD"/>
<stop offset="1" stop-color="#38A6E9"/>
</linearGradient>
<linearGradient id="paint16_linear_263_27226" x1="90.1547" y1="-59.5556" x2="90.1547" y2="185.595" gradientUnits="userSpaceOnUse">
<stop stop-color="#61BEF9"/>
<stop offset="1" stop-color="white" stop-opacity="0.154447"/>
</linearGradient>
<linearGradient id="paint17_linear_263_27226" x1="85.2522" y1="-44.9141" x2="90.9639" y2="20.3707" gradientUnits="userSpaceOnUse">
<stop stop-color="#83CFFE"/>
<stop offset="1" stop-color="#5DC1FF"/>
</linearGradient>
<linearGradient id="paint18_linear_263_27226" x1="206.546" y1="-57.6748" x2="192.227" y2="182.393" gradientUnits="userSpaceOnUse">
<stop stop-color="#61BEF9"/>
<stop offset="1" stop-color="white" stop-opacity="0.154447"/>
</linearGradient>
<linearGradient id="paint19_linear_263_27226" x1="273.772" y1="-38.6693" x2="194.455" y2="29.1177" gradientUnits="userSpaceOnUse">
<stop stop-color="white"/>
<stop offset="0.535868" stop-color="#91D4FE"/>
<stop offset="0.999296" stop-color="#83CFFE"/>
<stop offset="1" stop-color="#54BEFF"/>
</linearGradient>
<linearGradient id="paint20_linear_263_27226" x1="223.055" y1="129.961" x2="214.456" y2="93.0202" gradientUnits="userSpaceOnUse">
<stop stop-color="#E8F6FF"/>
<stop offset="1" stop-color="#AFE0FF"/>
</linearGradient>
<linearGradient id="paint21_linear_263_27226" x1="227.363" y1="126.308" x2="220.127" y2="80.6179" gradientUnits="userSpaceOnUse">
<stop stop-color="#3DB3FC"/>
<stop offset="1" stop-color="white"/>
</linearGradient>
<linearGradient id="paint22_linear_263_27226" x1="81.8013" y1="102.291" x2="75.9361" y2="139.763" gradientUnits="userSpaceOnUse">
<stop stop-color="#E8F6FF"/>
<stop offset="1" stop-color="#AFE0FF"/>
</linearGradient>
<linearGradient id="paint23_linear_263_27226" x1="76.438" y1="104.064" x2="66.0319" y2="149.138" gradientUnits="userSpaceOnUse">
<stop stop-color="#3DB3FC"/>
<stop offset="1" stop-color="white"/>
</linearGradient>
<linearGradient id="paint24_linear_263_27226" x1="106.783" y1="109.998" x2="104.484" y2="123.036" gradientUnits="userSpaceOnUse">
<stop stop-color="#3DB3FC"/>
<stop offset="1" stop-color="white"/>
</linearGradient>
<linearGradient id="paint25_linear_263_27226" x1="105.967" y1="116.715" x2="103.669" y2="129.753" gradientUnits="userSpaceOnUse">
<stop stop-color="#3DB3FC"/>
<stop offset="1" stop-color="white"/>
</linearGradient>
<linearGradient id="paint26_linear_263_27226" x1="81.3014" y1="119.705" x2="84.0158" y2="157.536" gradientUnits="userSpaceOnUse">
<stop stop-color="#E8F6FF"/>
<stop offset="1" stop-color="#AFE0FF"/>
</linearGradient>
<linearGradient id="paint27_linear_263_27226" x1="76.4743" y1="122.639" x2="76.4743" y2="168.898" gradientUnits="userSpaceOnUse">
<stop stop-color="#3DB3FC"/>
<stop offset="1" stop-color="white"/>
</linearGradient>
<linearGradient id="paint28_linear_263_27226" x1="104.251" y1="122.976" x2="105.175" y2="136.183" gradientUnits="userSpaceOnUse">
<stop stop-color="#3DB3FC"/>
<stop offset="1" stop-color="white"/>
</linearGradient>
<linearGradient id="paint29_linear_263_27226" x1="218.341" y1="-80.9477" x2="122.898" y2="76.6184" gradientUnits="userSpaceOnUse">
<stop stop-color="white"/>
<stop offset="1" stop-color="#1A99E6"/>
</linearGradient>
<linearGradient id="paint30_linear_263_27226" x1="165.447" y1="56.4021" x2="165.599" y2="140.034" gradientUnits="userSpaceOnUse">
<stop stop-color="#E8F6FF"/>
<stop offset="1" stop-color="#AFE0FF"/>
</linearGradient>
<linearGradient id="paint31_linear_263_27226" x1="165.447" y1="80.1934" x2="165.599" y2="163.825" gradientUnits="userSpaceOnUse">
<stop stop-color="#E8F6FF"/>
<stop offset="1" stop-color="#AFE0FF"/>
</linearGradient>
<clipPath id="clip0_263_27226">
<rect width="302.536" height="319" fill="white" transform="translate(0.732239)"/>
</clipPath>
</defs>
</svg>
