<svg width="108" height="108" viewBox="0 0 108 108" fill="none" xmlns="http://www.w3.org/2000/svg">
<g opacity="0.393">
<path opacity="0.393" d="M7.7839 52.6185L7.7839 52.1619C7.7839 52.0709 7.72479 51.9838 7.61957 51.9195C7.51435 51.8552 7.37165 51.8191 7.22285 51.8191C7.07405 51.8191 6.93134 51.8552 6.82612 51.9195C6.7209 51.9838 6.66179 52.0709 6.66179 52.1619L6.66179 52.6185L5.91544 52.6185C5.76966 52.6212 5.63133 52.6585 5.52978 52.7224C5.42822 52.7864 5.37143 52.872 5.37143 52.9611C5.37143 53.0502 5.42822 53.1359 5.52978 53.1998C5.63133 53.2638 5.76966 53.3011 5.91544 53.3038L6.66179 53.3038L6.66179 53.7538C6.66179 53.8447 6.7209 53.9319 6.82612 53.9961C6.93134 54.0604 7.07405 54.0966 7.22285 54.0966C7.37165 54.0966 7.51435 54.0604 7.61957 53.9961C7.72479 53.9319 7.7839 53.8447 7.7839 53.7538L7.7839 53.3041L8.52042 53.3041C8.66922 53.3041 8.81192 53.268 8.91714 53.2037C9.02236 53.1394 9.08147 53.0522 9.08147 52.9613C9.08147 52.8704 9.02236 52.7832 8.91714 52.7189C8.81192 52.6546 8.66922 52.6185 8.52042 52.6185L7.7839 52.6185ZM36.554 59.4494L36.554 58.9927C36.554 58.9018 36.4949 58.8146 36.3897 58.7503C36.2844 58.6861 36.1417 58.6499 35.9929 58.6499C35.8441 58.6499 35.7014 58.6861 35.5962 58.7503C35.491 58.8146 35.4319 58.9018 35.4319 58.9927L35.4319 59.4497L34.685 59.4497C34.5392 59.4524 34.4009 59.4897 34.2994 59.5536C34.1978 59.6176 34.141 59.7032 34.141 59.7923C34.141 59.8814 34.1978 59.967 34.2994 60.031C34.4009 60.095 34.5392 60.1322 34.685 60.1349L35.4319 60.1349L35.4319 60.5849C35.4319 60.6759 35.491 60.763 35.5962 60.8273C35.7014 60.8916 35.8441 60.9277 35.9929 60.9277C36.1417 60.9277 36.2844 60.8916 36.3897 60.8273C36.4949 60.763 36.554 60.6759 36.554 60.5849L36.554 60.1353L37.2905 60.1353C37.4393 60.1353 37.582 60.0991 37.6872 60.0349C37.7925 59.9706 37.8516 59.8834 37.8516 59.7925C37.8516 59.7016 37.7925 59.6144 37.6872 59.5501C37.582 59.4858 37.4393 59.4497 37.2905 59.4497L36.5535 59.4497L36.554 59.4494Z" fill="url(#paint0_linear_423_171564)"/>
</g>
<path d="M54 1C24.7289 1 1.00001 24.7289 1.00001 54C1.00001 83.2711 24.7289 107 54 107C83.2711 107 107 83.2711 107 54C107 24.7289 83.2711 1.00001 54 1Z" fill="url(#paint1_linear_423_171564)" fill-opacity="0.3" stroke="url(#paint2_linear_423_171564)" stroke-width="0.332612"/>
<path d="M72.3321 58.8594C72.4221 58.1386 72.4897 57.4178 72.4897 56.652C72.4897 55.8861 72.4221 55.1653 72.3321 54.4445L77.0848 50.7279C77.5128 50.39 77.6254 49.7818 77.3551 49.2863L72.8501 41.4926C72.6474 41.1322 72.2645 40.9295 71.859 40.9295C71.7239 40.9295 71.5887 40.952 71.4761 40.9971L65.8674 43.2496C64.6961 42.3486 63.4347 41.6053 62.0606 41.0421L61.2047 35.073C61.1371 34.5324 60.6641 34.127 60.101 34.127H51.091C50.5279 34.127 50.0548 34.5324 49.9873 35.073L49.1313 41.0421C47.7573 41.6053 46.4959 42.3711 45.3246 43.2496L39.7159 40.9971C39.5807 40.952 39.4456 40.9295 39.3104 40.9295C38.9275 40.9295 38.5446 41.1322 38.3418 41.4926L33.8368 49.2863C33.544 49.7818 33.6792 50.39 34.1071 50.7279L38.8599 54.4445C38.7698 55.1653 38.7022 55.9086 38.7022 56.652C38.7022 57.3953 38.7698 58.1386 38.8599 58.8594L34.1071 62.576C33.6792 62.9139 33.5665 63.5221 33.8368 64.0176L38.3418 71.8113C38.5446 72.1717 38.9275 72.3744 39.3329 72.3744C39.4681 72.3744 39.6032 72.3519 39.7159 72.3068L45.3246 70.0543C46.4959 70.9553 47.7573 71.6987 49.1313 72.2618L49.9873 78.2309C50.0548 78.7715 50.5279 79.1769 51.091 79.1769H60.101C60.6641 79.1769 61.1371 78.7715 61.2047 78.2309L62.0606 72.2618C63.4347 71.6987 64.6961 70.9328 65.8674 70.0543L71.4761 72.3068C71.6112 72.3519 71.7464 72.3744 71.8815 72.3744C72.2645 72.3744 72.6474 72.1717 72.8501 71.8113L77.3551 64.0176C77.6254 63.5221 77.5128 62.9139 77.0848 62.576L72.3321 58.8594ZM67.8721 55.0076C67.9622 55.7059 67.9847 56.1789 67.9847 56.652C67.9847 57.125 67.9397 57.6205 67.8721 58.2963L67.5567 60.8416L69.5615 62.4184L71.9942 64.3104L70.4174 67.036L67.5567 65.8872L65.2142 64.9412L63.1869 66.4729C62.2183 67.1937 61.2948 67.7342 60.3713 68.1172L57.9836 69.0858L57.6232 71.6311L57.1727 74.672H54.0192L53.2309 69.0858L50.8432 68.1172C49.8746 67.7117 48.9736 67.1936 48.0726 66.5179L46.0229 64.9412L43.6352 65.9097L40.7745 67.0585L39.1978 64.333L41.6305 62.4409L43.6352 60.8641L43.3199 58.3188C43.2523 57.6205 43.2072 57.1025 43.2072 56.652C43.2072 56.2015 43.2523 55.6834 43.3199 55.0076L43.6352 52.4623L41.6305 50.8856L39.1978 48.9935L40.7745 46.2679L43.6352 47.4167L45.9778 48.3628L48.0051 46.8311C48.9736 46.1103 49.8972 45.5697 50.8207 45.1867L53.2083 44.2182L53.5687 41.6728L54.0192 38.632H57.1502L57.9386 44.2182L60.3262 45.1867C61.2948 45.5922 62.1958 46.1103 63.0968 46.786L65.1466 48.3628L67.5342 47.3942L70.3949 46.2454L71.9716 48.9709L69.5615 50.8856L67.5567 52.4623L67.8721 55.0076ZM55.596 47.642C50.618 47.642 46.586 51.6739 46.586 56.652C46.586 61.63 50.618 65.662 55.596 65.662C60.574 65.662 64.606 61.63 64.606 56.652C64.606 51.6739 60.574 47.642 55.596 47.642ZM55.596 61.157C53.1182 61.157 51.091 59.1297 51.091 56.652C51.091 54.1742 53.1182 52.147 55.596 52.147C58.0737 52.147 60.101 54.1742 60.101 56.652C60.101 59.1297 58.0737 61.157 55.596 61.157Z" fill="url(#paint3_linear_423_171564)"/>
<defs>
<linearGradient id="paint0_linear_423_171564" x1="-14.1024" y1="37.2312" x2="-11.0267" y2="71.2399" gradientUnits="userSpaceOnUse">
<stop stop-color="white"/>
<stop offset="1" stop-color="white"/>
</linearGradient>
<linearGradient id="paint1_linear_423_171564" x1="50.5063" y1="29.6868" x2="50.5062" y2="110.604" gradientUnits="userSpaceOnUse">
<stop stop-color="white" stop-opacity="0"/>
<stop offset="1" stop-color="#54BEFF"/>
</linearGradient>
<linearGradient id="paint2_linear_423_171564" x1="53.6608" y1="80.7767" x2="54.8385" y2="123.935" gradientUnits="userSpaceOnUse">
<stop stop-color="white" stop-opacity="0"/>
<stop offset="1" stop-color="white"/>
</linearGradient>
<linearGradient id="paint3_linear_423_171564" x1="55.591" y1="34.127" x2="55.591" y2="79.1769" gradientUnits="userSpaceOnUse">
<stop stop-color="#1B9AE6"/>
<stop offset="1" stop-color="#4AAFEC"/>
</linearGradient>
</defs>
</svg>
