<svg width="108" height="108" viewBox="0 0 108 108" fill="none" xmlns="http://www.w3.org/2000/svg">
<g opacity="0.393">
<path opacity="0.393" d="M7.7839 52.6185L7.7839 52.1619C7.7839 52.0709 7.72479 51.9838 7.61957 51.9195C7.51435 51.8552 7.37165 51.8191 7.22285 51.8191C7.07405 51.8191 6.93134 51.8552 6.82612 51.9195C6.7209 51.9838 6.66179 52.0709 6.66179 52.1619L6.66179 52.6185L5.91544 52.6185C5.76966 52.6212 5.63133 52.6585 5.52978 52.7224C5.42822 52.7864 5.37143 52.872 5.37143 52.9611C5.37143 53.0502 5.42822 53.1359 5.52978 53.1998C5.63133 53.2638 5.76966 53.3011 5.91544 53.3038L6.66179 53.3038L6.66179 53.7538C6.66179 53.8447 6.7209 53.9319 6.82612 53.9961C6.93134 54.0604 7.07405 54.0966 7.22285 54.0966C7.37165 54.0966 7.51435 54.0604 7.61957 53.9961C7.72479 53.9319 7.7839 53.8447 7.7839 53.7538L7.7839 53.3041L8.52042 53.3041C8.66922 53.3041 8.81192 53.268 8.91714 53.2037C9.02236 53.1394 9.08147 53.0522 9.08147 52.9613C9.08147 52.8704 9.02236 52.7832 8.91714 52.7189C8.81192 52.6546 8.66922 52.6185 8.52042 52.6185L7.7839 52.6185ZM36.554 59.4494L36.554 58.9927C36.554 58.9018 36.4949 58.8146 36.3897 58.7503C36.2844 58.6861 36.1417 58.6499 35.9929 58.6499C35.8441 58.6499 35.7014 58.6861 35.5962 58.7503C35.491 58.8146 35.4319 58.9018 35.4319 58.9927L35.4319 59.4497L34.685 59.4497C34.5392 59.4524 34.4009 59.4897 34.2994 59.5536C34.1978 59.6176 34.141 59.7032 34.141 59.7923C34.141 59.8814 34.1978 59.967 34.2994 60.031C34.4009 60.095 34.5392 60.1322 34.685 60.1349L35.4319 60.1349L35.4319 60.5849C35.4319 60.6759 35.491 60.763 35.5962 60.8273C35.7014 60.8916 35.8441 60.9277 35.9929 60.9277C36.1417 60.9277 36.2844 60.8916 36.3897 60.8273C36.4949 60.763 36.554 60.6759 36.554 60.5849L36.554 60.1353L37.2905 60.1353C37.4393 60.1353 37.582 60.0991 37.6872 60.0349C37.7925 59.9706 37.8516 59.8834 37.8516 59.7925C37.8516 59.7016 37.7925 59.6144 37.6872 59.5501C37.582 59.4858 37.4393 59.4497 37.2905 59.4497L36.5535 59.4497L36.554 59.4494Z" fill="url(#paint0_linear_237_85269)"/>
</g>
<path d="M54 1C24.7289 1 1.00001 24.7289 1.00001 54C1.00001 83.2711 24.7289 107 54 107C83.2711 107 107 83.2711 107 54C107 24.7289 83.2711 1.00001 54 1Z" fill="url(#paint1_linear_237_85269)" fill-opacity="0.3" stroke="url(#paint2_linear_237_85269)" stroke-width="0.332612"/>
<path d="M60.0954 61.155V67.9125H42.0754V52.145C42.0754 47.167 46.1074 43.135 51.0854 43.135C53.0001 43.135 54.7795 43.7206 56.2211 44.7568L59.4422 41.5357C58.0006 40.3869 56.3112 39.5535 54.4642 39.0805V37.5037C54.4642 35.6342 52.955 34.125 51.0854 34.125C49.2159 34.125 47.7067 35.6342 47.7067 37.5037V39.0805C41.8727 40.5671 37.5704 45.8605 37.5704 52.145V67.9125H33.0654V72.4175H69.1054V67.9125H64.6004V61.155H60.0954ZM51.0854 79.175C53.5632 79.175 55.5904 77.1477 55.5904 74.67H46.5804C46.5804 77.1477 48.6077 79.175 51.0854 79.175ZM78.1154 47.64H71.3579V40.8825H66.8529V47.64H60.0954V52.145H66.8529V58.9025H71.3579V52.145H78.1154V47.64Z" fill="url(#paint3_linear_237_85269)"/>
<defs>
<linearGradient id="paint0_linear_237_85269" x1="-14.1024" y1="37.2312" x2="-11.0267" y2="71.2399" gradientUnits="userSpaceOnUse">
<stop stop-color="white"/>
<stop offset="1" stop-color="white"/>
</linearGradient>
<linearGradient id="paint1_linear_237_85269" x1="50.5063" y1="29.6868" x2="50.5062" y2="110.604" gradientUnits="userSpaceOnUse">
<stop stop-color="white" stop-opacity="0"/>
<stop offset="1" stop-color="#54BEFF"/>
</linearGradient>
<linearGradient id="paint2_linear_237_85269" x1="53.6608" y1="80.7767" x2="54.8385" y2="123.935" gradientUnits="userSpaceOnUse">
<stop stop-color="white" stop-opacity="0"/>
<stop offset="1" stop-color="white"/>
</linearGradient>
<linearGradient id="paint3_linear_237_85269" x1="55.5904" y1="34.125" x2="55.5904" y2="79.175" gradientUnits="userSpaceOnUse">
<stop stop-color="#1B9AE6"/>
<stop offset="1" stop-color="#4AAFEC"/>
</linearGradient>
</defs>
</svg>
