<svg width="290" height="302" viewBox="0 0 290 302" fill="none" xmlns="http://www.w3.org/2000/svg">
<g clip-path="url(#clip0_3774_316100)">
<path d="M229.54 70.2346C255.299 87.6308 282.545 107.648 288.417 132.75C294.289 157.851 278.865 188.116 263.285 221.081C247.782 254.046 232.202 289.713 206.991 299.404C181.781 309.015 147.018 292.572 109.907 279.942C72.8743 267.391 33.4926 258.574 15.1719 233.791C-3.14883 209.086 -0.565139 168.416 1.31391 122.344C3.11466 76.2717 4.05419 24.798 29.6562 7.40182C55.2583 -9.99437 105.366 6.68691 142.556 22.415C179.745 38.143 203.86 52.8384 229.54 70.2346Z" fill="url(#paint0_linear_3774_316100)"/>
<g filter="url(#filter0_d_3774_316100)">
<path d="M50.7448 78.7807C46.8603 78.7911 43.7197 81.9487 43.7301 85.8333L43.7888 107.59L44.1164 229.139C44.1269 233.023 47.2845 236.164 51.169 236.153L220.076 235.698C223.96 235.688 227.101 232.53 227.091 228.646L226.704 85.34C226.694 81.4555 223.536 78.3149 219.652 78.3254L50.7448 78.7807Z" fill="white"/>
<path d="M44.4335 85.8314C44.4241 82.3353 47.2506 79.4935 50.7467 79.484L219.654 79.0287C223.15 79.0193 225.991 81.8458 226.001 85.3419L226.387 228.647C226.397 232.144 223.57 234.985 220.074 234.995L51.1671 235.45C47.671 235.46 44.8292 232.633 44.8198 229.137L44.4922 107.588L44.4335 85.8314Z" stroke="#DDDDDD" stroke-width="1.40673"/>
</g>
<rect x="58.844" y="105.866" width="155.867" height="62.4976" rx="5.56504" transform="rotate(-0.154444 58.844 105.866)" fill="#DDF1FF"/>
<path d="M43.7625 97.7993L225.562 97.3093" stroke="#DCD9D8" stroke-width="0.954822"/>
<path d="M54.0956 92.7466C55.9387 92.7417 57.4285 91.1325 57.4232 89.1526C57.4179 87.1726 55.9194 85.5715 54.0763 85.5765C52.2332 85.5815 50.7433 87.1906 50.7487 89.1706C50.754 91.1505 52.2525 92.7516 54.0956 92.7466Z" fill="#DDDDDD"/>
<path d="M66.497 92.7137C68.3401 92.7087 69.8299 91.0996 69.8246 89.1196C69.8192 87.1396 68.3208 85.5386 66.4776 85.5436C64.6345 85.5485 63.1447 87.1576 63.15 89.1376C63.1554 91.1176 64.6539 92.7186 66.497 92.7137Z" fill="#DDDDDD"/>
<path d="M78.8913 92.6803C80.7344 92.6753 82.2242 91.0662 82.2189 89.0862C82.2135 87.1063 80.7151 85.5052 78.8719 85.5102C77.0288 85.5151 75.539 87.1242 75.5443 89.1042C75.5497 91.0842 77.0481 92.6853 78.8913 92.6803Z" fill="#DDDDDD"/>
<path d="M90.1833 79.4273L90.2327 97.743" stroke="#DCD9D8" stroke-width="0.954822"/>
<path d="M138.656 79.2966L138.705 97.6123" stroke="#DCD9D8" stroke-width="0.954822"/>
<path d="M90.5176 79.7856L138.44 79.6565L138.427 97.124L90.5647 97.253L90.5176 79.7856Z" fill="#F2F2F2"/>
<rect x="59.0366" y="177.399" width="146.244" height="17.4419" rx="8.72097" transform="rotate(-0.154444 59.0366 177.399)" fill="#DDF1FF"/>
<rect x="102.789" y="206.648" width="26.1166" height="8.70554" rx="1.49463" transform="rotate(-0.154444 102.789 206.648)" fill="#DDE7F0"/>
<rect x="137.611" y="206.554" width="25.1493" height="8.70554" rx="1.49463" transform="rotate(-0.154444 137.611 206.554)" fill="#DDE7F0"/>
<path d="M205.548 217.184L200.984 221.015L238.266 265.432C240.857 268.173 244.871 264.137 242.83 261.602L205.548 217.184Z" fill="#1B8BFF"/>
<circle cx="184.25" cy="192.154" r="29.5171" transform="rotate(4.99198 184.25 192.154)" fill="#00335D"/>
<path d="M170.24 177.128L158.031 177.161C156.586 177.165 155.417 178.294 155.421 179.684L155.426 181.361C155.429 182.75 156.604 183.873 158.049 183.869L170.258 183.837C171.703 183.833 172.871 182.703 172.867 181.314L172.863 179.637C172.859 178.247 171.685 177.124 170.24 177.128Z" fill="#004B8F"/>
<rect x="198.384" y="190.469" width="10.7325" height="6.70784" rx="3.35392" transform="rotate(-0.154444 198.384 190.469)" fill="#74C6FF"/>
<rect x="152.767" y="190.592" width="17.4419" height="6.70844" rx="3.35422" transform="rotate(-0.154444 152.767 190.592)" fill="#004B8F"/>
<g filter="url(#filter1_d_3774_316100)">
<path d="M190.401 190.49L178.192 190.523C176.747 190.527 175.579 191.657 175.582 193.046L175.587 194.723C175.591 196.112 176.765 197.236 178.21 197.232L190.419 197.199C191.864 197.195 193.033 196.065 193.029 194.676L193.024 192.999C193.021 191.61 191.846 190.486 190.401 190.49Z" fill="#1B8BFF"/>
</g>
<path d="M166.69 203.972L156.359 203.999C155.136 204.003 154.148 205.132 154.152 206.521L154.156 208.198C154.16 209.587 155.154 210.711 156.377 210.708L166.708 210.68C167.93 210.677 168.919 209.548 168.915 208.158L168.91 206.481C168.907 205.092 167.912 203.968 166.69 203.972Z" fill="#0079E7"/>
<rect x="176.881" y="177.11" width="37.5673" height="6.70844" rx="3.35422" transform="rotate(-0.154444 176.881 177.11)" fill="#74C6FF"/>
<rect x="174.27" y="203.951" width="37.5673" height="6.70844" rx="3.35422" transform="rotate(-0.154444 174.27 203.951)" fill="#004B8F"/>
<path d="M181.565 227.793C174.608 227.185 167.987 224.528 162.54 220.157C157.093 215.787 153.064 209.899 150.963 203.239C148.862 196.579 148.783 189.445 150.736 182.74C152.69 176.035 156.588 170.06 161.937 165.57C167.286 161.08 173.847 158.277 180.789 157.516C187.731 156.755 194.743 158.069 200.938 161.293C207.133 164.517 212.233 169.505 215.593 175.628C218.953 181.75 220.422 188.731 219.814 195.689C218.987 205.013 214.496 213.629 207.326 219.647C200.156 225.666 190.892 228.595 181.565 227.793ZM187.16 163.736C187.161 163.734 187.159 163.732 187.157 163.732C181.447 163.234 175.718 164.44 170.693 167.198C165.667 169.956 161.572 174.142 158.925 179.228C156.279 184.314 155.2 190.07 155.825 195.768C156.45 201.467 158.75 206.853 162.436 211.244C166.122 215.635 171.027 218.835 176.531 220.438C182.035 222.042 187.891 221.977 193.359 220.252C198.826 218.528 203.659 215.22 207.247 210.749C210.835 206.277 213.016 200.842 213.515 195.131C214.173 187.476 211.768 179.872 206.827 173.987C201.887 168.103 194.816 164.418 187.164 163.74C187.162 163.74 187.16 163.738 187.16 163.736Z" fill="#1B8BFF"/>
<g filter="url(#filter2_d_3774_316100)">
<rect x="16.6851" y="108.992" width="56.3509" height="50.9841" rx="7.03367" transform="rotate(-0.154444 16.6851 108.992)" fill="#1B8BFF"/>
</g>
<path d="M44.8843 117.638C35.6267 117.663 28.1335 125.196 28.1585 134.454C28.1834 143.711 35.7171 151.205 44.9747 151.18C54.2323 151.155 61.7255 143.621 61.7006 134.363C61.6756 125.106 54.1419 117.613 44.8843 117.638ZM46.6292 142.79L43.275 142.799L43.266 139.444L46.6202 139.435L46.6292 142.79ZM46.6111 136.081L43.2569 136.09L43.2298 126.028L46.584 126.019L46.6111 136.081Z" fill="white"/>
</g>
<defs>
<filter id="filter0_d_3774_316100" x="24.1989" y="71.8149" width="222.423" height="196.891" filterUnits="userSpaceOnUse" color-interpolation-filters="sRGB">
<feFlood flood-opacity="0" result="BackgroundImageFix"/>
<feColorMatrix in="SourceAlpha" type="matrix" values="0 0 0 0 0 0 0 0 0 0 0 0 0 0 0 0 0 0 127 0" result="hardAlpha"/>
<feOffset dy="13.0209"/>
<feGaussianBlur stdDeviation="9.76567"/>
<feColorMatrix type="matrix" values="0 0 0 0 0.811914 0 0 0 0 0.811914 0 0 0 0 0.811914 0 0 0 0.4 0"/>
<feBlend mode="normal" in2="BackgroundImageFix" result="effect1_dropShadow_3774_316100"/>
<feBlend mode="normal" in="SourceGraphic" in2="effect1_dropShadow_3774_316100" result="shape"/>
</filter>
<filter id="filter1_d_3774_316100" x="156.051" y="183.98" width="56.509" height="45.804" filterUnits="userSpaceOnUse" color-interpolation-filters="sRGB">
<feFlood flood-opacity="0" result="BackgroundImageFix"/>
<feColorMatrix in="SourceAlpha" type="matrix" values="0 0 0 0 0 0 0 0 0 0 0 0 0 0 0 0 0 0 127 0" result="hardAlpha"/>
<feOffset dy="13.0209"/>
<feGaussianBlur stdDeviation="9.76567"/>
<feColorMatrix type="matrix" values="0 0 0 0 0.811914 0 0 0 0 0.811914 0 0 0 0 0.811914 0 0 0 0.4 0"/>
<feBlend mode="normal" in2="BackgroundImageFix" result="effect1_dropShadow_3774_316100"/>
<feBlend mode="normal" in="SourceGraphic" in2="effect1_dropShadow_3774_316100" result="shape"/>
</filter>
<filter id="filter2_d_3774_316100" x="-2.82725" y="102.349" width="95.5129" height="90.1607" filterUnits="userSpaceOnUse" color-interpolation-filters="sRGB">
<feFlood flood-opacity="0" result="BackgroundImageFix"/>
<feColorMatrix in="SourceAlpha" type="matrix" values="0 0 0 0 0 0 0 0 0 0 0 0 0 0 0 0 0 0 127 0" result="hardAlpha"/>
<feOffset dy="13.0209"/>
<feGaussianBlur stdDeviation="9.76567"/>
<feColorMatrix type="matrix" values="0 0 0 0 0.811914 0 0 0 0 0.811914 0 0 0 0 0.811914 0 0 0 0.4 0"/>
<feBlend mode="normal" in2="BackgroundImageFix" result="effect1_dropShadow_3774_316100"/>
<feBlend mode="normal" in="SourceGraphic" in2="effect1_dropShadow_3774_316100" result="shape"/>
</filter>
<linearGradient id="paint0_linear_3774_316100" x1="-25.6331" y1="-142.418" x2="695.791" y2="476.15" gradientUnits="userSpaceOnUse">
<stop stop-color="white"/>
<stop offset="1" stop-color="#009CFC"/>
</linearGradient>
<clipPath id="clip0_3774_316100">
<rect width="290" height="302" fill="white"/>
</clipPath>
</defs>
</svg>
