<svg width="1280" height="709" viewBox="0 0 1280 709" fill="none" xmlns="http://www.w3.org/2000/svg">
<rect width="1280" height="709" fill="white"/>
<g clip-path="url(#clip0_3786_361030)">
<path d="M1602.78 -340H-324.754V363.075H1602.78V-340Z" fill="white"/>
<path fill-rule="evenodd" clip-rule="evenodd" d="M-328.703 329.989H1608.7V330.989H-328.703V329.989Z" fill="#E0E7FF"/>
<path fill-rule="evenodd" clip-rule="evenodd" d="M-328.703 290.49H1608.7V291.49H-328.703V290.49Z" fill="#E0E7FF"/>
<path fill-rule="evenodd" clip-rule="evenodd" d="M-328.703 250.992H1608.7V251.992H-328.703V250.992Z" fill="#E0E7FF"/>
<path fill-rule="evenodd" clip-rule="evenodd" d="M-328.703 211.493H1608.7V212.493H-328.703V211.493Z" fill="#E0E7FF"/>
<path fill-rule="evenodd" clip-rule="evenodd" d="M-328.703 171.994H1608.7V172.994H-328.703V171.994Z" fill="#E0E7FF"/>
<path fill-rule="evenodd" clip-rule="evenodd" d="M-328.703 132.496H1608.7V133.496H-328.703V132.496Z" fill="#E0E7FF"/>
<path fill-rule="evenodd" clip-rule="evenodd" d="M-328.703 92.9973H1608.7V93.9973H-328.703V92.9973Z" fill="#E0E7FF"/>
<path fill-rule="evenodd" clip-rule="evenodd" d="M-328.703 53.4988H1608.7V54.4988H-328.703V53.4988Z" fill="#E0E7FF"/>
<path fill-rule="evenodd" clip-rule="evenodd" d="M-328.703 14H1608.7V15H-328.703V14Z" fill="#E0E7FF"/>
<path fill-rule="evenodd" clip-rule="evenodd" d="M27.2725 369V-340H28.2725V369H27.2725Z" fill="#E0E7FF"/>
<path fill-rule="evenodd" clip-rule="evenodd" d="M66.7705 369V-340H67.7705V369H66.7705Z" fill="#E0E7FF"/>
<path fill-rule="evenodd" clip-rule="evenodd" d="M106.269 369V-340H107.269V369H106.269Z" fill="#E0E7FF"/>
<path fill-rule="evenodd" clip-rule="evenodd" d="M145.768 369V-340H146.768V369H145.768Z" fill="#E0E7FF"/>
<path fill-rule="evenodd" clip-rule="evenodd" d="M185.266 369V-340H186.266V369H185.266Z" fill="#E0E7FF"/>
<path fill-rule="evenodd" clip-rule="evenodd" d="M224.765 369V-340H225.765V369H224.765Z" fill="#E0E7FF"/>
<path fill-rule="evenodd" clip-rule="evenodd" d="M264.264 369V-340H265.264V369H264.264Z" fill="#E0E7FF"/>
<path fill-rule="evenodd" clip-rule="evenodd" d="M303.763 369V-340H304.763V369H303.763Z" fill="#E0E7FF"/>
<path fill-rule="evenodd" clip-rule="evenodd" d="M343.261 369V-340H344.261V369H343.261Z" fill="#E0E7FF"/>
<path fill-rule="evenodd" clip-rule="evenodd" d="M382.759 369V-340H383.759V369H382.759Z" fill="#E0E7FF"/>
<path fill-rule="evenodd" clip-rule="evenodd" d="M422.258 369V-340H423.258V369H422.258Z" fill="#E0E7FF"/>
<path fill-rule="evenodd" clip-rule="evenodd" d="M461.756 369V-340H462.756V369H461.756Z" fill="#E0E7FF"/>
<path fill-rule="evenodd" clip-rule="evenodd" d="M501.255 369V-340H502.255V369H501.255Z" fill="#E0E7FF"/>
<path fill-rule="evenodd" clip-rule="evenodd" d="M540.754 369V-340H541.754V369H540.754Z" fill="#E0E7FF"/>
<path fill-rule="evenodd" clip-rule="evenodd" d="M580.253 369V-340H581.253V369H580.253Z" fill="#E0E7FF"/>
<path fill-rule="evenodd" clip-rule="evenodd" d="M619.751 369V-340H620.751V369H619.751Z" fill="#E0E7FF"/>
<path fill-rule="evenodd" clip-rule="evenodd" d="M659.25 369V-340H660.25V369H659.25Z" fill="#E0E7FF"/>
<path fill-rule="evenodd" clip-rule="evenodd" d="M698.748 369V-340H699.748V369H698.748Z" fill="#E0E7FF"/>
<path fill-rule="evenodd" clip-rule="evenodd" d="M738.246 369V-340H739.246V369H738.246Z" fill="#E0E7FF"/>
<path fill-rule="evenodd" clip-rule="evenodd" d="M777.745 369V-340H778.745V369H777.745Z" fill="#E0E7FF"/>
<path fill-rule="evenodd" clip-rule="evenodd" d="M817.244 369V-340H818.244V369H817.244Z" fill="#E0E7FF"/>
<path fill-rule="evenodd" clip-rule="evenodd" d="M856.742 369V-340H857.742V369H856.742Z" fill="#E0E7FF"/>
<path fill-rule="evenodd" clip-rule="evenodd" d="M896.241 369V-340H897.241V369H896.241Z" fill="#E0E7FF"/>
<path fill-rule="evenodd" clip-rule="evenodd" d="M935.74 369V-340H936.74V369H935.74Z" fill="#E0E7FF"/>
<path fill-rule="evenodd" clip-rule="evenodd" d="M975.239 369V-340H976.239V369H975.239Z" fill="#E0E7FF"/>
<path fill-rule="evenodd" clip-rule="evenodd" d="M1014.74 369V-340H1015.74V369H1014.74Z" fill="#E0E7FF"/>
<path fill-rule="evenodd" clip-rule="evenodd" d="M1054.24 369V-340H1055.24V369H1054.24Z" fill="#E0E7FF"/>
<path fill-rule="evenodd" clip-rule="evenodd" d="M1093.73 369V-340H1094.73V369H1093.73Z" fill="#E0E7FF"/>
<path fill-rule="evenodd" clip-rule="evenodd" d="M1133.23 369V-340H1134.23V369H1133.23Z" fill="#E0E7FF"/>
<path fill-rule="evenodd" clip-rule="evenodd" d="M1172.73 369V-340H1173.73V369H1172.73Z" fill="#E0E7FF"/>
<path fill-rule="evenodd" clip-rule="evenodd" d="M1212.23 369V-340H1213.23V369H1212.23Z" fill="#E0E7FF"/>
<path fill-rule="evenodd" clip-rule="evenodd" d="M1251.73 369V-340H1252.73V369H1251.73Z" fill="#E0E7FF"/>
<path fill-rule="evenodd" clip-rule="evenodd" d="M874.646 -22.5237C790.391 -22.5237 722.089 45.7785 722.089 130.033V137.933C722.089 222.188 790.391 290.49 874.646 290.49H882.546C966.801 290.49 1035.1 222.188 1035.1 137.933V130.033C1035.1 45.7785 966.801 -22.5237 882.546 -22.5237H874.646ZM721.089 130.033C721.089 45.2262 789.839 -23.5237 874.646 -23.5237H882.546C967.353 -23.5237 1036.1 45.2262 1036.1 130.033V137.933C1036.1 222.74 967.353 291.49 882.546 291.49H874.646C789.839 291.49 721.089 222.74 721.089 137.933V130.033Z" fill="#A5B4FC"/>
<path fill-rule="evenodd" clip-rule="evenodd" d="M878.597 81.0791C849.378 81.0791 825.692 104.765 825.692 133.983C825.692 163.201 849.378 186.887 878.597 186.887C907.815 186.887 931.501 163.201 931.501 133.983C931.501 104.765 907.815 81.0791 878.597 81.0791ZM824.692 133.983C824.692 104.213 848.826 80.0791 878.597 80.0791C908.367 80.0791 932.501 104.213 932.501 133.983C932.501 163.754 908.367 187.887 878.597 187.887C848.826 187.887 824.692 163.754 824.692 133.983Z" fill="#A5B4FC"/>
<path fill-rule="evenodd" clip-rule="evenodd" d="M746.989 -23.0113V-24.0112H747.989V-23.0113H746.989ZM746.989 -19.0114V-21.0113H747.989V-19.0114H746.989ZM746.989 -15.0115V-17.0115H747.989V-15.0115H746.989ZM746.989 -11.0117V-13.0116H747.989V-11.0117H746.989ZM746.989 -7.01183V-9.01176H747.989V-7.01183H746.989ZM746.989 -3.01197V-5.0119H747.989V-3.01197H746.989ZM746.989 0.987885V-1.01204H747.989V0.987885H746.989ZM746.989 4.98775V2.98782H747.989V4.98775H746.989ZM746.989 8.9876V6.98767H747.989V8.9876H746.989ZM746.989 12.9875V10.9875H747.989V12.9875H746.989ZM746.989 16.9873V14.9874H747.989V16.9873H746.989ZM746.989 20.9872V18.9872H747.989V20.9872H746.989ZM746.989 24.987V22.9871H747.989V24.987H746.989ZM746.989 28.9869V26.9869H747.989V28.9869H746.989ZM746.989 32.9867V30.9868H747.989V32.9867H746.989ZM746.989 36.9866V34.9867H747.989V36.9866H746.989ZM746.989 40.9864V38.9865H747.989V40.9864H746.989ZM746.989 44.9863V42.9864H747.989V44.9863H746.989ZM746.989 48.9862V46.9862H747.989V48.9862H746.989ZM746.989 52.986V50.9861H747.989V52.986H746.989ZM746.989 56.9859V54.986H747.989V56.9859H746.989ZM746.989 60.9857V58.9858H747.989V60.9857H746.989ZM746.989 64.9856V62.9857H747.989V64.9856H746.989ZM746.989 68.9855V66.9855H747.989V68.9855H746.989ZM746.989 72.9853V70.9854H747.989V72.9853H746.989ZM746.989 76.9852V74.9853H747.989V76.9852H746.989ZM746.989 80.9851V78.9851H747.989V80.9851H746.989ZM746.989 84.9849V82.985H747.989V84.9849H746.989ZM746.989 88.9848V86.9849H747.989V88.9848H746.989ZM746.989 92.9847V90.9847H747.989V92.9847H746.989ZM746.989 96.9845V94.9846H747.989V96.9845H746.989ZM746.989 100.984V98.9845H747.989V100.984H746.989ZM746.989 104.984V102.984H747.989V104.984H746.989ZM746.989 108.984V106.984H747.989V108.984H746.989ZM746.989 112.984V110.984H747.989V112.984H746.989ZM746.989 116.984V114.984H747.989V116.984H746.989ZM746.989 120.984V118.984H747.989V120.984H746.989ZM746.989 124.983V122.984H747.989V124.983H746.989ZM746.989 128.983V126.983H747.989V128.983H746.989ZM746.989 132.983V130.983H747.989V132.983H746.989ZM746.989 136.983V134.983H747.989V136.983H746.989ZM746.989 140.983V138.983H747.989V140.983H746.989ZM746.989 144.983V142.983H747.989V144.983H746.989ZM746.989 148.983V146.983H747.989V148.983H746.989ZM746.989 152.982V150.982H747.989V152.982H746.989ZM746.989 156.982V154.982H747.989V156.982H746.989ZM746.989 160.982V158.982H747.989V160.982H746.989ZM746.989 164.982V162.982H747.989V164.982H746.989ZM746.989 168.982V166.982H747.989V168.982H746.989ZM746.989 172.982V170.982H747.989V172.982H746.989ZM746.989 176.981V174.982H747.989V176.981H746.989ZM746.989 180.981V178.981H747.989V180.981H746.989ZM746.989 184.981V182.981H747.989V184.981H746.989ZM746.989 188.981V186.981H747.989V188.981H746.989ZM746.989 192.981V190.981H747.989V192.981H746.989ZM746.989 196.981V194.981H747.989V196.981H746.989ZM746.989 200.981V198.981H747.989V200.981H746.989ZM746.989 204.98V202.98H747.989V204.98H746.989ZM746.989 208.98V206.98H747.989V208.98H746.989ZM746.989 212.98V210.98H747.989V212.98H746.989ZM746.989 216.98V214.98H747.989V216.98H746.989ZM746.989 220.98V218.98H747.989V220.98H746.989ZM746.989 224.98V222.98H747.989V224.98H746.989ZM746.989 228.979V226.98H747.989V228.979H746.989ZM746.989 232.979V230.979H747.989V232.979H746.989ZM746.989 236.979V234.979H747.989V236.979H746.989ZM746.989 240.979V238.979H747.989V240.979H746.989ZM746.989 244.979V242.979H747.989V244.979H746.989ZM746.989 248.979V246.979H747.989V248.979H746.989ZM746.989 252.979V250.979H747.989V252.979H746.989ZM746.989 256.979V254.979H747.989V256.979H746.989ZM746.989 260.979V258.979H747.989V260.979H746.989ZM746.989 264.978V262.978H747.989V264.978H746.989ZM746.989 268.978V266.978H747.989V268.978H746.989ZM746.989 272.978V270.978H747.989V272.978H746.989ZM746.989 276.978V274.978H747.989V276.978H746.989ZM746.989 280.978V278.978H747.989V280.978H746.989ZM746.989 284.978V282.978H747.989V284.978H746.989ZM746.989 288.978V286.978H747.989V288.978H746.989ZM746.989 291.978V290.978H747.989V291.978H746.989Z" fill="#A5B4FC"/>
<path fill-rule="evenodd" clip-rule="evenodd" d="M1006 -23.0113V-24.0112H1007V-23.0113H1006ZM1006 -19.0114V-21.0113H1007V-19.0114H1006ZM1006 -15.0115V-17.0115H1007V-15.0115H1006ZM1006 -11.0117V-13.0116H1007V-11.0117H1006ZM1006 -7.01183V-9.01176H1007V-7.01183H1006ZM1006 -3.01197V-5.0119H1007V-3.01197H1006ZM1006 0.987885V-1.01204H1007V0.987885H1006ZM1006 4.98775V2.98782H1007V4.98775H1006ZM1006 8.9876V6.98767H1007V8.9876H1006ZM1006 12.9875V10.9875H1007V12.9875H1006ZM1006 16.9873V14.9874H1007V16.9873H1006ZM1006 20.9872V18.9872H1007V20.9872H1006ZM1006 24.987V22.9871H1007V24.987H1006ZM1006 28.9869V26.9869H1007V28.9869H1006ZM1006 32.9867V30.9868H1007V32.9867H1006ZM1006 36.9866V34.9867H1007V36.9866H1006ZM1006 40.9864V38.9865H1007V40.9864H1006ZM1006 44.9863V42.9864H1007V44.9863H1006ZM1006 48.9862V46.9862H1007V48.9862H1006ZM1006 52.986V50.9861H1007V52.986H1006ZM1006 56.9859V54.986H1007V56.9859H1006ZM1006 60.9857V58.9858H1007V60.9857H1006ZM1006 64.9856V62.9857H1007V64.9856H1006ZM1006 68.9855V66.9855H1007V68.9855H1006ZM1006 72.9853V70.9854H1007V72.9853H1006ZM1006 76.9852V74.9853H1007V76.9852H1006ZM1006 80.9851V78.9851H1007V80.9851H1006ZM1006 84.9849V82.985H1007V84.9849H1006ZM1006 88.9848V86.9849H1007V88.9848H1006ZM1006 92.9847V90.9847H1007V92.9847H1006ZM1006 96.9845V94.9846H1007V96.9845H1006ZM1006 100.984V98.9845H1007V100.984H1006ZM1006 104.984V102.984H1007V104.984H1006ZM1006 108.984V106.984H1007V108.984H1006ZM1006 112.984V110.984H1007V112.984H1006ZM1006 116.984V114.984H1007V116.984H1006ZM1006 120.984V118.984H1007V120.984H1006ZM1006 124.983V122.984H1007V124.983H1006ZM1006 128.983V126.983H1007V128.983H1006ZM1006 132.983V130.983H1007V132.983H1006ZM1006 136.983V134.983H1007V136.983H1006ZM1006 140.983V138.983H1007V140.983H1006ZM1006 144.983V142.983H1007V144.983H1006ZM1006 148.983V146.983H1007V148.983H1006ZM1006 152.982V150.982H1007V152.982H1006ZM1006 156.982V154.982H1007V156.982H1006ZM1006 160.982V158.982H1007V160.982H1006ZM1006 164.982V162.982H1007V164.982H1006ZM1006 168.982V166.982H1007V168.982H1006ZM1006 172.982V170.982H1007V172.982H1006ZM1006 176.981V174.982H1007V176.981H1006ZM1006 180.981V178.981H1007V180.981H1006ZM1006 184.981V182.981H1007V184.981H1006ZM1006 188.981V186.981H1007V188.981H1006ZM1006 192.981V190.981H1007V192.981H1006ZM1006 196.981V194.981H1007V196.981H1006ZM1006 200.981V198.981H1007V200.981H1006ZM1006 204.98V202.98H1007V204.98H1006ZM1006 208.98V206.98H1007V208.98H1006ZM1006 212.98V210.98H1007V212.98H1006ZM1006 216.98V214.98H1007V216.98H1006ZM1006 220.98V218.98H1007V220.98H1006ZM1006 224.98V222.98H1007V224.98H1006ZM1006 228.979V226.98H1007V228.979H1006ZM1006 232.979V230.979H1007V232.979H1006ZM1006 236.979V234.979H1007V236.979H1006ZM1006 240.979V238.979H1007V240.979H1006ZM1006 244.979V242.979H1007V244.979H1006ZM1006 248.979V246.979H1007V248.979H1006ZM1006 252.979V250.979H1007V252.979H1006ZM1006 256.979V254.979H1007V256.979H1006ZM1006 260.979V258.979H1007V260.979H1006ZM1006 264.978V262.978H1007V264.978H1006ZM1006 268.978V266.978H1007V268.978H1006ZM1006 272.978V270.978H1007V272.978H1006ZM1006 276.978V274.978H1007V276.978H1006ZM1006 280.978V278.978H1007V280.978H1006ZM1006 284.978V282.978H1007V284.978H1006ZM1006 288.978V286.978H1007V288.978H1006ZM1006 291.978V290.978H1007V291.978H1006Z" fill="#A5B4FC"/>
<path fill-rule="evenodd" clip-rule="evenodd" d="M719.01 5.96655H718.01V4.96655H719.01V5.96655ZM723.01 5.96655H721.01V4.96655H723.01V5.96655ZM727.009 5.96655H725.01V4.96655H727.009V5.96655ZM731.009 5.96655H729.009V4.96655H731.009V5.96655ZM735.009 5.96655H733.009V4.96655H735.009V5.96655ZM739.009 5.96655H737.009V4.96655H739.009V5.96655ZM743.009 5.96655H741.009V4.96655H743.009V5.96655ZM747.009 5.96655H745.009V4.96655H747.009V5.96655ZM751.009 5.96655H749.009V4.96655H751.009V5.96655ZM755.008 5.96655H753.009V4.96655H755.008V5.96655ZM759.008 5.96655H757.008V4.96655H759.008V5.96655ZM763.008 5.96655H761.008V4.96655H763.008V5.96655ZM767.008 5.96655H765.008V4.96655H767.008V5.96655ZM771.008 5.96655H769.008V4.96655H771.008V5.96655ZM775.008 5.96655H773.008V4.96655H775.008V5.96655ZM779.008 5.96655H777.008V4.96655H779.008V5.96655ZM783.007 5.96655H781.008V4.96655H783.007V5.96655ZM787.007 5.96655H785.007V4.96655H787.007V5.96655ZM791.007 5.96655H789.007V4.96655H791.007V5.96655ZM795.007 5.96655H793.007V4.96655H795.007V5.96655ZM799.007 5.96655H797.007V4.96655H799.007V5.96655ZM803.007 5.96655H801.007V4.96655H803.007V5.96655ZM807.007 5.96655H805.007V4.96655H807.007V5.96655ZM811.006 5.96655H809.007V4.96655H811.006V5.96655ZM815.006 5.96655H813.006V4.96655H815.006V5.96655ZM819.006 5.96655H817.006V4.96655H819.006V5.96655ZM823.006 5.96655H821.006V4.96655H823.006V5.96655ZM827.006 5.96655H825.006V4.96655H827.006V5.96655ZM831.006 5.96655H829.006V4.96655H831.006V5.96655ZM835.006 5.96655H833.006V4.96655H835.006V5.96655ZM839.006 5.96655H837.006V4.96655H839.006V5.96655ZM843.005 5.96655H841.005V4.96655H843.005V5.96655ZM847.005 5.96655H845.005V4.96655H847.005V5.96655ZM851.005 5.96655H849.005V4.96655H851.005V5.96655ZM855.005 5.96655H853.005V4.96655H855.005V5.96655ZM859.005 5.96655H857.005V4.96655H859.005V5.96655ZM863.005 5.96655H861.005V4.96655H863.005V5.96655ZM867.004 5.96655H865.005V4.96655H867.004V5.96655ZM871.004 5.96655H869.004V4.96655H871.004V5.96655ZM875.004 5.96655H873.004V4.96655H875.004V5.96655ZM879.004 5.96655H877.004V4.96655H879.004V5.96655ZM883.004 5.96655H881.004V4.96655H883.004V5.96655ZM887.004 5.96655H885.004V4.96655H887.004V5.96655ZM891.004 5.96655H889.004V4.96655H891.004V5.96655ZM895.003 5.96655H893.003V4.96655H895.003V5.96655ZM899.003 5.96655H897.003V4.96655H899.003V5.96655ZM903.003 5.96655H901.003V4.96655H903.003V5.96655ZM907.003 5.96655H905.003V4.96655H907.003V5.96655ZM911.003 5.96655H909.003V4.96655H911.003V5.96655ZM915.003 5.96655H913.003V4.96655H915.003V5.96655ZM919.002 5.96655H917.003V4.96655H919.002V5.96655ZM923.002 5.96655H921.002V4.96655H923.002V5.96655ZM927.002 5.96655H925.002V4.96655H927.002V5.96655ZM931.002 5.96655H929.002V4.96655H931.002V5.96655ZM935.002 5.96655H933.002V4.96655H935.002V5.96655ZM939.002 5.96655H937.002V4.96655H939.002V5.96655ZM943.002 5.96655H941.002V4.96655H943.002V5.96655ZM947.001 5.96655H945.001V4.96655H947.001V5.96655ZM951.001 5.96655H949.001V4.96655H951.001V5.96655ZM955.001 5.96655H953.001V4.96655H955.001V5.96655ZM959.001 5.96655H957.001V4.96655H959.001V5.96655ZM963.001 5.96655H961.001V4.96655H963.001V5.96655ZM967.001 5.96655H965.001V4.96655H967.001V5.96655ZM971 5.96655H969.001V4.96655H971V5.96655ZM975 5.96655H973V4.96655H975V5.96655ZM979 5.96655H977V4.96655H979V5.96655ZM983 5.96655H981V4.96655H983V5.96655ZM987 5.96655H985V4.96655H987V5.96655ZM991 5.96655H989V4.96655H991V5.96655ZM995 5.96655H993V4.96655H995V5.96655ZM999 5.96655H997V4.96655H999V5.96655ZM1003 5.96655H1001V4.96655H1003V5.96655ZM1007 5.96655H1005V4.96655H1007V5.96655ZM1011 5.96655H1009V4.96655H1011V5.96655ZM1015 5.96655H1013V4.96655H1015V5.96655ZM1019 5.96655H1017V4.96655H1019V5.96655ZM1023 5.96655H1021V4.96655H1023V5.96655ZM1027 5.96655H1025V4.96655H1027V5.96655ZM1031 5.96655H1029V4.96655H1031V5.96655ZM1034 5.96655H1033V4.96655H1034V5.96655Z" fill="#A5B4FC"/>
<path fill-rule="evenodd" clip-rule="evenodd" d="M720.962 -22.2688L720.256 -22.9752L719.549 -22.2681L720.255 -21.5617L720.962 -22.2688ZM723.788 -19.4433L722.375 -20.856L721.668 -20.1489L723.081 -18.7361L723.788 -19.4433ZM726.613 -16.6177L725.201 -18.0305L724.494 -17.3234L725.906 -15.9106L726.613 -16.6177ZM729.439 -13.7922L728.026 -15.2049L727.319 -14.4978L728.732 -13.0851L729.439 -13.7922ZM732.264 -10.9666L730.852 -12.3794L730.145 -11.6723L731.557 -10.2595L732.264 -10.9666ZM735.09 -8.1411L733.677 -9.55387L732.97 -8.84676L734.383 -7.43399L735.09 -8.1411ZM737.916 -5.31557L736.503 -6.72833L735.796 -6.02123L737.208 -4.60846L737.916 -5.31557ZM740.741 -2.49003L739.328 -3.9028L738.621 -3.19569L740.034 -1.78292L740.741 -2.49003ZM743.567 0.335507L742.154 -1.07726L741.447 -0.370154L742.86 1.04261L743.567 0.335507ZM746.392 3.16104L744.979 1.74828L744.272 2.45538L745.685 3.86815L746.392 3.16104ZM749.218 5.98658L747.805 4.57381L747.098 5.28092L748.511 6.69369L749.218 5.98658ZM752.043 8.81212L750.63 7.39935L749.923 8.10646L751.336 9.51923L752.043 8.81212ZM754.869 11.6377L753.456 10.2249L752.749 10.932L754.162 12.3448L754.869 11.6377ZM757.694 14.4632L756.282 13.0504L755.574 13.7575L756.987 15.1703L757.694 14.4632ZM760.52 17.2887L759.107 15.876L758.4 16.5831L759.813 17.9958L760.52 17.2887ZM763.345 20.1143L761.933 18.7015L761.225 19.4086L762.638 20.8214L763.345 20.1143ZM766.171 22.9398L764.758 21.527L764.051 22.2341L765.464 23.6469L766.171 22.9398ZM768.996 25.7653L767.584 24.3526L766.877 25.0597L768.289 26.4724L768.996 25.7653ZM771.822 28.5909L770.409 27.1781L769.702 27.8852L771.115 29.298L771.822 28.5909ZM774.648 31.4164L773.235 30.0036L772.528 30.7107L773.94 32.1235L774.648 31.4164ZM777.473 34.2419L776.06 32.8292L775.353 33.5363L776.766 34.9491L777.473 34.2419ZM780.299 37.0675L778.886 35.6547L778.179 36.3618L779.591 37.7746L780.299 37.0675ZM783.124 39.893L781.711 38.4802L781.004 39.1874L782.417 40.6001L783.124 39.893ZM785.95 42.7186L784.537 41.3058L783.83 42.0129L785.243 43.4257L785.95 42.7186ZM788.775 45.5441L787.362 44.1313L786.655 44.8384L788.068 46.2512L788.775 45.5441ZM791.601 48.3696L790.188 46.9569L789.481 47.664L790.894 49.0767L791.601 48.3696ZM794.426 51.1952L793.014 49.7824L792.306 50.4895L793.719 51.9023L794.426 51.1952ZM797.252 54.0207L795.839 52.6079L795.132 53.315L796.545 54.7278L797.252 54.0207ZM800.077 56.8462L798.665 55.4335L797.957 56.1406L799.37 57.5533L800.077 56.8462ZM802.903 59.6718L801.49 58.259L800.783 58.9661L802.196 60.3789L802.903 59.6718ZM805.728 62.4973L804.316 61.0845L803.609 61.7916L805.021 63.2044L805.728 62.4973ZM808.554 65.3229L807.141 63.9101L806.434 64.6172L807.847 66.03L808.554 65.3229ZM811.379 68.1484L809.967 66.7356L809.26 67.4427L810.672 68.8555L811.379 68.1484ZM814.205 70.9739L812.792 69.5612L812.085 70.2683L813.498 71.681L814.205 70.9739ZM817.031 73.7995L815.618 72.3867L814.911 73.0938L816.323 74.5066L817.031 73.7995ZM819.856 76.625L818.443 75.2122L817.736 75.9193L819.149 77.3321L819.856 76.625ZM822.682 79.4505L821.269 78.0378L820.562 78.7449L821.975 80.1576L822.682 79.4505ZM825.507 82.2761L824.094 80.8633L823.387 81.5704L824.8 82.9832L825.507 82.2761ZM828.333 85.1016L826.92 83.6888L826.213 84.3959L827.626 85.8087L828.333 85.1016ZM831.158 87.9272L829.745 86.5144L829.038 87.2215L830.451 88.6343L831.158 87.9272ZM833.984 90.7527L832.571 89.3399L831.864 90.047L833.277 91.4598L833.984 90.7527ZM836.809 93.5782L835.397 92.1654L834.689 92.8726L836.102 94.2853L836.809 93.5782ZM839.635 96.4038L838.222 94.991L837.515 95.6981L838.928 97.1109L839.635 96.4038ZM842.46 99.2293L841.048 97.8165L840.341 98.5236L841.753 99.9364L842.46 99.2293ZM845.286 102.055L843.873 100.642L843.166 101.349L844.579 102.762L845.286 102.055ZM848.111 104.88L846.699 103.468L845.992 104.175L847.404 105.587L848.111 104.88ZM850.937 107.706L849.524 106.293L848.817 107L850.23 108.413L850.937 107.706ZM853.763 110.531L852.35 109.119L851.643 109.826L853.055 111.239L853.763 110.531ZM856.588 113.357L855.175 111.944L854.468 112.651L855.881 114.064L856.588 113.357ZM859.414 116.183L858.001 114.77L857.294 115.477L858.707 116.89L859.414 116.183ZM862.239 119.008L860.826 117.595L860.119 118.302L861.532 119.715L862.239 119.008ZM865.065 121.834L863.652 120.421L862.945 121.128L864.358 122.541L865.065 121.834ZM867.89 124.659L866.477 123.246L865.77 123.953L867.183 125.366L867.89 124.659ZM870.716 127.485L869.303 126.072L868.596 126.779L870.009 128.192L870.716 127.485ZM873.541 130.31L872.129 128.897L871.421 129.605L872.834 131.017L873.541 130.31ZM876.367 133.136L874.954 131.723L874.247 132.43L875.66 133.843L876.367 133.136ZM879.192 135.961L877.78 134.548L877.072 135.256L878.485 136.668L879.192 135.961ZM882.018 138.787L880.605 137.374L879.898 138.081L881.311 139.494L882.018 138.787ZM884.843 141.612L883.431 140.2L882.724 140.907L884.136 142.319L884.843 141.612ZM887.669 144.438L886.256 143.025L885.549 143.732L886.962 145.145L887.669 144.438ZM890.495 147.263L889.082 145.851L888.375 146.558L889.787 147.971L890.495 147.263ZM893.32 150.089L891.907 148.676L891.2 149.383L892.613 150.796L893.32 150.089ZM896.146 152.914L894.733 151.502L894.026 152.209L895.438 153.622L896.146 152.914ZM898.971 155.74L897.558 154.327L896.851 155.034L898.264 156.447L898.971 155.74ZM901.797 158.566L900.384 157.153L899.677 157.86L901.09 159.273L901.797 158.566ZM904.622 161.391L903.209 159.978L902.502 160.685L903.915 162.098L904.622 161.391ZM907.448 164.217L906.035 162.804L905.328 163.511L906.741 164.924L907.448 164.217ZM910.273 167.042L908.861 165.629L908.153 166.337L909.566 167.749L910.273 167.042ZM913.099 169.868L911.686 168.455L910.979 169.162L912.392 170.575L913.099 169.868ZM915.924 172.693L914.512 171.28L913.804 171.988L915.217 173.4L915.924 172.693ZM918.75 175.519L917.337 174.106L916.63 174.813L918.043 176.226L918.75 175.519ZM921.575 178.344L920.163 176.932L919.456 177.639L920.868 179.051L921.575 178.344ZM924.401 181.17L922.988 179.757L922.281 180.464L923.694 181.877L924.401 181.17ZM927.227 183.995L925.814 182.583L925.107 183.29L926.519 184.703L927.227 183.995ZM930.052 186.821L928.639 185.408L927.932 186.115L929.345 187.528L930.052 186.821ZM932.878 189.646L931.465 188.234L930.758 188.941L932.17 190.354L932.878 189.646ZM935.703 192.472L934.29 191.059L933.583 191.766L934.996 193.179L935.703 192.472ZM938.529 195.298L937.116 193.885L936.409 194.592L937.822 196.005L938.529 195.298ZM941.354 198.123L939.941 196.71L939.234 197.417L940.647 198.83L941.354 198.123ZM944.18 200.949L942.767 199.536L942.06 200.243L943.473 201.656L944.18 200.949ZM947.005 203.774L945.592 202.361L944.885 203.068L946.298 204.481L947.005 203.774ZM949.831 206.6L948.418 205.187L947.711 205.894L949.124 207.307L949.831 206.6ZM952.656 209.425L951.244 208.012L950.536 208.72L951.949 210.132L952.656 209.425ZM955.482 212.251L954.069 210.838L953.362 211.545L954.775 212.958L955.482 212.251ZM958.307 215.076L956.895 213.664L956.188 214.371L957.6 215.783L958.307 215.076ZM961.133 217.902L959.72 216.489L959.013 217.196L960.426 218.609L961.133 217.902ZM963.958 220.727L962.546 219.315L961.839 220.022L963.251 221.434L963.958 220.727ZM966.784 223.553L965.371 222.14L964.664 222.847L966.077 224.26L966.784 223.553ZM969.61 226.378L968.197 224.966L967.49 225.673L968.902 227.086L969.61 226.378ZM972.435 229.204L971.022 227.791L970.315 228.498L971.728 229.911L972.435 229.204ZM975.261 232.029L973.848 230.617L973.141 231.324L974.554 232.737L975.261 232.029ZM978.086 234.855L976.673 233.442L975.966 234.149L977.379 235.562L978.086 234.855ZM980.912 237.681L979.499 236.268L978.792 236.975L980.205 238.388L980.912 237.681ZM983.737 240.506L982.324 239.093L981.617 239.8L983.03 241.213L983.737 240.506ZM986.563 243.332L985.15 241.919L984.443 242.626L985.856 244.039L986.563 243.332ZM989.388 246.157L987.976 244.744L987.268 245.452L988.681 246.864L989.388 246.157ZM992.214 248.983L990.801 247.57L990.094 248.277L991.507 249.69L992.214 248.983ZM995.039 251.808L993.627 250.396L992.92 251.103L994.332 252.515L995.039 251.808ZM997.865 254.634L996.452 253.221L995.745 253.928L997.158 255.341L997.865 254.634ZM1000.69 257.459L999.278 256.047L998.571 256.754L999.983 258.166L1000.69 257.459ZM1003.52 260.285L1002.1 258.872L1001.4 259.579L1002.81 260.992L1003.52 260.285ZM1006.34 263.11L1004.93 261.698L1004.22 262.405L1005.63 263.818L1006.34 263.11ZM1009.17 265.936L1007.75 264.523L1007.05 265.23L1008.46 266.643L1009.17 265.936ZM1011.99 268.761L1010.58 267.349L1009.87 268.056L1011.29 269.469L1011.99 268.761ZM1014.82 271.587L1013.41 270.174L1012.7 270.881L1014.11 272.294L1014.82 271.587ZM1017.64 274.413L1016.23 273L1015.52 273.707L1016.94 275.12L1017.64 274.413ZM1020.47 277.238L1019.06 275.825L1018.35 276.532L1019.76 277.945L1020.47 277.238ZM1023.29 280.064L1021.88 278.651L1021.17 279.358L1022.59 280.771L1023.29 280.064ZM1026.12 282.889L1024.71 281.476L1024 282.183L1025.41 283.596L1026.12 282.889ZM1028.95 285.715L1027.53 284.302L1026.83 285.009L1028.24 286.422L1028.95 285.715ZM1031.07 287.834L1030.36 287.127L1029.65 287.835L1030.36 288.541L1031.07 287.834Z" fill="#A5B4FC"/>
<path fill-rule="evenodd" clip-rule="evenodd" d="M719.01 264.975H718.01V263.975H719.01V264.975ZM723.01 264.975H721.01V263.975H723.01V264.975ZM727.009 264.975H725.01V263.975H727.009V264.975ZM731.009 264.975H729.009V263.975H731.009V264.975ZM735.009 264.975H733.009V263.975H735.009V264.975ZM739.009 264.975H737.009V263.975H739.009V264.975ZM743.009 264.975H741.009V263.975H743.009V264.975ZM747.009 264.975H745.009V263.975H747.009V264.975ZM751.009 264.975H749.009V263.975H751.009V264.975ZM755.008 264.975H753.009V263.975H755.008V264.975ZM759.008 264.975H757.008V263.975H759.008V264.975ZM763.008 264.975H761.008V263.975H763.008V264.975ZM767.008 264.975H765.008V263.975H767.008V264.975ZM771.008 264.975H769.008V263.975H771.008V264.975ZM775.008 264.975H773.008V263.975H775.008V264.975ZM779.008 264.975H777.008V263.975H779.008V264.975ZM783.007 264.975H781.008V263.975H783.007V264.975ZM787.007 264.975H785.007V263.975H787.007V264.975ZM791.007 264.975H789.007V263.975H791.007V264.975ZM795.007 264.975H793.007V263.975H795.007V264.975ZM799.007 264.975H797.007V263.975H799.007V264.975ZM803.007 264.975H801.007V263.975H803.007V264.975ZM807.007 264.975H805.007V263.975H807.007V264.975ZM811.006 264.975H809.007V263.975H811.006V264.975ZM815.006 264.975H813.006V263.975H815.006V264.975ZM819.006 264.975H817.006V263.975H819.006V264.975ZM823.006 264.975H821.006V263.975H823.006V264.975ZM827.006 264.975H825.006V263.975H827.006V264.975ZM831.006 264.975H829.006V263.975H831.006V264.975ZM835.006 264.975H833.006V263.975H835.006V264.975ZM839.006 264.975H837.006V263.975H839.006V264.975ZM843.005 264.975H841.005V263.975H843.005V264.975ZM847.005 264.975H845.005V263.975H847.005V264.975ZM851.005 264.975H849.005V263.975H851.005V264.975ZM855.005 264.975H853.005V263.975H855.005V264.975ZM859.005 264.975H857.005V263.975H859.005V264.975ZM863.005 264.975H861.005V263.975H863.005V264.975ZM867.004 264.975H865.005V263.975H867.004V264.975ZM871.004 264.975H869.004V263.975H871.004V264.975ZM875.004 264.975H873.004V263.975H875.004V264.975ZM879.004 264.975H877.004V263.975H879.004V264.975ZM883.004 264.975H881.004V263.975H883.004V264.975ZM887.004 264.975H885.004V263.975H887.004V264.975ZM891.004 264.975H889.004V263.975H891.004V264.975ZM895.003 264.975H893.003V263.975H895.003V264.975ZM899.003 264.975H897.003V263.975H899.003V264.975ZM903.003 264.975H901.003V263.975H903.003V264.975ZM907.003 264.975H905.003V263.975H907.003V264.975ZM911.003 264.975H909.003V263.975H911.003V264.975ZM915.003 264.975H913.003V263.975H915.003V264.975ZM919.002 264.975H917.003V263.975H919.002V264.975ZM923.002 264.975H921.002V263.975H923.002V264.975ZM927.002 264.975H925.002V263.975H927.002V264.975ZM931.002 264.975H929.002V263.975H931.002V264.975ZM935.002 264.975H933.002V263.975H935.002V264.975ZM939.002 264.975H937.002V263.975H939.002V264.975ZM943.002 264.975H941.002V263.975H943.002V264.975ZM947.001 264.975H945.001V263.975H947.001V264.975ZM951.001 264.975H949.001V263.975H951.001V264.975ZM955.001 264.975H953.001V263.975H955.001V264.975ZM959.001 264.975H957.001V263.975H959.001V264.975ZM963.001 264.975H961.001V263.975H963.001V264.975ZM967.001 264.975H965.001V263.975H967.001V264.975ZM971 264.975H969.001V263.975H971V264.975ZM975 264.975H973V263.975H975V264.975ZM979 264.975H977V263.975H979V264.975ZM983 264.975H981V263.975H983V264.975ZM987 264.975H985V263.975H987V264.975ZM991 264.975H989V263.975H991V264.975ZM995 264.975H993V263.975H995V264.975ZM999 264.975H997V263.975H999V264.975ZM1003 264.975H1001V263.975H1003V264.975ZM1007 264.975H1005V263.975H1007V264.975ZM1011 264.975H1009V263.975H1011V264.975ZM1015 264.975H1013V263.975H1015V264.975ZM1019 264.975H1017V263.975H1019V264.975ZM1023 264.975H1021V263.975H1023V264.975ZM1027 264.975H1025V263.975H1027V264.975ZM1031 264.975H1029V263.975H1031V264.975ZM1034 264.975H1033V263.975H1034V264.975Z" fill="#A5B4FC"/>
</g>
<rect width="1280" height="703" fill="url(#paint0_radial_3786_361030)"/>
<defs>
<radialGradient id="paint0_radial_3786_361030" cx="0" cy="0" r="1" gradientUnits="userSpaceOnUse" gradientTransform="translate(640 703) rotate(-90) scale(703 2300.5)">
<stop offset="0.642621" stop-color="white"/>
<stop offset="1" stop-color="white" stop-opacity="0"/>
</radialGradient>
<clipPath id="clip0_3786_361030">
<rect width="1280" height="369" fill="white"/>
</clipPath>
</defs>
</svg>
