<svg
    width="32"
    height="32"
    viewBox="0 0 32 32"
    fill="none"
    xmlns="http://www.w3.org/2000/svg"
  >
    <path
      fillRule="evenodd"
      clipRule="evenodd"
      d="M32 16C32 24.8368 24.8368 32 16 32C7.1635 32 0 24.8368 0 16C0 7.1635 7.1635 0 16 0C24.8368 0 32 7.1635 32 16Z"
      fill="#ECB360"
    />
    <path
      fillRule="evenodd"
      clipRule="evenodd"
      d="M27.7333 14.4C27.7333 22.3528 21.5247 28.8 13.8667 28.8C6.20837 28.8 0 22.3528 0 14.4C0 6.44715 6.20837 0 13.8667 0C21.5247 0 27.7333 6.44715 27.7333 14.4Z"
      fill="#D76835"
    />
    <path
      fillRule="evenodd"
      clipRule="evenodd"
      d="M28.7999 12.7998C28.7999 19.8692 23.308 25.6 16.5328 25.6C9.7586 25.6 4.2666 19.8692 4.2666 12.7998C4.2666 5.73079 9.7586 0 16.5328 0C23.308 0 28.7999 5.73079 28.7999 12.7998Z"
      fill="#D33A41"
    />
    <path
      fillRule="evenodd"
      clipRule="evenodd"
      d="M27.7335 13.8663C27.7335 20.3461 22.7189 25.5995 16.5333 25.5995C10.3478 25.5995 5.3335 20.3461 5.3335 13.8663C5.3335 7.38587 10.3478 2.13281 16.5333 2.13281C22.7189 2.13281 27.7335 7.38587 27.7335 13.8663Z"
      fill="#B6CB46"
    />
    <path
      fillRule="evenodd"
      clipRule="evenodd"
      d="M26.6668 14.9321C26.6668 20.8232 21.8911 25.5989 16 25.5989C10.1092 25.5989 5.3335 20.8232 5.3335 14.9321C5.3335 9.04108 10.1092 4.26562 16 4.26562C21.8911 4.26562 26.6668 9.04108 26.6668 14.9321Z"
      fill="#66AD4A"
    />
    <path
      fillRule="evenodd"
      clipRule="evenodd"
      d="M22.4001 12.7989C22.4001 17.5118 18.5796 21.3323 13.8668 21.3323C9.15372 21.3323 5.3335 17.5118 5.3335 12.7989C5.3335 8.08613 9.15372 4.26562 13.8668 4.26562C18.5796 4.26562 22.4001 8.08613 22.4001 12.7989Z"
      fill="#AED7DC"
    />
    <path
      fillRule="evenodd"
      clipRule="evenodd"
      d="M23.4667 11.7323C23.4667 15.8559 20.1239 19.199 16 19.199C11.876 19.199 8.53345 15.8559 8.53345 11.7323C8.53345 7.60839 11.876 4.26562 16 4.26562C20.1239 4.26562 23.4667 7.60839 23.4667 11.7323Z"
      fill="#5BB1CF"
    />
    <path
      fillRule="evenodd"
      clipRule="evenodd"
      d="M23.4665 12.2652C23.4665 16.0944 20.6012 19.1987 17.0665 19.1987C13.5318 19.1987 10.6665 16.0944 10.6665 12.2652C10.6665 8.43635 13.5318 5.33203 17.0665 5.33203C20.6012 5.33203 23.4665 8.43635 23.4665 12.2652Z"
      fill="#25A8C3"
    />
    <path
      fillRule="evenodd"
      clipRule="evenodd"
      d="M15.9997 19.1982C13.0544 19.1982 10.6665 16.5715 10.6665 13.3314C10.6665 10.0912 13.0544 7.46484 15.9997 7.46484C18.9452 7.46484 21.3332 10.0912 21.3332 13.3314C21.3332 16.5715 18.9452 19.1982 15.9997 19.1982Z"
      fill="#1B1A18"
    />
    <path
      fillRule="evenodd"
      clipRule="evenodd"
      d="M18.9101 11.6432C18.4027 12.492 17.4051 12.983 16.6816 12.739C15.958 12.4953 15.7829 11.6092 16.2899 10.7601C16.7973 9.91098 17.7949 9.42037 18.5184 9.66405C19.242 9.90775 19.4171 10.7939 18.9101 11.6432Z"
      fill="#FFFFFE"
    />
  </svg>